<svg xmlns="http://www.w3.org/2000/svg" version="1.1" xmlns:xlink="http://www.w3.org/1999/xlink" xmlns:svgjs="http://svgjs.dev/svgjs" viewBox="0 0 24.716663278248557 26.652667778248556"><g transform="matrix(1,0,0,1,6.679243318714122,23.263099207228265)"><g><path d=" M 0.3501405 1.1260799999999997 C 0.2762415 1.1260799999999997 0.2058615 1.0486619999999998 0.2058615 0.9923579999999999 C 0.2058615 0.8797499999999998 0.3782925 0.7354709999999998 0.5331285 0.6316604999999998 C 0.5577615 0.6158249999999998 0.573597 0.5999894999999998 0.573597 0.5806349999999998 C 0.573597 0.5436854999999998 0.506736 0.4944194999999998 0.450432 0.4944194999999998 C 0.443394 0.4944194999999998 0.4381155 0.4944194999999998 0.4310775 0.4961789999999998 C 0.418761 0.4961789999999998 0.358938 0.4328369999999998 0.358938 0.3782924999999998 C 0.358938 0.2692034999999998 0.534888 0.11964599999999992 0.587673 0.11964599999999992 C 0.6175845 0.11964599999999992 0.658053 0.15131699999999992 0.658053 0.17594999999999983 C 0.658053 0.20234249999999987 0.6316605 0.24984899999999988 0.6035085 0.3079124999999998 C 0.59823 0.31846949999999985 0.5964705 0.32550749999999984 0.5964705 0.33430499999999985 C 0.5964705 0.35717849999999984 0.66861 0.4082039999999998 0.696762 0.4082039999999998 C 0.7055595 0.4082039999999998 0.710838 0.40468499999999985 0.7231545 0.3906089999999999 C 0.770661 0.3307859999999998 0.8252055 0.23401349999999987 0.8252055 0.19530449999999977 C 0.8252055 0.11612699999999987 0.6562935 0.001759499999999914 0.5296095 0.001759499999999914 C 0.4064445 0.001759499999999914 0.151317 0.2128994999999998 0.151317 0.3448619999999998 C 0.151317 0.4398749999999998 0.278001 0.5296094999999998 0.3184695 0.5542424999999999 C 0.182988 0.6439769999999998 0 0.7952939999999998 0 0.9483704999999998 C 0 1.0662569999999998 0.2058615 1.2510044999999999 0.394128 1.2510044999999999 C 0.446913 1.2510044999999999 0.5401665 1.2351689999999997 0.573597 1.2034979999999997 C 0.629901 1.1507129999999999 0.6668505 1.0820925 0.7038 1.0205099999999998 C 0.714357 1.0029149999999998 0.721395 0.9870794999999999 0.721395 0.9730034999999998 C 0.721395 0.9518894999999998 0.6527745 0.8991044999999998 0.6316605 0.8991044999999998 C 0.6140655 0.8991044999999998 0.605268 0.9096614999999999 0.5929515 0.9237374999999999 C 0.510255 1.027548 0.4275585 1.1260799999999997 0.3501405 1.1260799999999997 M 1.120113164355469 0.3765329999999998 C 1.120113164355469 0.35014049999999985 1.134189164355469 0.2991149999999998 1.142986664355469 0.2903174999999998 C 1.227442664355469 0.1970639999999999 1.276708664355469 0.14779799999999987 1.299582164355469 0.14779799999999987 C 1.322455664355469 0.14779799999999987 1.338291164355469 0.15483599999999975 1.3435696643554689 0.1812284999999998 C 1.3523671643554689 0.21817799999999976 1.392835664355469 0.4011659999999998 1.440342164355469 0.5982299999999998 C 1.2890251643554689 0.7970534999999999 1.1394676643554689 0.9905984999999998 1.074366164355469 1.0627379999999997 C 1.060290164355469 1.0785734999999999 1.009264664355469 1.1102444999999999 0.974074664355469 1.1295989999999998 C 0.9635176643554689 1.1348774999999998 0.9564796643554689 1.1454345 0.9564796643554689 1.1559914999999998 C 0.9564796643554689 1.1771055 1.0356571643554688 1.2510044999999999 1.063809164355469 1.2510044999999999 C 1.083163664355469 1.2510044999999999 1.151784164355469 1.2122954999999997 1.183455164355469 1.1735864999999999 C 1.2450376643554688 1.0996875 1.3629241643554688 0.9518894999999998 1.486089164355469 0.7917749999999999 C 1.528317164355469 0.9694844999999999 1.565266664355469 1.122561 1.575823664355469 1.1507129999999999 C 1.596937664355469 1.2105359999999998 1.7341786643554689 1.2510044999999999 1.765849664355469 1.2510044999999999 C 1.795761164355469 1.2510044999999999 1.867900664355469 1.154232 1.867900664355469 1.1348774999999998 C 1.867900664355469 1.1155229999999998 1.790482664355469 1.0961684999999999 1.772887664355469 1.0574594999999998 C 1.7535331643554688 1.0187505 1.700748164355469 0.8005724999999999 1.647963164355469 0.5823944999999998 C 1.783444664355469 0.4099634999999998 1.903090664355469 0.2516084999999998 1.9523566643554688 0.1900259999999998 C 1.984027664355469 0.15131699999999992 2.049129164355469 0.11260799999999982 2.049129164355469 0.09677249999999993 C 2.049129164355469 0.07389899999999994 1.975230164355469 -2.220446049250313e-16 1.9523566643554688 -2.220446049250313e-16 C 1.931242664355469 -2.220446049250313e-16 1.857343664355469 0.043987499999999846 1.8256726643554688 0.08621549999999978 C 1.785204164355469 0.13724099999999972 1.700748164355469 0.24984899999999988 1.602216164355469 0.3835709999999998 C 1.5723046643554688 0.2586464999999998 1.549431164355469 0.15483599999999975 1.540633664355469 0.11260799999999982 C 1.530076664355469 0.07037999999999989 1.419228164355469 0.001759499999999914 1.3752406643554689 0.001759499999999914 C 1.301341664355469 0.001759499999999914 1.109556164355469 0.12140549999999983 1.0075051643554689 0.1970639999999999 C 0.968796164355469 0.22521599999999986 0.917770664355469 0.3694949999999998 0.917770664355469 0.41172299999999984 C 0.917770664355469 0.4557104999999998 1.058530664355469 0.6175844999999999 1.0937206643554689 0.6175844999999999 C 1.121872664355469 0.6175844999999999 1.181695664355469 0.5700779999999999 1.181695664355469 0.5454449999999998 C 1.181695664355469 0.5208119999999998 1.120113164355469 0.41876099999999983 1.120113164355469 0.3765329999999998 M 3.4665574495605473 0.7125974999999998 C 3.489430949560547 0.7125974999999998 3.5175829495605475 0.6439769999999998 3.5175829495605475 0.6263819999999998 C 3.5175829495605475 0.6158249999999998 3.5087854495605475 0.6105464999999999 3.501747449560547 0.6105464999999999 L 3.4401649495605473 0.6105464999999999 C 3.475354949560547 0.4803434999999998 3.515823449560547 0.34838099999999983 3.545734949560547 0.24984899999999988 C 3.559810949560547 0.20234249999999987 3.637228949560547 0.11612699999999987 3.637228949560547 0.10029149999999976 C 3.637228949560547 0.07389899999999994 3.5474944495605474 0.001759499999999914 3.5175829495605475 0.001759499999999914 C 3.507025949560547 0.001759499999999914 3.4647979495605474 0.03518999999999983 3.4260889495605475 0.07389899999999994 C 3.4049749495605472 0.054544499999999774 3.334594949560547 0.001759499999999914 3.3082024495605475 0.001759499999999914 C 3.227265449560547 0.001759499999999914 3.0389989495605474 0.09853199999999984 2.9967709495605472 0.16715249999999982 C 2.961580949560547 0.22521599999999986 2.864808449560547 0.41876099999999983 2.7680359495605473 0.6105464999999999 L 2.5516174495605473 0.6105464999999999 C 2.528743949560547 0.6105464999999999 2.498832449560547 0.6791669999999999 2.498832449560547 0.6967619999999999 C 2.498832449560547 0.7073189999999998 2.507629949560547 0.7125974999999998 2.516427449560547 0.7125974999999998 L 2.718769949560547 0.7125974999999998 C 2.646630449560547 0.8568764999999998 2.579769449560547 0.9870794999999999 2.5480984495605474 1.0416239999999999 C 2.5217059495605474 1.0873709999999999 2.481237449560547 1.1190419999999999 2.4566044495605475 1.1190419999999999 C 2.4161359495605472 1.1190419999999999 2.289451949560547 0.9360539999999998 2.2489834495605474 0.8586359999999998 C 2.2437049495605472 0.8480789999999998 2.234907449560547 0.8410409999999998 2.2208314495605475 0.8410409999999998 C 2.182122449560547 0.8410409999999998 2.0800714495605472 0.9254969999999998 2.0800714495605472 0.9536489999999997 C 2.0800714495605472 1.0064339999999998 2.3404774495605474 1.2510044999999999 2.4407689495605474 1.2510044999999999 C 2.535781949560547 1.2510044999999999 2.711731949560547 1.1419154999999999 2.7486814495605474 1.0820925 C 2.7838714495605474 1.0240289999999999 2.856010949560547 0.8744714999999998 2.9316694495605473 0.7125974999999998 L 3.197353949560547 0.7125974999999998 C 3.153366449560547 0.8779904999999999 3.1199359495605474 1.0205099999999998 3.1199359495605474 1.0680164999999997 C 3.1199359495605474 1.1278394999999999 3.216708449560547 1.2510044999999999 3.2378224495605474 1.2510044999999999 C 3.2677339495605473 1.2510044999999999 3.3908989495605475 1.1718269999999997 3.3908989495605475 1.1454345 C 3.3908989495605475 1.1295989999999998 3.3398734495605473 1.0785734999999999 3.3398734495605473 1.0556999999999999 C 3.3398734495605473 1.0011554999999999 3.371544449560547 0.8656739999999998 3.4120129495605473 0.7125974999999998 M 3.362746949560547 0.15483599999999975 C 3.3222784495605473 0.27800099999999983 3.271252949560547 0.4469129999999998 3.225505949560547 0.6105464999999999 L 2.979175949560547 0.6105464999999999 C 3.070669949560547 0.41348249999999986 3.1604044495605472 0.2199374999999999 3.192075449560547 0.16715249999999982 C 3.2043919495605473 0.14779799999999987 3.227265449560547 0.13196249999999976 3.248379449560547 0.13196249999999976 C 3.2677339495605473 0.13196249999999976 3.3469114495605474 0.15131699999999992 3.362746949560547 0.15483599999999975 M 3.852909284326172 0.39764699999999986 C 3.852909284326172 0.38181149999999986 3.872263784326172 0.3325454999999998 3.881061284326172 0.3237479999999998 C 3.977833784326172 0.22697549999999977 4.1045177843261715 0.11788649999999978 4.134429284326172 0.11788649999999978 C 4.148505284326172 0.11788649999999978 4.166100284326172 0.13724099999999972 4.166100284326172 0.1583549999999998 C 4.166100284326172 0.24808949999999985 3.921529784326172 1.0416239999999999 3.921529784326172 1.1735864999999999 C 3.921529784326172 1.2228525 4.058770784326172 1.2510044999999999 4.090441784326172 1.2510044999999999 C 4.115074784326172 1.2510044999999999 4.118593784326172 1.2369284999999999 4.122112784326172 1.217574 C 4.180176284326172 0.9131804999999998 4.266391784326172 0.5612804999999998 4.343809784326172 0.34134299999999984 C 4.364923784326172 0.2815199999999999 4.518000284326172 0.1495574999999998 4.565506784326172 0.1495574999999998 C 4.609494284326172 0.1495574999999998 4.646443784326172 0.1970639999999999 4.646443784326172 0.22697549999999977 C 4.646443784326172 0.2850389999999998 4.419468284326172 1.0521809999999998 4.419468284326172 1.1753459999999998 C 4.419468284326172 1.2140549999999999 4.530316784326172 1.2510044999999999 4.577823284326172 1.2510044999999999 C 4.602456284326172 1.2510044999999999 4.605975284326172 1.2369284999999999 4.609494284326172 1.217574 C 4.672836284326172 0.9079019999999998 4.757292284326172 0.5348879999999998 4.834710284326172 0.3237479999999998 C 4.864621784326172 0.23929199999999984 5.005381784326172 0.15307649999999984 5.047609784326172 0.15307649999999984 C 5.089837784326172 0.15307649999999984 5.119749284326172 0.1970639999999999 5.119749284326172 0.22697549999999977 C 5.119749284326172 0.2850389999999998 4.908609284326172 0.9606869999999998 4.908609284326172 1.0838519999999998 C 4.908609284326172 1.1436749999999998 5.010660284326172 1.2510044999999999 5.0300147843261716 1.2510044999999999 C 5.059926284326172 1.2510044999999999 5.170774784326172 1.1718269999999997 5.170774784326172 1.1454345 C 5.170774784326172 1.1295989999999998 5.119749284326172 1.0785734999999999 5.119749284326172 1.0556999999999999 C 5.119749284326172 0.9606869999999998 5.337927284326172 0.25512749999999984 5.337927284326172 0.17243099999999978 C 5.337927284326172 0.09149399999999974 5.179572284326172 0.001759499999999914 5.095116284326172 0.001759499999999914 C 5.0300147843261716 0.001759499999999914 4.919166284326172 0.09853199999999984 4.864621784326172 0.15131699999999992 C 4.834710284326172 0.08621549999999978 4.686912284326172 0.001759499999999914 4.609494284326172 0.001759499999999914 C 4.544392784326172 0.001759499999999914 4.431784784326172 0.1038104999999998 4.378999784326172 0.15307649999999984 C 4.361404784326172 0.08445599999999986 4.225923284326172 0.001759499999999914 4.153783784326172 0.001759499999999914 C 4.076365784326172 0.001759499999999914 3.884580284326172 0.1337219999999999 3.775491284326172 0.21113999999999988 C 3.736782284326172 0.23929199999999984 3.650566784326172 0.3853304999999998 3.650566784326172 0.4310774999999998 C 3.650566784326172 0.47506499999999985 3.766693784326172 0.6474959999999998 3.801883784326172 0.6474959999999998 C 3.830035784326172 0.6474959999999998 3.896896784326172 0.6070274999999998 3.896896784326172 0.5823944999999998 C 3.896896784326172 0.5577614999999998 3.852909284326172 0.4381154999999999 3.852909284326172 0.39764699999999986 M 6.191557644287109 0.021113999999999855 C 6.05783564428711 0.05982299999999974 5.85725264428711 0.25688699999999987 5.85725264428711 0.3536594999999998 C 5.85725264428711 0.4152419999999998 5.98569614428711 0.5753564999999998 6.020886144287109 0.5753564999999998 C 6.04903814428711 0.5753564999999998 6.11589914428711 0.5313689999999999 6.11589914428711 0.5067359999999999 C 6.11589914428711 0.48210299999999984 6.056076144287109 0.3694949999999998 6.056076144287109 0.3290264999999998 C 6.056076144287109 0.2832794999999998 6.11589914428711 0.1900259999999998 6.16692464428711 0.17594999999999983 C 6.21267164428711 0.16363349999999977 6.32527964428711 0.1565954999999999 6.42205214428711 0.1565954999999999 C 6.5065081442871096 0.1565954999999999 6.58216664428711 0.16891199999999973 6.61735664428711 0.17770949999999974 C 6.663103644287109 0.1900259999999998 6.763395144287109 0.27272249999999987 6.763395144287109 0.3307859999999998 C 6.763395144287109 0.4803434999999998 6.55753364428711 0.6404579999999999 6.46955864428711 0.6615719999999998 C 6.4449256442871095 0.6686099999999998 6.40621664428711 0.6756479999999998 6.36046964428711 0.6826859999999998 C 6.39214064428711 0.5647994999999998 6.42205214428711 0.4557104999999998 6.436128144287109 0.41348249999999986 C 6.45196364428711 0.36597599999999986 6.49595114428711 0.2991149999999998 6.49595114428711 0.2850389999999998 C 6.49595114428711 0.26216549999999983 6.37630514428711 0.19178549999999972 6.34111514428711 0.19178549999999972 C 6.32176064428711 0.19178549999999972 6.25138064428711 0.29559599999999986 6.2355451442871095 0.3554189999999998 L 6.13877264428711 0.7178759999999998 L 6.03672164428711 0.7354709999999998 C 6.02440514428711 0.7389899999999998 6.01912664428711 0.7442684999999998 6.01912664428711 0.7583444999999998 C 6.01912664428711 0.7776989999999998 6.06663314428711 0.8621549999999998 6.091266144287109 0.8621549999999998 L 6.1000636442871095 0.8621549999999998 L 6.05431664428711 1.0205099999999998 C 6.03672164428711 1.0732949999999999 5.95050614428711 1.1419154999999999 5.95050614428711 1.1559914999999998 C 5.95050614428711 1.1841434999999998 6.056076144287109 1.2510044999999999 6.09302564428711 1.2510044999999999 C 6.13173464428711 1.2510044999999999 6.22146914428711 1.1489534999999997 6.24962114428711 1.0820925 C 6.25841864428711 1.0609784999999998 6.28833014428711 0.9536489999999997 6.32176064428711 0.8304839999999998 C 6.40445714428711 0.8164079999999998 6.48539414428711 0.8023319999999998 6.52938164428711 0.7935344999999998 C 6.64023014428711 0.7724204999999998 6.95694014428711 0.5419259999999998 6.95694014428711 0.3835709999999998 C 6.95694014428711 0.21113999999999988 6.75107864428711 0.05278499999999986 6.64726814428711 0.021113999999999855 C 6.59448314428711 0.005278499999999742 6.4977106442871095 0.001759499999999914 6.42029264428711 0.001759499999999914 C 6.33407714428711 0.001759499999999914 6.2355451442871095 0.008797499999999792 6.191557644287109 0.021113999999999855 M 7.952096161669923 0.7125974999999998 C 7.974969661669922 0.7125974999999998 8.003121661669923 0.6439769999999998 8.003121661669923 0.6263819999999998 C 8.003121661669923 0.6158249999999998 7.9943241616699225 0.6105464999999999 7.987286161669922 0.6105464999999999 L 7.925703661669923 0.6105464999999999 C 7.960893661669922 0.4803434999999998 8.001362161669922 0.34838099999999983 8.031273661669923 0.24984899999999988 C 8.045349661669922 0.20234249999999987 8.122767661669922 0.11612699999999987 8.122767661669922 0.10029149999999976 C 8.122767661669922 0.07389899999999994 8.033033161669922 0.001759499999999914 8.003121661669923 0.001759499999999914 C 7.992564661669922 0.001759499999999914 7.9503366616699225 0.03518999999999983 7.911627661669923 0.07389899999999994 C 7.890513661669923 0.054544499999999774 7.820133661669923 0.001759499999999914 7.793741161669923 0.001759499999999914 C 7.712804161669922 0.001759499999999914 7.524537661669922 0.09853199999999984 7.482309661669922 0.16715249999999982 C 7.447119661669922 0.22521599999999986 7.350347161669922 0.41876099999999983 7.253574661669922 0.6105464999999999 L 7.037156161669922 0.6105464999999999 C 7.014282661669922 0.6105464999999999 6.984371161669922 0.6791669999999999 6.984371161669922 0.6967619999999999 C 6.984371161669922 0.7073189999999998 6.993168661669922 0.7125974999999998 7.001966161669922 0.7125974999999998 L 7.204308661669923 0.7125974999999998 C 7.132169161669922 0.8568764999999998 7.065308161669922 0.9870794999999999 7.0336371616699225 1.0416239999999999 C 7.007244661669922 1.0873709999999999 6.966776161669922 1.1190419999999999 6.9421431616699225 1.1190419999999999 C 6.901674661669922 1.1190419999999999 6.774990661669922 0.9360539999999998 6.734522161669922 0.8586359999999998 C 6.729243661669923 0.8480789999999998 6.720446161669923 0.8410409999999998 6.7063701616699225 0.8410409999999998 C 6.667661161669923 0.8410409999999998 6.565610161669922 0.9254969999999998 6.565610161669922 0.9536489999999997 C 6.565610161669922 1.0064339999999998 6.826016161669922 1.2510044999999999 6.926307661669922 1.2510044999999999 C 7.021320661669923 1.2510044999999999 7.197270661669922 1.1419154999999999 7.234220161669922 1.0820925 C 7.2694101616699225 1.0240289999999999 7.341549661669922 0.8744714999999998 7.417208161669922 0.7125974999999998 L 7.682892661669922 0.7125974999999998 C 7.638905161669922 0.8779904999999999 7.6054746616699225 1.0205099999999998 7.6054746616699225 1.0680164999999997 C 7.6054746616699225 1.1278394999999999 7.702247161669922 1.2510044999999999 7.7233611616699225 1.2510044999999999 C 7.753272661669922 1.2510044999999999 7.8764376616699225 1.1718269999999997 7.8764376616699225 1.1454345 C 7.8764376616699225 1.1295989999999998 7.825412161669922 1.0785734999999999 7.825412161669922 1.0556999999999999 C 7.825412161669922 1.0011554999999999 7.857083161669922 0.8656739999999998 7.897551661669922 0.7125974999999998 M 7.848285661669922 0.15483599999999975 C 7.807817161669922 0.27800099999999983 7.756791661669922 0.4469129999999998 7.711044661669922 0.6105464999999999 L 7.464714661669922 0.6105464999999999 C 7.556208661669922 0.41348249999999986 7.645943161669923 0.2199374999999999 7.677614161669922 0.16715249999999982 C 7.689930661669923 0.14779799999999987 7.712804161669922 0.13196249999999976 7.733918161669922 0.13196249999999976 C 7.753272661669922 0.13196249999999976 7.8324501616699225 0.15131699999999992 7.848285661669922 0.15483599999999975 M 8.52496530600586 0.021113999999999855 C 8.39124330600586 0.05982299999999974 8.19066030600586 0.25688699999999987 8.19066030600586 0.3536594999999998 C 8.19066030600586 0.4152419999999998 8.31910380600586 0.5753564999999998 8.35429380600586 0.5753564999999998 C 8.38244580600586 0.5753564999999998 8.44930680600586 0.5313689999999999 8.44930680600586 0.5067359999999999 C 8.44930680600586 0.48210299999999984 8.38948380600586 0.3694949999999998 8.38948380600586 0.3290264999999998 C 8.38948380600586 0.2832794999999998 8.44930680600586 0.1900259999999998 8.50033230600586 0.17594999999999983 C 8.54607930600586 0.16363349999999977 8.65868730600586 0.1565954999999999 8.75545980600586 0.1565954999999999 C 8.83991580600586 0.1565954999999999 8.91557430600586 0.16891199999999973 8.95076430600586 0.17770949999999974 C 8.99651130600586 0.1900259999999998 9.09680280600586 0.27272249999999987 9.09680280600586 0.3307859999999998 C 9.09680280600586 0.4803434999999998 8.89094130600586 0.6404579999999999 8.80296630600586 0.6615719999999998 C 8.77833330600586 0.6686099999999998 8.73962430600586 0.6756479999999998 8.69387730600586 0.6826859999999998 C 8.72554830600586 0.5647994999999998 8.75545980600586 0.4557104999999998 8.76953580600586 0.41348249999999986 C 8.78537130600586 0.36597599999999986 8.82935880600586 0.2991149999999998 8.82935880600586 0.2850389999999998 C 8.82935880600586 0.26216549999999983 8.70971280600586 0.19178549999999972 8.67452280600586 0.19178549999999972 C 8.65516830600586 0.19178549999999972 8.58478830600586 0.29559599999999986 8.56895280600586 0.3554189999999998 L 8.47218030600586 0.7178759999999998 L 8.37012930600586 0.7354709999999998 C 8.35781280600586 0.7389899999999998 8.35253430600586 0.7442684999999998 8.35253430600586 0.7583444999999998 C 8.35253430600586 0.7776989999999998 8.40004080600586 0.8621549999999998 8.42467380600586 0.8621549999999998 L 8.43347130600586 0.8621549999999998 L 8.38772430600586 1.0205099999999998 C 8.37012930600586 1.0732949999999999 8.28391380600586 1.1419154999999999 8.28391380600586 1.1559914999999998 C 8.28391380600586 1.1841434999999998 8.38948380600586 1.2510044999999999 8.42643330600586 1.2510044999999999 C 8.46514230600586 1.2510044999999999 8.55487680600586 1.1489534999999997 8.58302880600586 1.0820925 C 8.59182630600586 1.0609784999999998 8.62173780600586 0.9536489999999997 8.65516830600586 0.8304839999999998 C 8.73786480600586 0.8164079999999998 8.81880180600586 0.8023319999999998 8.86278930600586 0.7935344999999998 C 8.97363780600586 0.7724204999999998 9.29034780600586 0.5419259999999998 9.29034780600586 0.3835709999999998 C 9.29034780600586 0.21113999999999988 9.08448630600586 0.05278499999999986 8.98067580600586 0.021113999999999855 C 8.92789080600586 0.005278499999999742 8.83111830600586 0.001759499999999914 8.753700306005861 0.001759499999999914 C 8.66748480600586 0.001759499999999914 8.56895280600586 0.008797499999999792 8.52496530600586 0.021113999999999855 M 9.652090696435549 1.1260799999999997 C 9.578191696435548 1.1260799999999997 9.507811696435548 1.0486619999999998 9.507811696435548 0.9923579999999999 C 9.507811696435548 0.8797499999999998 9.680242696435549 0.7354709999999998 9.835078696435549 0.6316604999999998 C 9.859711696435548 0.6158249999999998 9.875547196435548 0.5999894999999998 9.875547196435548 0.5806349999999998 C 9.875547196435548 0.5436854999999998 9.808686196435549 0.4944194999999998 9.752382196435548 0.4944194999999998 C 9.745344196435548 0.4944194999999998 9.740065696435549 0.4944194999999998 9.733027696435549 0.4961789999999998 C 9.720711196435548 0.4961789999999998 9.660888196435549 0.4328369999999998 9.660888196435549 0.3782924999999998 C 9.660888196435549 0.2692034999999998 9.836838196435549 0.11964599999999992 9.889623196435549 0.11964599999999992 C 9.919534696435548 0.11964599999999992 9.960003196435549 0.15131699999999992 9.960003196435549 0.17594999999999983 C 9.960003196435549 0.20234249999999987 9.933610696435549 0.24984899999999988 9.905458696435549 0.3079124999999998 C 9.90018019643555 0.31846949999999985 9.898420696435549 0.32550749999999984 9.898420696435549 0.33430499999999985 C 9.898420696435549 0.35717849999999984 9.970560196435548 0.4082039999999998 9.998712196435548 0.4082039999999998 C 10.007509696435548 0.4082039999999998 10.01278819643555 0.40468499999999985 10.025104696435548 0.3906089999999999 C 10.072611196435549 0.3307859999999998 10.127155696435548 0.23401349999999987 10.127155696435548 0.19530449999999977 C 10.127155696435548 0.11612699999999987 9.958243696435549 0.001759499999999914 9.831559696435548 0.001759499999999914 C 9.708394696435548 0.001759499999999914 9.453267196435549 0.2128994999999998 9.453267196435549 0.3448619999999998 C 9.453267196435549 0.4398749999999998 9.579951196435548 0.5296094999999998 9.62041969643555 0.5542424999999999 C 9.484938196435548 0.6439769999999998 9.301950196435548 0.7952939999999998 9.301950196435548 0.9483704999999998 C 9.301950196435548 1.0662569999999998 9.507811696435548 1.2510044999999999 9.696078196435549 1.2510044999999999 C 9.748863196435549 1.2510044999999999 9.842116696435548 1.2351689999999997 9.875547196435548 1.2034979999999997 C 9.931851196435549 1.1507129999999999 9.96880069643555 1.0820925 10.005750196435548 1.0205099999999998 C 10.016307196435548 1.0029149999999998 10.023345196435548 0.9870794999999999 10.023345196435548 0.9730034999999998 C 10.023345196435548 0.9518894999999998 9.954724696435548 0.8991044999999998 9.933610696435549 0.8991044999999998 C 9.916015696435549 0.8991044999999998 9.907218196435549 0.9096614999999999 9.894901696435548 0.9237374999999999 C 9.81220519643555 1.027548 9.729508696435548 1.1260799999999997 9.652090696435549 1.1260799999999997 M 10.671929543408204 1.0732949999999999 C 10.682486543408205 1.0486619999999998 10.714157543408204 0.9290159999999998 10.751107043408204 0.7882559999999998 L 10.860196043408205 0.7671419999999998 C 10.898905043408204 0.8181674999999998 10.912981043408205 1.0310669999999997 10.956968543408205 1.1507129999999999 C 10.978082543408204 1.2105359999999998 11.097728543408204 1.2510044999999999 11.129399543408205 1.2510044999999999 C 11.159311043408204 1.2510044999999999 11.231450543408204 1.1753459999999998 11.231450543408204 1.1559914999999998 C 11.231450543408204 1.136637 11.175146543408205 1.1172824999999997 11.154032543408205 1.0785734999999999 C 11.090690543408204 0.9624464999999998 11.067817043408205 0.8128889999999998 11.011513043408204 0.7266734999999999 C 11.145235043408205 0.6615719999999998 11.375729543408205 0.46802699999999986 11.375729543408205 0.34134299999999984 C 11.375729543408205 0.17419049999999991 11.173387043408205 0.040468499999999796 11.062538543408206 0.01583549999999989 C 11.007994043408205 0.003518999999999828 10.900664543408205 0.001759499999999914 10.821487043408204 0.001759499999999914 C 10.737031043408205 0.001759499999999914 10.633220543408205 0.008797499999999792 10.589233043408205 0.021113999999999855 C 10.455511043408205 0.05982299999999974 10.237333043408205 0.25688699999999987 10.237333043408205 0.3536594999999998 C 10.237333043408205 0.4152419999999998 10.365776543408204 0.5753564999999998 10.400966543408204 0.5753564999999998 C 10.429118543408205 0.5753564999999998 10.495979543408204 0.5313689999999999 10.495979543408204 0.5067359999999999 C 10.495979543408204 0.48210299999999984 10.436156543408204 0.3694949999999998 10.436156543408204 0.3290264999999998 C 10.436156543408204 0.2832794999999998 10.513574543408204 0.19178549999999972 10.564600043408205 0.17770949999999974 C 10.610347043408204 0.16715249999999982 10.728233543408205 0.1565954999999999 10.823246543408205 0.1565954999999999 C 10.909462043408205 0.1565954999999999 11.006234543408205 0.16363349999999977 11.055500543408204 0.17594999999999983 C 11.087171543408205 0.18474749999999984 11.169868043408204 0.22697549999999977 11.169868043408204 0.31143149999999986 C 11.169868043408204 0.42931799999999987 11.007994043408205 0.5911919999999998 10.923538043408204 0.6123059999999998 C 10.893626543408205 0.6211034999999998 10.789816043408205 0.6422174999999998 10.789816043408205 0.6422174999999998 C 10.817968043408204 0.5401664999999998 10.842601043408205 0.45043199999999983 10.854917543408204 0.41348249999999986 C 10.870753043408204 0.36597599999999986 10.914740543408204 0.2991149999999998 10.914740543408204 0.2850389999999998 C 10.914740543408204 0.26216549999999983 10.795094543408204 0.19178549999999972 10.759904543408204 0.19178549999999972 C 10.740550043408204 0.19178549999999972 10.670170043408204 0.29559599999999986 10.654334543408204 0.3554189999999998 C 10.642018043408205 0.40468499999999985 10.605068543408205 0.5436854999999998 10.566359543408204 0.6826859999999998 L 10.481903543408205 0.6967619999999999 C 10.462549043408204 0.7002809999999998 10.455511043408205 0.7090784999999998 10.455511043408205 0.7213949999999998 C 10.455511043408205 0.7425089999999999 10.503017543408205 0.8234459999999999 10.529410043408205 0.8234459999999999 C 10.503017543408205 0.9219779999999999 10.480144043408204 1.0011554999999999 10.473106043408205 1.0205099999999998 C 10.460789543408204 1.0574594999999998 10.381612043408204 1.1190419999999999 10.381612043408204 1.1419154999999999 C 10.381612043408204 1.1647889999999999 10.495979543408204 1.2510044999999999 10.513574543408204 1.2510044999999999 C 10.532929043408204 1.2510044999999999 10.643777543408204 1.1401559999999997 10.671929543408204 1.0732949999999999" fill="#000000" fill-rule="nonzero"></path></g><g></g><g clip-path="url(#SvgjsClipPath1001)"><g clip-path="url(#a93fdadf4-3586-43d9-87b2-665c79f700816ba77027-de5e-457f-bdd4-1f8975d150d1)"><path d=" M 11.910462494173455 -4.510676570827645 C 11.939238781289909 -4.523233496114823 11.966445452745468 -4.535790421402005 11.991559303319828 -4.5504401675703825 C 12.051774850369085 -4.584073202775656 12.093235852133716 -4.64346849832685 12.104048425684155 -4.711587375422532 C 12.107187657005952 -4.727806737251804 12.109280477887147 -4.746642125182575 12.110850093548045 -4.766000718333647 C 11.944755318109127 -4.757037260901704 11.779214559751964 -4.739749776642885 11.6148515447044 -4.714203401524024 L 11.789602088284344 -4.440567071307552 C 11.828319274586484 -4.469343358424005 11.86965248699012 -4.492887593337471 11.910462494173455 -4.510676570827645" fill="#0094ff" transform="matrix(1,0,0,1,0,0)" fill-rule="nonzero"></path></g><g clip-path="url(#a93fdadf4-3586-43d9-87b2-665c79f700816ba77027-de5e-457f-bdd4-1f8975d150d1)"><path d=" M 9.279786646509152 -3.5066457530735065 L 9.901877653444885 -2.0584137032853604 C 9.909725731749372 -2.062076139827454 9.918097015274157 -2.0652153711492467 9.925945093578648 -2.0694010129116442 C 10.098602816277378 -2.1525906429392094 10.268121307654312 -2.241535530390074 10.434500567709453 -2.334666059603329 C 10.479496216655185 -2.3597799101776893 10.523445455160314 -2.3859401711926473 10.567917898885746 -2.4115772269873084 C 10.718601002331912 -2.498429293556974 10.866668079676579 -2.588420591448436 11.012119130919753 -2.6831207363225857 L 11.070194910372965 -2.720791512184128 C 11.430683307159104 -2.9593730926405577 11.774952342115967 -3.220975702790149 12.100909194362359 -3.5040297269720106 L 11.356388165876616 -4.671300573459494 C 10.331952344530812 -4.451031175713535 9.669051330411744 -3.929918776295544 9.279786646509152 -3.5066457530735065" fill="#0094ff" transform="matrix(1,0,0,1,0,0)" fill-rule="nonzero"></path></g><g clip-path="url(#a93fdadf4-3586-43d9-87b2-665c79f700816ba77027-de5e-457f-bdd4-1f8975d150d1)"><path d=" M 8.872732985116386 -2.9279807794226045 C 8.900462861792242 -2.9190862906775195 8.943888895077073 -2.914377443694825 9.007719931953574 -2.9190862906775195 C 9.071027763609777 -2.9237951376602105 9.153170983196748 -2.9426305255909817 9.246301512410003 -2.9734996335886343 L 9.105036102929223 -3.3025957171568194 C 9.012347419780024 -3.1869658942067467 8.928734389591934 -3.064345111441366 8.854944007626212 -2.935828857727092 C 8.86053978194333 -2.932513381448512 8.866511803586054 -2.929878666017899 8.872732985116386 -2.9279807794226045" fill="#0094ff" transform="matrix(1,0,0,1,0,0)" fill-rule="nonzero"></path></g><g clip-path="url(#a93fdadf4-3586-43d9-87b2-665c79f700816ba77027-de5e-457f-bdd4-1f8975d150d1)"><path d=" M 8.243840310316763 -14.141838266095048 C 8.759720657531759 -14.175846605414495 8.95173697338156 -13.313081197141138 9.195027400820681 -12.222721518037636 C 9.309609344066203 -11.709457196924134 9.428376929074119 -11.17892710354076 9.58795452126537 -10.712228047033888 C 9.763228270065596 -10.201579752021884 9.951582149373305 -9.827488019507964 10.117961409428446 -9.497868730719478 C 10.408863511914792 -8.919726962288879 10.639073808846433 -8.462968804967689 10.639073808846433 -7.632642120352882 C 10.639073808846433 -7.473064528161631 10.669419711623785 -7.309301294207986 10.720170617992807 -7.146061265474639 C 10.7264490806364 -7.147630881135537 10.731681132839391 -7.151293317677631 10.738482800703277 -7.15233972811823 C 12.161600999917063 -7.349588096171024 12.85798714813528 -8.153231314550572 13.035353717816701 -8.390243279346103 C 12.823455603595534 -8.667018840884374 11.999407381624316 -9.745344799920993 10.818533199409053 -11.291939431125385 C 9.55551579760682 -12.94631433771141 9.332630373759368 -16.000786413818055 9.295482803118126 -16.809138479180298 C 8.848142339762322 -16.578928182248653 7.613378019856245 -16.007064876461648 6.373381647747174 -15.986659872869977 C 5.099376936318657 -15.966254869278309 3.5041242196264415 -15.302307444718641 1.9967699799444887 -14.164336090567913 C 0.9132119687048759 -13.346566331240286 -0.19075104612640637 -13.070837180142616 -0.5575179055561343 -12.997588449300729 C -0.44345916753091164 -12.466535150697057 0.10172067202083923 -10.263841173237486 1.5347797704203083 -8.768520653622412 C 2.9887670776317448 -7.2512255147547755 3.4146561269552818 -5.298623632598213 3.511449092710632 -4.728329942472104 C 4.855563303659237 -5.312750173546293 5.9961506839114636 -5.5042432841757964 6.584233351527748 -5.5670279106116975 C 6.038530306755697 -5.8009006440854325 5.415916094599665 -6.154064167787384 4.851900867117144 -6.691919134254947 C 3.913270701900408 -7.585553650525956 3.2184541693430884 -8.111374896926637 2.8877884701140024 -8.345770835620671 C 2.706750100790151 -8.473472597067522 2.6630125916696716 -8.723501459365878 2.7899490939180547 -8.905077216120501 C 2.925459245975544 -9.0976167371906 3.2357199416129614 -9.375961914389768 3.792410296011295 -9.082966991022223 C 4.09116047680213 -8.926528630152767 4.431767075216897 -8.714630515931598 4.73208687166863 -8.52732304706449 C 5.017756921951988 -8.349433272162766 5.3588867255870545 -8.137011952721297 5.537299705709079 -8.059577580117017 C 5.373013266535133 -8.46820085717068 4.549488249784216 -9.743775184260095 3.7416593896422734 -10.76140933774201 C 2.8705226978441303 -11.85961709515 2.9908598985129418 -12.145810350653655 3.188631471786035 -12.344628334367346 C 3.2690429037793 -12.434704708943135 3.386875090050826 -12.482108462040875 3.507263450948238 -12.472813613340646 C 3.8562413328877954 -12.445606941885089 4.347531034748731 -11.966350960091034 5.05385808215263 -10.964936168438394 C 5.4886416202212525 -10.348077213705654 5.761231539997129 -10.173326670125727 5.8533156587697865 -10.142457562128074 C 5.85017642744799 -10.20210295724218 5.8125056515864495 -10.345984392824457 5.660252932479387 -10.593983667246272 C 5.577063302451816 -10.730540229744358 5.463004564426593 -10.904244362883688 5.333772875012694 -11.101492730936481 C 4.39095706803356 -12.537691060657744 3.590976286196107 -13.86453949933648 4.14766664059444 -14.31344957835318 C 4.230856270622012 -14.380943051771776 4.3449150086472335 -14.454191782613663 4.492458880771603 -14.424369085056608 C 4.78963944590154 -14.364200484722202 5.097284115437463 -13.914767200485201 5.989349016047574 -12.23998729030751 C 6.32472356225935 -11.61004820506729 6.607254381220911 -11.222876342045891 6.751659022023486 -11.08370375344631 C 6.742764533278399 -11.156952484288194 6.71817388792434 -11.28252173716 6.6538196458275385 -11.492850235720272 C 6.565397963596976 -11.780613106884825 6.445060762928164 -12.100814701707925 6.317921894395462 -12.439851684461798 C 5.90092733381701 -13.549569956716372 5.506953802931723 -14.598073218195939 6.0788171087187335 -14.854966981362839 C 6.220082518199514 -14.918274813019039 6.357162285917901 -14.919844428679937 6.485870770111501 -14.859152623125231 C 6.881937121877985 -14.67341476991902 7.085987157794665 -13.936741819737769 7.283758731067757 -13.224659514910575 C 7.329277585233787 -13.059326665296034 7.3737500289592175 -12.899749073104783 7.41822247268465 -12.757960458403703 C 7.619133277279537 -12.114941242656004 8.003689114199439 -11.265779170110426 8.196228635269538 -11.015163869587116 C 8.199061638955392 -11.07148404682045 8.19836266235857 -11.127926407013902 8.194135814388343 -11.184159155743753 C 8.173207605576373 -11.544647552529893 8.093680412090897 -11.96321172876924 8.016769244706918 -12.36869577450111 C 7.878119861327632 -13.097520646377875 7.758829071099419 -13.727459731618094 7.971250390540889 -14.001619267054867 C 8.036963393269865 -14.086302177473154 8.136734595205933 -14.13762402415044 8.243840310316763 -14.141838266095048" fill="#0094ff" transform="matrix(1,0,0,1,0,0)" fill-rule="nonzero"></path></g><g clip-path="url(#a93fdadf4-3586-43d9-87b2-665c79f700816ba77027-de5e-457f-bdd4-1f8975d150d1)"><path d=" M 0.5971960156441689 -17.11625994349592 C 0.47790522541595415 -16.818032967925383 0.2398468501798252 -16.451789313715953 -0.23260746375033925 -16.186001061803964 C 0.13918423508840672 -15.969186723210232 0.42791868846583725 -15.634416802138695 0.5877783216787824 -15.234813971300046 C 0.7039298805852026 -15.536703383412675 0.9404186401604342 -15.914980757688987 1.4243834689371813 -16.187570677464862 C 0.9534987706679141 -16.453358929376847 0.7164868058723828 -16.81855617314568 0.5971960156441689 -17.11625994349592" fill="#0094ff" transform="matrix(1,0,0,1,0,0)" fill-rule="nonzero"></path></g><g clip-path="url(#a93fdadf4-3586-43d9-87b2-665c79f700816ba77027-de5e-457f-bdd4-1f8975d150d1)"><path d=" M 0.004404501045190301 -5.797761412763638 C 0.14587483328000772 -6.144331752374109 0.40056077312462524 -6.432766806622466 0.7269509102783651 -6.616054377311563 C 0.4074400255742354 -6.79537368307764 0.1564464039271254 -7.075625358861034 0.013298989790277105 -7.412895927827224 C -0.1301331006383526 -7.074446666692344 -0.3821328481977151 -6.793362945346001 -0.7029689567993085 -6.613961556430366 C -0.38619785986333355 -6.424259106184522 -0.1383487328823847 -6.138279344283429 0.004404501045190301 -5.797761412763638" fill="#0094ff" transform="matrix(1,0,0,1,0,0)" fill-rule="nonzero"></path></g><g clip-path="url(#a93fdadf4-3586-43d9-87b2-665c79f700816ba77027-de5e-457f-bdd4-1f8975d150d1)"><path d=" M 11.938192370849311 -5.000396657027679 C 11.467307672580045 -5.449306736044381 10.39735299706821 -6.584138858873313 10.39735299706821 -7.633165325573183 C 10.39735299706821 -8.405939435955078 10.17917642020345 -8.840199768803402 9.901877653444881 -9.389565250117546 C 9.732359162067944 -9.725986206769921 9.539819640997845 -10.107926017588328 9.359837045214928 -10.63374726398901 C 9.195550606040982 -11.113526451003361 9.075213405372168 -11.650858212250625 8.959585051686048 -12.170400996007716 C 8.776463224581335 -12.990786781436839 8.573459599105249 -13.92732412577238 8.25901326170544 -13.901163864757422 C 8.203030303133428 -13.897501428215328 8.177916452559064 -13.873957193301866 8.162220295950089 -13.854075394930497 C 8.016246039486617 -13.66572151562279 8.14233849757872 -13.000727680622525 8.253781209502446 -12.413691423446839 C 8.332261992547327 -12.00140570985108 8.4133588016937 -11.574470250086947 8.435333420946264 -11.19880890191213 C 8.448936756674044 -10.964412963218095 8.438995857488358 -10.743620360251839 8.27157018699262 -10.713274457474487 C 7.866086141260753 -10.631131237887514 7.193767433176297 -12.665353134410747 7.187488970532708 -12.686281343222715 C 7.142493321586977 -12.83068598402529 7.097497672641247 -12.992356397097739 7.05093240803462 -13.160305272813776 C 6.885076353199778 -13.758328839615745 6.678933496401899 -14.501803457660888 6.38279934171256 -14.640976046260471 C 6.318968304836061 -14.671321949037825 6.254090857518961 -14.669229128156626 6.17717969013498 -14.634697583616882 C 5.8130288568067465 -14.470934349663237 6.217989697318317 -13.392085185406316 6.543946549564709 -12.525134135370568 C 6.67265503375831 -12.182957921294898 6.79403864486772 -11.859093889929703 6.884553147979479 -11.564006145680962 C 7.033666635764747 -11.07742529080272 7.032620225324149 -10.863434355700353 6.880890711437385 -10.800649729264451 C 6.613532843864502 -10.686590991239228 6.131660835968952 -11.459888306841423 5.7764044913858035 -12.126974962722887 C 5.09885373109836 -13.398886853270206 4.664070193029738 -14.143407881755948 4.444324000504078 -14.188403530701677 C 4.41659412382822 -14.19363558290467 4.3794465531869795 -14.190496351582874 4.299396154481205 -14.126142109486075 C 3.8672286425140774 -13.777164227546518 4.994212687038522 -12.059481489304291 5.5357300900481805 -11.234386856892476 C 5.666531395122976 -11.034522462738188 5.781636543588797 -10.859248713937959 5.866395789277264 -10.720599330558676 C 6.183458152778571 -10.203672572903082 6.1133486532584795 -10.00537779440969 5.998766710012959 -9.930036242686606 C 5.674902678647764 -9.717614923245138 5.042870772526345 -10.562068148808024 4.856609714099837 -10.825763579838812 C 4.055059316601484 -11.962688523548945 3.6699802744612855 -12.218012671054945 3.4884280630174667 -12.232139212003023 C 3.445474672706257 -12.236919154379787 3.4028417737682455 -12.220761480353051 3.373846119771944 -12.18871317871819 C 3.2880404636428775 -12.102384317368827 3.120091587926839 -11.933912236432487 3.931059679390576 -10.912092441188179 C 4.602331977034432 -10.066069599964397 5.872151046700554 -8.241129791560837 5.80465757328196 -7.914126528873846 C 5.792380555511108 -7.871449521230739 5.765536938109956 -7.834423842056735 5.728792816338577 -7.809485484814008 C 5.580202533773609 -7.728911880887933 5.332726464572095 -7.869130879928116 4.604424797915629 -8.32274980592751 C 4.30776743800599 -8.507441248693121 3.9708232761333138 -8.717246542033095 3.680444378867267 -8.870022466360457 C 3.554875125995463 -8.935423118897855 3.4429092088514377 -8.968385047776703 3.342977011774292 -8.968385047776703 C 3.200141986632615 -8.968385047776703 3.0824208120652976 -8.901414779578408 2.9871974619708466 -8.766427832741218 C 2.9366894468203935 -8.693597371715661 2.9547181699104783 -8.593619907307016 3.027484263933885 -8.543019203673467 C 3.3633820153659606 -8.305484033657638 4.069185857549564 -7.771814708952467 5.018280127172285 -6.867192883055175 C 5.801518341960166 -6.121102238908538 6.708756193958954 -5.738639222869832 7.332416816555583 -5.549238933121526 C 7.775848690412844 -5.414450793164708 8.130094525267975 -5.07900246705189 8.288835959262492 -4.643570696783634 L 8.751349374006974 -3.2272541654337417 C 9.085154304557854 -3.7253455351585636 10.03791101072267 -4.843958296158224 11.938192370849311 -5.000396657027679" fill="#3361e1" transform="matrix(1,0,0,1,0,0)" fill-rule="nonzero"></path></g><g clip-path="url(#a93fdadf4-3586-43d9-87b2-665c79f700816ba77027-de5e-457f-bdd4-1f8975d150d1)"><path d=" M 11.744083234118314 -14.831422746449375 C 11.600587996121138 -14.49314626531961 11.348589563580912 -14.212248085585214 11.027815287528732 -14.033011580272818 C 11.344575742420162 -13.843060098967502 11.592403526170802 -13.55692165929683 11.735188745373229 -13.21628823138579 C 11.876659077608043 -13.56285857099626 12.13134501745266 -13.851293625244619 12.4577351546064 -14.034581195933715 C 12.13822426990227 -14.213900501699792 11.887230648255162 -14.494152177483187 11.744083234118314 -14.831422746449377" fill="#0094ff" transform="matrix(1,0,0,1,0,0)" fill-rule="nonzero"></path></g><g clip-path="url(#a93fdadf4-3586-43d9-87b2-665c79f700816ba77027-de5e-457f-bdd4-1f8975d150d1)"><path d=" M 11.91307852027495 -18.46874543796931 C 10.159407888453593 -19.91844408657029 7.954384973944008 -20.709957557435377 5.679088320410149 -20.70649416518893 C 3.417107585327786 -20.709574840172465 1.2242802208047827 -19.926910978600283 -0.5245559766772852 -18.492289672882777 C -1.0207278642388706 -18.086366500146244 -1.4761513243959032 -17.633045803175776 -1.88436634423487 -17.138757767968784 C -3.334064992835848 -15.385087136147426 -4.125578463700932 -13.180064221637842 -4.122115071454484 -10.904767568103985 C -4.122115071454484 -8.537263946250173 -3.2823706928742915 -6.365439076788254 -1.8843663442348682 -4.671300573459494 C -1.475017833614272 -4.175531556702552 -1.0181794932204213 -3.7209712747763284 -0.5203703349149054 -3.3141062320034145 C 1.2278333056996003 -1.8816776592206743 3.4189871212020586 -1.10037756043614 5.679088320410153 -1.1035641762393489 C 6.496334874517484 -1.1035641762393489 7.289513988491049 -1.2050659889773918 8.048684763145168 -1.393419868285097 L 8.159081064628296 -1.4206265397406526 C 8.260059672146038 -1.4473100059759147 8.359468664002886 -1.4766094983126692 8.45887765585973 -1.50590899064942 C 8.525847924058027 -1.5257907890207854 8.593341397476621 -1.5451493821718607 8.659788460454617 -1.5666007962041277 C 8.734606806957402 -1.590668236337887 8.808378743019585 -1.616305292132548 8.882673884302072 -1.6419423479272055 C 8.97214197697323 -1.6733346611451587 9.062133274864692 -1.7047269743631084 9.150554957095256 -1.7382121084622568 C 9.31148730212033 -1.7993857794720647 9.470771892996872 -1.8648093518474234 9.628241323228451 -1.9344140660744706 L 9.682131460919226 -1.9584815062082157 L 9.341001657284156 -2.7521838254020814 C 9.22076998081512 -2.706304838334283 9.093914424157667 -2.6801563391904075 8.96534030910934 -2.6747494527978013 C 8.878610467560346 -2.6709317987208436 8.7925376126312 -2.6914080778934633 8.716817829467228 -2.7338716426916108 C 8.661289602332484 -2.769793680412441 8.622904596535594 -2.8268984673615094 8.610607169746494 -2.891879619221964 C 8.609037554085596 -2.8955420557640537 8.605375117543502 -2.897111671424952 8.604328707102905 -2.9007741079670453 L 8.06071848321205 -4.565613118959053 C 7.927067034014152 -4.927582499886736 7.631568256721304 -5.206040718593888 7.262307317035494 -5.317982225749283 C 7.203708332361985 -5.335771203239455 7.140400500705781 -5.35722261727172 7.077092669049583 -5.378150826083688 C 7.0586927571727935 -5.3651229996209455 7.036844667992756 -5.357840303227599 7.014308042613679 -5.35722261727172 C 6.9986118860047055 -5.356699412051421 5.409637631956078 -5.321644662291375 3.465930238544604 -4.444229507849641 C 3.4309200608088544 -4.428034879817577 3.3902683359788606 -4.42960545115935 3.356612005660738 -4.4484529961374975 C 3.3229556753426177 -4.467300541115648 3.300374688873302 -4.501140288101485 3.2958885419473694 -4.539452857944095 C 3.2932725158458735 -4.562997092857554 2.9882438724114477 -6.903294043255814 1.3600292268403837 -8.602141393567267 C -0.3225987616417978 -10.358018112891335 -0.800285127774953 -12.96358010998128 -0.8196437209260243 -13.073976411464407 C -0.8251766168354351 -13.106066923714202 -0.8176405540153073 -13.139037198552264 -0.7987155121140557 -13.165537325016764 C -0.7794954221323769 -13.191933733014814 -0.7504511251337576 -13.209473470812682 -0.7181419081879796 -13.21419541050459 C -0.7050617776805037 -13.216288231385786 0.6050440939486581 -13.417199035980673 1.8513189287013176 -14.35739881685831 C 2.760649601581304 -15.043844065890841 4.556813122868406 -16.199604397531743 6.369196005984786 -16.228903889868498 C 7.826322544518017 -16.25244812478196 9.334199989420267 -17.103703018208734 9.348849735588647 -17.11207430173352 C 9.38599730622989 -17.133002510545488 9.431516160395919 -17.13352571576579 9.46866373103716 -17.11259750695382 C 9.505488119173418 -17.091360208962566 9.528660609394436 -17.052541336455555 9.529878741812166 -17.01004928377518 C 9.530401947032463 -16.97237850791364 9.625625297126916 -13.252912596806729 11.010549515258859 -11.439483303249753 C 12.388148860306615 -9.634425293217562 13.281260171357324 -8.467677651950378 13.281260171357324 -8.467677651950378 C 13.311242424364917 -8.427833784035794 13.31393639726344 -8.373747097380848 13.28806183922121 -8.33112108945229 C 13.259285552104757 -8.284032619625366 12.564992224767739 -7.175883963031692 10.802837042800082 -6.9189901998647905 C 11.220354808598831 -5.929085923058732 12.295541536313657 -5.000919862247976 12.310714487702334 -4.987839731740497 C 12.326457014074311 -4.973276091572956 12.338171401895718 -4.954893513760904 12.34472282702178 -4.934472799269983 L 12.348908468784174 -4.919299847881305 C 12.349954879224775 -4.914067795678314 12.352570905326267 -4.909358948695623 12.353094110546568 -4.9041268964926275 C 12.383963218544217 -4.456786433136827 12.149044074629884 -4.352668594297288 12.008825075589701 -4.289883967861385 C 11.978687062846081 -4.279238294576405 11.950430882810224 -4.263873996681905 11.925112240341832 -4.2443651136953555 C 11.923542624680938 -4.24174908759386 11.920403393359138 -4.241225882373563 11.918833777698243 -4.238609856272067 L 12.285077431907673 -3.664653729603856 C 12.405414632576484 -3.775050031086984 12.523135807143802 -3.888062358671611 12.638240955609621 -4.004213917578028 L 12.685852630656846 -4.053918413506452 C 12.782645596412195 -4.152804200142999 12.878392151726946 -4.253782807660741 12.970999475719903 -4.356854236059679 C 12.99925255761606 -4.388246549277632 13.025936023851319 -4.420685272936183 13.053665900527175 -4.452600791374429 C 13.132146683572053 -4.541545678825294 13.209581056176333 -4.631536976716756 13.284399402679117 -4.723621095489406 C 13.319454152439164 -4.767047128774241 13.35346249175861 -4.811519572499673 13.387994036298355 -4.855468811004805 C 13.452348278395153 -4.937612030591776 13.516702520491954 -5.019755250178751 13.578440736487256 -5.1039912906469205 C 13.618204333229997 -5.158404633558034 13.656398314311836 -5.213341181689449 13.695115500613976 -5.268277729820863 C 13.794755207549528 -5.406589616086203 13.889343183823353 -5.548471580496937 13.978692730016146 -5.693643573924119 C 14.02159555808067 -5.761137047342695 14.063975180924903 -5.829153725981589 14.105308393328539 -5.898216815061081 C 14.185952811458428 -6.033811820423823 14.26340844802563 -6.171278130367414 14.337611511141407 -6.310502528656892 C 14.384176775748003 -6.398401005667102 14.429172424693736 -6.486822687897664 14.473644868419164 -6.576290780568826 L 14.547940009701652 -6.730113115336785 C 14.667909276250498 -6.982890677825068 14.77649597849393 -7.240915028172006 14.873373656727754 -7.503410430939013 L 14.902149943844197 -7.582937624424458 C 14.949238413671125 -7.714262134719556 14.994757267837151 -7.846109850234949 15.036613685461088 -7.980050386631541 L 15.045508174206173 -8.009873084188595 C 15.328038993167734 -8.924959014491868 15.480814917495096 -9.897074313807755 15.480814917495096 -10.904767568103988 C 15.480814917495096 -13.259191059450323 14.649965027659988 -15.41898220884536 13.26661042518894 -17.10893507041173 C 12.860551883476667 -17.60498472315114 12.407243695505525 -18.060395616284886 11.913078520274937 -18.468745437969325 M -0.10756141609883585 -7.918835375856537 C -0.1053206899376411 -7.9841188900435185 -0.05202087948552858 -8.036034289834536 0.013298989790277105 -8.036556550423853 C 0.0786996423276749 -8.036556550423853 0.13206657479819217 -7.9842360283939335 0.13415939567938917 -7.918835375856537 C 0.13520580611998856 -7.885873446977687 0.1676445297785376 -7.1021120269695075 1.0440132737796741 -6.726973884014992 C 1.0884870279531995 -6.708063259846943 1.117333400493501 -6.664381610000204 1.1172620046215593 -6.616054377311565 C 1.117333400493501 -6.567727144622927 1.0884870279532013 -6.524045494776187 1.0440132737796741 -6.505134870608138 C 0.1676445297785376 -6.129996727653621 0.13520580611999033 -5.346235307645442 0.13415939567938917 -5.313273378766594 C 0.1325225465626536 -5.249438909132099 0.08131113856242411 -5.197997853562359 0.017484631552671992 -5.196075409419576 L 0.013298989790278881 -5.195552204199275 C -0.04918430200755797 -5.19556396364308 -0.10135791263015825 -5.243200738559365 -0.1070382108785326 -5.305425300462105 C -0.11017744220032988 -5.339433639781554 -0.19336707222789862 -6.146739294703197 -1.0179384994194147 -6.505134870608137 C -1.0625329965169348 -6.524021030208839 -1.0914608159017312 -6.567799383590772 -1.0913465971682075 -6.616228126604863 C -1.0912323784346842 -6.664656869618955 -1.0620983803505593 -6.708298284752143 -1.017415294199115 -6.726973884014992 C -0.14104655019797985 -7.1021120269695075 -0.1080846213191311 -7.885873446977687 -0.10756141609883141 -7.918835375856537 M 1.7451082689805837 -16.077174375981734 C 0.7557271973948234 -15.653901352759693 0.719102831973883 -14.76863812001347 0.7180564215332819 -14.73096734415193 C 0.7164195724165463 -14.667132874517435 0.6652081644163168 -14.615691818947699 0.6013816574065647 -14.613769374804914 L 0.5977192208644695 -14.613769374804914 C 0.5353234173870813 -14.613508797300138 0.4830785339090067 -14.660983495764999 0.47738202019565623 -14.723119265847444 C 0.47371958365356104 -14.761836452149582 0.3800658492200091 -15.672736740690464 -0.5507162376922428 -16.077174375981734 C -0.5948557030224828 -16.096522331458523 -0.6232817562905923 -16.14024437290815 -0.6230544298961878 -16.18843756852207 C -0.6228271035017818 -16.236630764135988 -0.5939898522479519 -16.28008269565862 -0.5496698272516456 -16.29901338938859 C 0.43971124433411646 -16.72228641261063 0.4758124045347598 -17.60754964535685 0.47685881497535654 -17.645220421218394 C 0.47685881497535654 -17.71182530111721 0.5308527383555042 -17.765819224497356 0.5974576182543192 -17.765819224497356 C 0.6640624981531342 -17.765819224497356 0.7180564215332801 -17.71182530111721 0.7180564215332801 -17.645220421218394 C 0.7191028319738795 -17.60754964535685 0.7557271973948216 -16.72228641261063 1.745108268980582 -16.299013389388588 C 1.7897467939304441 -16.28023227484094 1.818777441005854 -16.236522471074164 1.818777441005854 -16.188093882685163 C 1.818777441005854 -16.139665294296158 1.7897467939304441 -16.095955490529384 1.745108268980582 -16.077174375981734 M 12.848569454169894 -14.034581195933715 C 12.848502437836395 -13.98629553799683 12.819701892657115 -13.942683283868206 12.775320723328015 -13.92366168923029 C 11.898428774106574 -13.549046751496071 11.865990050448026 -12.765285331487892 11.864943640007425 -12.731800197388742 C 11.86330679089069 -12.66796572775425 11.812095382890458 -12.616524672184513 11.748268875880708 -12.614602228041726 L 11.744083234118314 -12.614602228041726 C 11.681782615206192 -12.614588741732536 11.629679424406167 -12.66193468467691 11.6237460334495 -12.723952119084256 C 11.620606802127707 -12.758483663624 11.537417172100135 -13.565266113325347 10.71284574490862 -13.924184894450587 C 10.668760973264554 -13.943474302918595 10.640233134149472 -13.986984388475413 10.640120219287034 -14.035104401154015 C 10.640120219287034 -14.083239281421541 10.669419711623789 -14.126665314706372 10.713368950128917 -14.14602390785744 C 11.589737694130054 -14.520638845591659 11.622699623008902 -15.304400265599838 11.623222828229203 -15.337885399698987 C 11.623222828229203 -15.404634758729902 11.677333875087399 -15.458745805588098 11.744083234118314 -15.458745805588098 C 11.810832593149232 -15.458745805588098 11.864943640007425 -15.404634758729902 11.864943640007425 -15.337885399698987 C 11.865990050448026 -15.304400265599838 11.898428774106574 -14.520638845591659 12.774797518107707 -14.14602390785744 C 12.81955859124427 -14.127088261462312 12.848622813491502 -14.083182734237774 12.848569454169894 -14.034581195933715" fill="#0094ff" transform="matrix(1,0,0,1,0,0)" fill-rule="nonzero"></path></g><g clip-path="url(#a93fdadf4-3586-43d9-87b2-665c79f700816ba77027-de5e-457f-bdd4-1f8975d150d1)"><path d=" M -1.0906640250410038 -6.616054377311563 C -1.0908248411242374 -6.567852702472525 -1.062207300459086 -6.524205805918481 -1.017938499419417 -6.505134870608137 C -0.1933670722279004 -6.146216089482895 -0.11017744220032988 -5.339433639781552 -0.10703821087853527 -5.304902095241806 C -0.10134169716518304 -5.24276632515936 -0.049096813687110163 -5.195291626694502 0.013298989790277105 -5.195552204199274 L 0.017484631552671104 -5.195552204199274 C 0.08131113856242234 -5.197474648342061 0.1325225465626536 -5.248915703911798 0.13415939567938917 -5.312750173546293 C 0.13520580611998767 -5.346235307645442 0.16816773499883642 -6.129996727653619 1.044536478999972 -6.504611665387838 C 1.0884857175051028 -6.523970258538906 1.1177852098418573 -6.567396291823739 1.1177852098418573 -6.615531172091265 C 1.1176532006750977 -6.663924764142299 1.0889082884122505 -6.707658094942209 1.0445364789999791 -6.726973884014987 C 0.16816773499883642 -7.101588821749207 0.13520580611998767 -7.885350241757388 0.13415939567938917 -7.918835375856535 C 0.13415939468474658 -7.985584733792672 0.08004834824743412 -8.039695779518839 0.01329899000285284 -8.03969577963624 C -0.05345036824172933 -8.039695779753643 -0.1075614148693882 -7.98558473421782 -0.10756141609883407 -7.91883537597324 C -0.10808462131913288 -7.885350241757388 -0.14104655019798162 -7.101588821749207 -1.0174152941991181 -6.72697388401499 C -1.0617964635282218 -6.707952289377079 -1.0905970087075008 -6.664340035248456 -1.0906640250410038 -6.616054377311563 M 0.013298989790277105 -7.412372722606923 C 0.15674985867049784 -7.075295003757988 0.4076650334650438 -6.795130919291644 0.7269509102783651 -6.615531172091266 C 0.40059720221169126 -6.43244109468368 0.1459032689204527 -6.144181414934074 0.004404501045190301 -5.797761412763638 C -0.1383487328823838 -6.138279344283429 -0.38619785986333177 -6.424259106184522 -0.7029689567993072 -6.613961556430366 C -0.3821946807471246 -6.793198061742762 -0.13019624820689746 -7.074096241477157 0.013298989790277993 -7.412372722606923" fill="#000000" transform="matrix(1,0,0,1,0,0)" fill-rule="nonzero"></path></g><g clip-path="url(#a93fdadf4-3586-43d9-87b2-665c79f700816ba77027-de5e-457f-bdd4-1f8975d150d1)"><path d=" M 11.864943640007425 -15.337362194478686 C 11.864943640007425 -15.404111553509601 11.810832593149229 -15.458222600367797 11.744083234118314 -15.458222600367797 C 11.677333875087399 -15.458222600367797 11.623222828229203 -15.404111553509601 11.623222828229203 -15.337362194478686 C 11.622699623008902 -15.304400265599838 11.589737694130054 -14.520115640371358 10.713368950128917 -14.145500702637142 C 10.668685863977476 -14.12682510337429 10.639551865893353 -14.083183688241105 10.639437647159827 -14.034754945227014 C 10.639323428426302 -13.986326202212922 10.6682512478111 -13.942547848830987 10.71284574490862 -13.923661689230286 C 11.536893966879838 -13.565266113325345 11.620606802127707 -12.757960458403701 11.6237460334495 -12.723952119084256 C 11.629426331697875 -12.661727557181516 11.681599942320474 -12.614090782265228 11.744083234118314 -12.614079022821425 L 11.747745670660407 -12.614079022821425 C 11.811576707536908 -12.616171843702622 11.862850819126226 -12.667445955291944 11.864943640007425 -12.731276992168443 C 11.865990050448026 -12.764762126267591 11.898428774106574 -13.54852354627577 12.775320723328008 -13.923138484009987 C 12.819034997445758 -13.942921117990858 12.847078993316892 -13.986506730987376 12.846966094363442 -14.034488786202731 C 12.846853195409995 -14.082470841418086 12.8186044024274 -14.125924000793772 12.774797518107707 -14.145500702637142 C 11.898428774106574 -14.520115640371358 11.865990050448026 -15.304400265599838 11.864943640007425 -15.337362194478686 M 11.735188745373229 -13.21628823138579 C 11.592309286134988 -13.556863174531093 11.344504403004173 -13.84297517347133 11.027815287528728 -14.033011580272818 C 11.34855293521666 -14.212051669009739 11.600558912369348 -14.492774178255795 11.744083234118314 -14.830899541229075 C 11.88742878185613 -14.493887727640512 12.138386105152765 -14.213860567774326 12.4577351546064 -14.034581195933715 C 12.131450094609864 -13.851163599568272 11.876801111610074 -13.562770399415001 11.735188745373229 -13.21628823138579" fill="#000000" transform="matrix(1,0,0,1,0,0)" fill-rule="nonzero"></path></g><g clip-path="url(#a93fdadf4-3586-43d9-87b2-665c79f700816ba77027-de5e-457f-bdd4-1f8975d150d1)"><path d=" M 1.7451082689805801 -16.29901338938859 C 0.7557271973948207 -16.722286412610632 0.7196260371941774 -17.607549645356855 0.718579626753578 -17.645220421218394 C 0.7127665228345546 -17.7076268845499 0.660395842045892 -17.755345998117523 0.5977192208644668 -17.755345998117523 C 0.5350425996830417 -17.755345998117523 0.4826719188943782 -17.7076268845499 0.47685881497535476 -17.645220421218394 C 0.47581240453475626 -17.607549645356855 0.4397112443341129 -16.722286412610632 -0.5496698272516474 -16.29901338938859 C -0.5939439372871371 -16.279977701990106 -0.6226776344158842 -16.23645847347208 -0.6227912965655977 -16.188265721993428 C -0.6229049587153113 -16.140072970514773 -0.5943768594838352 -16.096418690590237 -0.5501930324719466 -16.077174375981734 C 0.3800658492200055 -15.672736740690466 0.47371958365355926 -14.761836452149584 0.47738202019565357 -14.723119265847444 C 0.4830623184440279 -14.660894703944704 0.5352359290666282 -14.613257929028418 0.5977192208644659 -14.613246169584613 L 0.6013816574065611 -14.613246169584613 C 0.6652126942830607 -14.615338990465812 0.716486805872381 -14.667136307275431 0.718579626753578 -14.730967344151932 C 0.7196260371941774 -14.768638120013472 0.7557271973948199 -15.653901352759695 1.7451082689805801 -16.076651170761437 C 1.7892592501667268 -16.095994650970955 1.817781080694342 -16.139629797085902 1.817781080694342 -16.187832280075014 C 1.817781080694342 -16.236034763064126 1.7892592501667268 -16.27966990917907 1.7451082689805801 -16.29901338938859 M 0.5883015268990812 -15.234813971300047 C 0.42850590008336287 -15.634589807714882 0.13977000645090865 -15.969545541463246 -0.2320842585300431 -16.186524267024268 C 0.24037005540012313 -16.451789313715953 0.47842843063625207 -16.818032967925383 0.5977192208644668 -17.11625994349592 C 0.7170100110926807 -16.81855617314568 0.9540219758882129 -16.45335892937685 1.4243834689371804 -16.188093882685163 C 0.940941845380733 -15.914980757688987 0.7039298805852008 -15.536703383412677 0.5883015268990812 -15.234813971300047" fill="#000000" transform="matrix(1,0,0,1,0,0)" fill-rule="nonzero"></path></g><g clip-path="url(#a93fdadf4-3586-43d9-87b2-665c79f700816ba77027-de5e-457f-bdd4-1f8975d150d1)"><path d=" M 5.679088320410156 -21.124535136207978 C 0.04364489256762916 -21.124535136207978 -4.540679247693833 -16.540210995946516 -4.540679247693833 -10.904767568103988 C -4.540679247693833 -5.26932414026146 0.04364489256762916 -0.6849999999999987 5.679088320410156 -0.6849999999999987 C 11.314531748252683 -0.6849999999999987 15.898855888514145 -5.26932414026146 15.898855888514145 -10.904767568103988 C 15.898855888514145 -16.540210995946516 11.314531748252683 -21.124535136207978 5.679088320410156 -21.124535136207978 M 11.070194910372965 -2.720268306963831 L 11.012119130919753 -2.6831207363225857 C 10.866421755331071 -2.588618403634552 10.718305179904146 -2.497899181936077 10.567917898885721 -2.41105402176699 C 10.523445455160314 -2.3854169659723503 10.479496216655182 -2.3592567049573887 10.434500567709453 -2.334142854383032 C 10.267620927571325 -2.240751583126773 10.098029029858221 -2.152291611788769 9.925945093578616 -2.068877807691326 L 9.901877653444885 -2.05789049806506 L 9.279786646509152 -3.506122547853206 C 9.669051330411744 -3.929395571075247 10.331952344530812 -4.450507970493234 11.356388165876616 -4.670777368239193 L 12.100909194362359 -3.50350652175171 C 11.774472807435721 -3.2206145544633955 11.430191740873678 -2.958995896268789 11.07019491037292 -2.7202683069637885 M 8.751349374006974 -3.2272541654337417 L 8.288835959262496 -4.643570696783634 C 8.130240384239855 -5.078987609198197 7.775903525255738 -5.414328290840714 7.332416816555583 -5.548715727901229 C 6.708756193958954 -5.738116017649531 5.801518341960166 -6.1205790336882355 5.018280127172285 -6.867192883055173 C 4.069185857549564 -7.771291503732167 3.3633820153659615 -8.305484033657635 3.026961058713586 -8.543019203673465 C 2.9543722870894227 -8.593785200383572 2.9365829161263033 -8.693733376715837 2.9871974619708483 -8.766427832741217 C 3.0824208120652994 -8.900891574358107 3.200141986632616 -8.968385047776701 3.342977011774294 -8.968385047776701 C 3.4429092088514377 -8.968385047776701 3.554875125995463 -8.935423118897853 3.6804443788672687 -8.869499261140156 C 3.9708232761333155 -8.717246542033092 4.307244232785693 -8.507441248693118 4.604424797915629 -8.322226600707207 C 5.332726464572095 -7.868607674707812 5.579679328553312 -7.72891188088793 5.728792816338578 -7.809485484814006 C 5.76018512955653 -7.8262280518635805 5.7973327001977735 -7.879071779113797 5.804657573281962 -7.914126528873844 C 5.872151046700556 -8.241129791560834 4.602331977034432 -10.066069599964393 3.931059679390578 -10.912092441188175 C 3.120091587926841 -11.933912236432485 3.2880404636428793 -12.102384317368823 3.3738461197719456 -12.18818997349789 C 3.4062848434304946 -12.222198312817337 3.4413395931905404 -12.235278443324816 3.4884280630174684 -12.232139212003021 C 3.6699802744612855 -12.218012671054943 4.055059316601485 -11.962165318328642 4.856609714099837 -10.82576357983881 C 5.042870772526347 -10.56206814880802 5.674902678647764 -9.717614923245137 5.998766710012959 -9.930036242686604 C 6.113348653258481 -10.005377794409688 6.183458152778573 -10.203672572903079 5.866395789277266 -10.720599330558674 C 5.7585336088705334 -10.89319620179182 5.648301271642521 -11.064300510052384 5.535730090048124 -11.23386365167227 C 4.994212687038522 -12.05948148930429 3.8667054372937786 -13.777164227546518 4.299396154481205 -14.126142109486072 C 4.3794465531869795 -14.190496351582873 4.416594123828221 -14.193112377684368 4.444324000504079 -14.188403530701676 C 4.663546987809437 -14.143407881755945 5.09885373109836 -13.398363648049905 5.7758812861655064 -12.126974962722885 C 6.131137630748655 -11.459888306841423 6.613532843864502 -10.686067786018926 6.880890711437387 -10.800126524044149 C 7.032620225324149 -10.863434355700349 7.033666635764749 -11.077425290802717 6.884553147979481 -11.56400614568096 C 6.780530976775968 -11.887674430603697 6.666945650343442 -12.208190935452471 6.5439465495647005 -12.525134135370593 C 6.217989697318319 -13.392085185406316 5.813028856806748 -14.470934349663235 6.17717969013498 -14.634697583616882 C 6.254090857518961 -14.668705922936327 6.318968304836059 -14.671321949037825 6.38279934171256 -14.640976046260471 C 6.6784102911816 -14.501803457660888 6.885076353199779 -13.758328839615746 7.050932408034622 -13.160305272813776 C 7.097497672641249 -12.992356397097739 7.1419701163666796 -12.83068598402529 7.187488970532708 -12.686281343222715 C 7.1937674331763 -12.665353134410747 7.866086141260753 -10.631131237887514 8.271570186992623 -10.713274457474485 C 8.438995857488358 -10.743620360251837 8.448936756674044 -10.964412963218095 8.435333420946264 -11.19880890191213 C 8.4133588016937 -11.574470250086947 8.332261992547327 -12.00140570985108 8.25378120950245 -12.413691423446839 C 8.142338497578724 -13.000727680622525 8.01624603948662 -13.66572151562279 8.162220295950092 -13.854075394930497 C 8.177916452559067 -13.873957193301866 8.202507097913127 -13.897501428215328 8.25901326170544 -13.900640659537125 C 8.573459599105249 -13.927324125772383 8.776463224581335 -12.99078678143684 8.959585051686048 -12.170400996007716 C 9.075213405372168 -11.650858212250627 9.195027400820681 -11.113526451003363 9.359313839994627 -10.633747263989008 C 9.539819640997845 -10.107926017588328 9.732359162067947 -9.725986206769923 9.901877653444885 -9.389565250117546 C 10.178653214983154 -8.839676563583103 10.39735299706821 -8.405939435955078 10.39735299706821 -7.633165325573181 C 10.39735299706821 -6.584138858873313 11.467307672580045 -5.449306736044381 11.938192370849311 -5.000396657027679 C 10.03791101072267 -4.843958296158224 9.084631099337553 -3.7248223299382666 8.751349374006974 -3.2272541654337417 M 9.245778307189703 -2.9734996335886343 C 9.168646196769686 -2.9461164861044047 9.088574352439913 -2.927854486520424 9.007196726733273 -2.9190862906775195 C 8.962035337673825 -2.9137878208814207 8.916285481552912 -2.91680234628474 8.872209779896085 -2.927980779422608 C 8.865908569974408 -2.9296572105323513 8.85990696183315 -2.932304978829965 8.854420802405912 -2.9358288577270955 C 8.892091578267454 -3.0022759207050917 8.97161877175293 -3.1341236362204867 9.104512897708926 -3.302595717156823 Z M 8.016246039486617 -12.36869577450111 C 8.093680412090897 -11.96373493398954 8.173207605576373 -11.54517075775019 8.194135814388343 -11.184682360964054 C 8.19809345157896 -11.128263488901974 8.198792219953539 -11.07166325056123 8.196228635269538 -11.015163869587118 C 8.003689114199439 -11.266302375330726 7.619133277279537 -12.114941242656004 7.417699267464349 -12.757960458403703 C 7.3737500289592175 -12.900272278325081 7.329277585233787 -13.059849870516333 7.283758731067757 -13.225182720130876 C 7.085987157794665 -13.937265024958068 6.881937121877985 -14.673414769919022 6.4853475648912005 -14.859675828345532 C 6.35595911076316 -14.919867019583087 6.206255320431295 -14.91813522766408 6.078293903498435 -14.854966981362839 C 5.506953802931723 -14.598596423416238 5.90092733381701 -13.55009316193667 6.31792189439546 -12.440374889682097 C 6.445060762928162 -12.101337906928226 6.565397963596976 -11.781136312105122 6.6538196458275385 -11.493373440940573 C 6.718173887924338 -11.282521737160002 6.742764533278399 -11.156952484288196 6.751135816803186 -11.08422695866661 C 6.60673117600061 -11.223399547266194 6.32472356225935 -11.61057141028759 5.989349016047574 -12.24051049552781 C 5.0972841154374615 -13.915290405705504 4.78963944590154 -14.364200484722204 4.492458880771603 -14.42489229027691 C 4.344915008647232 -14.454714987833963 4.230856270622012 -14.381466256992077 4.14766664059444 -14.313972783573483 C 3.590976286196107 -13.864539499336482 4.39095706803356 -12.538214265878048 5.333772875012692 -11.101492730936483 C 5.463004564426591 -10.90476756810399 5.576540097231514 -10.73106343496466 5.660252932479385 -10.594506872466573 C 5.812505651586448 -10.346507598044758 5.850176427447988 -10.202626162462483 5.853315658769785 -10.142980767348375 C 5.7612315399971274 -10.173326670125729 5.488641620221251 -10.348600418925955 5.053858082152629 -10.964936168438397 C 4.347531034748729 -11.966350960091038 3.8562413328877936 -12.445606941885092 3.507263450948236 -12.47281361334065 C 3.386799150384638 -12.482605195462423 3.268753690077352 -12.435115642465238 3.1886314717860333 -12.344628334367348 C 2.99085989851294 -12.145810350653658 2.869999492623829 -11.860140300370304 3.7416593896422716 -10.761932542962313 C 4.549488249784214 -9.743775184260098 5.373013266535131 -8.468724062390985 5.537299705709075 -8.059577580117022 C 5.3588867255870545 -8.1370119527213 5.017233716731686 -8.349956477383069 4.732086871668629 -8.527323047064492 C 4.431767075216897 -8.714630515931601 4.091160476802128 -8.92705183537307 3.792410296011293 -9.083490196242526 C 3.23519673639266 -9.37648511961007 2.9249360407552425 -9.098139942410903 2.789425888697753 -8.905600421340802 C 2.662846550058296 -8.723657222755007 2.7067697550699252 -8.473668768699454 2.8877884701140006 -8.345770835620673 C 3.2184541693430857 -8.111898102146938 3.9132707019004043 -7.586076855746256 4.851900867117142 -6.691919134254949 C 5.415916094599665 -6.1545873730076845 6.038530306755695 -5.801423849305733 6.584233351527746 -5.567551115831998 C 5.995627478691163 -5.504243284175798 4.855563303659237 -5.312750173546295 3.51144909271063 -4.728853147692405 C 3.414132921734982 -5.298623632598217 2.988767077631743 -7.251225514754777 1.5347797704203074 -8.769043858842714 C 0.10172067202083745 -10.264364378457785 -0.4434591675309134 -12.466535150697059 -0.5580411107764349 -12.997588449300732 C -0.19075104612640725 -13.070837180142616 0.9132119687048741 -13.346566331240288 1.9967699799444878 -14.164859295788215 C 3.5041242196264397 -15.302307444718643 5.099376936318657 -15.96677807449861 6.3728584425268755 -15.987183078090277 C 7.613378019856245 -16.007064876461648 8.847619134542022 -16.579451387468957 9.294959597897826 -16.809138479180298 C 9.332630373759368 -16.000786413818055 9.55551579760682 -12.94683754293171 10.818533199409053 -11.292462636345684 C 11.998884176404015 -9.745868005141295 12.82345560359553 -8.667542046104673 13.035353717816701 -8.390766484566402 C 12.857987148135276 -8.153231314550574 12.161077794696762 -7.350111301391324 10.73795959548298 -7.15233972811823 C 10.731681132839388 -7.151816522897931 10.725925875416099 -7.148154086355838 10.720170617992807 -7.146061265474641 C 10.668929471314321 -7.303459723546641 10.641592943629558 -7.467655254349966 10.639073808846433 -7.633165325573181 C 10.639073808846433 -8.46349201018799 10.408863511914792 -8.92025016750918 10.117961409428446 -9.49786873071948 C 9.951582149373305 -9.828011224728266 9.763228270065596 -10.201579752021884 9.58795452126537 -10.71222804703389 C 9.427853723853818 -11.178927103540763 9.309609344066203 -11.709980402144437 9.195027400820681 -12.22272151803764 C 8.95173697338156 -13.313081197141141 8.759720657531759 -14.175846605414499 8.243840310316763 -14.14236147131535 C 8.136771989801797 -14.138005258287123 8.037057144977393 -14.086712401448464 7.971250390540887 -14.002142472275168 C 7.758305865879117 -13.727459731618096 7.878119861327632 -13.098043851598176 8.016246039486614 -12.368695774501111 M 12.110850093548041 -4.766000718333643 C 12.109552114666606 -4.747754889049201 12.107281665669085 -4.729591297069035 12.104048425684152 -4.711587375422532 C 12.093235852133713 -4.64346849832685 12.051774850369082 -4.584073202775656 11.991559303319825 -4.5504401675703825 C 11.965318223152376 -4.535629494372984 11.938240519491615 -4.522352684836093 11.910462494173451 -4.510676570827645 C 11.867716166510963 -4.491830036773926 11.827183379716786 -4.468317511101116 11.78960208828434 -4.440567071307552 L 11.614851544704415 -4.714203401524024 C 11.772859521234768 -4.738794046878088 11.93766916562901 -4.756583024368261 12.110850093548045 -4.766000718333643 M 15.480291712274795 -10.90476756810399 C 15.480291712274795 -9.897074313807758 15.328038993167734 -8.924959014491872 15.04550817420617 -8.009873084188596 L 15.036613685461088 -7.980050386631543 C 14.994757267837151 -7.846109850234951 14.949238413671122 -7.7137389294992555 14.902149943844197 -7.582414419204161 L 14.87337365672774 -7.503410430938983 C 14.829767843332498 -7.386205274447832 14.783891548175554 -7.269857408023192 14.735770683789035 -7.154432548999372 C 14.71902811673948 -7.114668952256688 14.702808754910208 -7.074382150293651 14.685542982640332 -7.034618553550912 C 14.484184457260028 -6.570223264313979 14.247889858417086 -6.121770746598729 13.978692730016132 -5.693120368703802 C 13.936836312392199 -5.627196510946103 13.894979894768266 -5.5607494479681066 13.852077066703728 -5.49534879543071 C 13.80080295511441 -5.41843762804673 13.747959227864193 -5.343096076323647 13.695115500613973 -5.267754524600564 C 13.656398314311836 -5.213341181689451 13.618204333229993 -5.157881428337735 13.578440736487256 -5.1039912906469205 C 13.516117133583965 -5.019962330270392 13.452452341682598 -4.936936464667511 13.38747083107809 -4.8549456057845575 C 13.352939286538305 -4.810996367279376 13.319454152439157 -4.766523923553947 13.284399402679114 -4.72362109548941 C 13.20889782390119 -4.6319182376655945 13.131977391450366 -4.541392830767684 13.053665900527108 -4.452077586154061 L 12.9709994757199 -4.356854236059686 C 12.877868946506648 -4.253259602440444 12.782645596412195 -4.152804200143002 12.685329425436546 -4.053395208286158 L 12.638240955609618 -4.004213917578031 C 12.52331386584914 -3.8879752399267176 12.40537828819657 -3.7747501069437064 12.284554226687362 -3.664653729603856 L 11.91883377769824 -4.23860985627207 C 11.920403393359138 -4.240702677153266 11.923542624680934 -4.241749087593863 11.925112240341832 -4.244365113695363 C 11.932437113426019 -4.256398833762244 11.977955967592049 -4.276280632133609 12.0083018703694 -4.2898839678613925 C 12.149044074629881 -4.352145389076998 12.383963218544217 -4.4562632279165335 12.352570905326264 -4.904126896492638 C 12.352570905326264 -4.90935894869563 12.349431674004467 -4.914067795678321 12.34838526356387 -4.918776642661012 C 12.347547135052729 -4.923971710261096 12.346143583694605 -4.92905958393429 12.34419962180148 -4.93394959404969 C 12.338180174486698 -4.954638948255713 12.326597778113147 -4.973279367419394 12.310714487702331 -4.987839731740504 C 12.295541536313653 -5.000396657027686 11.220354808598827 -5.928562717838441 10.802837042800078 -6.918990199864798 C 12.564469019547435 -7.1758839630316995 13.259285552104753 -8.283509414405076 13.288061839221207 -8.3311210894523 C 13.313842591665448 -8.373653364886898 13.310935809769614 -8.42763645723809 13.28073696613702 -8.467154446730088 C 13.250538122504427 -8.506672436222086 12.388148860306611 -9.63442529321757 11.010549515258855 -11.438960098029462 C 9.625625297126913 -13.252912596806732 9.530401947032459 -16.972378507913643 9.529355536591861 -17.009526078554885 C 9.528762571301488 -17.052197709765366 9.505419662964972 -17.091302069029958 9.468140525816857 -17.112074301733525 C 9.431174903063631 -17.133170036792116 9.385815358341873 -17.133170036792116 9.348849735588644 -17.112074301733525 C 9.333676784199966 -17.103179812988436 7.826322544518013 -16.252448124781964 6.369196005984782 -16.228903889868498 C 4.556813122868404 -16.199604397531743 2.7606496015813002 -15.043844065890845 1.8513189287013159 -14.357398816858312 C 0.6050440939486554 -13.416675830760378 -0.7050617776805046 -13.21628823138579 -0.7181419081879841 -13.214195410504592 C -0.7504106663354619 -13.209360923728514 -0.7794146495087135 -13.19184553129272 -0.7987155121140583 -13.165537325016768 C -0.8177248685158145 -13.13887626570735 -0.8252623094139122 -13.105711525755723 -0.8196437209260261 -13.073453206244112 C -0.8002851277749556 -12.963580109981281 -0.32259876164180046 -10.358018112891337 1.360029226840382 -8.601618188346972 C 2.988243872411447 -6.902770838035517 3.292749310625572 -4.562997092857557 3.2958885419473676 -4.539452857944099 C 3.3004316691416067 -4.5012847456139795 3.322934801984398 -4.467583376067207 3.3564470686651626 -4.448758584289738 C 3.389959335345927 -4.429933792512273 3.4304481102908113 -4.4282508187956005 3.465407033324303 -4.444229507849645 C 5.409637631956078 -5.321121457071079 6.998611886004704 -5.356699412051425 7.014308042613679 -5.356699412051425 C 7.036849123462477 -5.357740349214547 7.058627223554839 -5.365181200079437 7.0770926690495815 -5.378150826083692 C 7.139877295485484 -5.356699412051425 7.203185127141686 -5.335771203239458 7.261784111815193 -5.317982225749287 C 7.63135839033056 -5.206072911253784 7.92709507371143 -4.927379337327739 8.06071848321205 -4.565089913738756 L 8.604328707102905 -2.900774107967049 C 8.605375117543502 -2.8971116714249554 8.608514348865295 -2.8950188505437566 8.610083964526194 -2.891879619221964 C 8.622449086843712 -2.826785898133803 8.661047416486365 -2.7696452336628106 8.716817829467228 -2.7338716426916108 C 8.7925376126312 -2.6914080778934633 8.878610467560346 -2.670931798720847 8.96534030910934 -2.674749452797805 C 9.075736610592472 -2.674749452797805 9.206014710446969 -2.7045721503548563 9.341001657284156 -2.7521838254020814 L 9.681608255698926 -1.9584815062082157 C 9.559838017267289 -1.9039918601854922 9.43703673523856 -1.8518362020511283 9.313271780608343 -1.8020431453387822 C 9.258858437697185 -1.7805917313064938 9.204968300006367 -1.7586171120539262 9.150031751874952 -1.7382121084622604 C 9.061610069644392 -1.704203769142815 8.97214197697323 -1.6728114559248617 8.882150679081771 -1.641942347927209 C 8.808378743019585 -1.6163052921325516 8.734606806957398 -1.5901450311175935 8.659788460454617 -1.5666007962041313 C 8.593341397476621 -1.5451493821718643 8.525847924058024 -1.525790789020789 8.45887765585973 -1.5053857854291266 C 8.359468664002883 -1.4760862930923722 8.260059672146038 -1.4467868007556177 8.159081064628296 -1.4206265397406561 C 8.122456699207351 -1.4106856405549735 8.08530912856611 -1.4028375622504896 8.048161557924868 -1.3934198682851004 C 7.273194795875249 -1.2008271078655142 6.477627892436316 -1.1034896377892878 5.679088320410153 -1.1035641762393524 C 3.3267576499450184 -1.1035641762393489 1.1690593214311784 -1.9328444504135547 -0.520370334914892 -3.3141062320034074 C -1.018089199583223 -3.721054385956851 -1.4750772862650345 -4.175414090238267 -1.8848895494551705 -4.670777368239197 C -3.33424463075825 -6.424608338582113 -4.125549680102298 -8.629566164338492 -4.122115071454484 -10.904767568103994 C -4.1255496801026235 -13.179968971868078 -3.334244630758895 -15.384926797624573 -1.8848895494560636 -17.1387577679677 C -1.4767894776218036 -17.632663495931215 -1.020554525520914 -18.085759216710308 -0.5245559766772869 -18.492289672882777 C 1.2242864893829726 -19.92683792668295 3.4171494654877286 -20.70932955626035 5.679088320410158 -20.70597095996863 C 7.954289724175655 -20.709405568616443 10.159247549932036 -19.918100519272397 11.913078520274954 -18.46874543796931 C 12.406984248237382 -18.060645366135947 12.860079969016475 -17.60441041403506 13.266610425188944 -17.108411865191428 C 14.701081872015006 -15.359525945069961 15.483563343095984 -13.166691437245062 15.480291712274798 -10.904767568103987" fill="#000000" transform="matrix(1,0,0,1,0,0)" fill-rule="nonzero"></path></g></g></g><defs><clipPath id="SvgjsClipPath1001"><path d=" M -4.540679247693833 -21.124535136207978 h 20.43953513620798 v 20.43953513620798 h -20.43953513620798 Z"></path></clipPath><clipPath id="a93fdadf4-3586-43d9-87b2-665c79f700816ba77027-de5e-457f-bdd4-1f8975d150d1"><path d=" M -4.540679247693833 -0.6849999999999987 L 15.898855888514145 -0.6849999999999987 L 15.898855888514145 -21.124535136207978 L -4.540679247693833 -21.124535136207978 Z"></path></clipPath></defs></svg>