<svg xmlns="http://www.w3.org/2000/svg" version="1.1" xmlns:xlink="http://www.w3.org/1999/xlink" xmlns:svgjs="http://svgjs.dev/svgjs" viewBox="0 0 11.130638297518685 3.7295731986905585"><g transform="matrix(1,0,0,1,3.4638055741904075,1.4767830993452793)"><g><path d=" M 0.220293 0.7084799999999998 C 0.17379899999999998 0.7084799999999998 0.129519 0.6597719999999998 0.129519 0.6243479999999998 C 0.129519 0.5534999999999998 0.238005 0.4627259999999998 0.33542099999999997 0.3974129999999998 C 0.350919 0.3874499999999998 0.360882 0.3774869999999998 0.360882 0.3653099999999998 C 0.360882 0.34206299999999984 0.318816 0.3110669999999998 0.283392 0.3110669999999998 C 0.278964 0.3110669999999998 0.27564299999999997 0.3110669999999998 0.271215 0.31217399999999984 C 0.263466 0.31217399999999984 0.22582799999999997 0.27232199999999984 0.22582799999999997 0.2380049999999998 C 0.22582799999999997 0.16937099999999983 0.336528 0.07527599999999979 0.36973799999999996 0.07527599999999979 C 0.388557 0.07527599999999979 0.41401799999999994 0.09520199999999979 0.41401799999999994 0.1106999999999998 C 0.41401799999999994 0.12730499999999978 0.39741299999999996 0.15719399999999983 0.37970099999999996 0.19372499999999981 C 0.37638 0.20036699999999985 0.37527299999999997 0.20479499999999984 0.37527299999999997 0.2103299999999998 C 0.37527299999999997 0.22472099999999984 0.42066 0.25682399999999983 0.438372 0.25682399999999983 C 0.44390699999999994 0.25682399999999983 0.44722799999999996 0.2546099999999998 0.45497699999999996 0.2457539999999998 C 0.48486599999999996 0.20811599999999986 0.519183 0.14723099999999978 0.519183 0.12287699999999979 C 0.519183 0.07306199999999985 0.412911 0.001106999999999858 0.333207 0.001106999999999858 C 0.25571699999999997 0.001106999999999858 0.095202 0.13394699999999982 0.095202 0.21697199999999983 C 0.095202 0.27674999999999983 0.17490599999999998 0.3332069999999998 0.200367 0.3487049999999998 C 0.115128 0.4051619999999998 0 0.5003639999999998 0 0.5966729999999998 C 0 0.6708419999999998 0.129519 0.7870769999999998 0.24796799999999997 0.7870769999999998 C 0.281178 0.7870769999999998 0.33984899999999996 0.7771139999999997 0.360882 0.7571879999999998 C 0.396306 0.7239779999999998 0.41955299999999995 0.6808049999999998 0.44279999999999997 0.6420599999999999 C 0.44944199999999995 0.6309899999999998 0.45386999999999994 0.6210269999999998 0.45386999999999994 0.6121709999999998 C 0.45386999999999994 0.5988869999999997 0.410697 0.5656769999999998 0.39741299999999996 0.5656769999999998 C 0.386343 0.5656769999999998 0.380808 0.5723189999999998 0.373059 0.5811749999999998 C 0.32103 0.6464879999999997 0.269001 0.7084799999999998 0.220293 0.7084799999999998 M 0.7047259294921876 0.23689799999999983 C 0.7047259294921876 0.22029299999999985 0.7135819294921876 0.18818999999999986 0.7191169294921875 0.1826549999999998 C 0.7722529294921876 0.12398399999999987 0.8032489294921876 0.09298799999999985 0.8176399294921876 0.09298799999999985 C 0.8320309294921876 0.09298799999999985 0.8419939294921877 0.09741599999999984 0.8453149294921876 0.11402099999999982 C 0.8508499294921876 0.13726799999999983 0.8763109294921876 0.25239599999999984 0.9061999294921876 0.3763799999999998 C 0.8109979294921876 0.5014709999999998 0.7169029294921876 0.6232409999999998 0.6759439294921876 0.6686279999999998 C 0.6670879294921876 0.6785909999999998 0.6349849294921875 0.6985169999999998 0.6128449294921876 0.7106939999999998 C 0.6062029294921876 0.7140149999999998 0.6017749294921876 0.7206569999999998 0.6017749294921876 0.7272989999999998 C 0.6017749294921876 0.7405829999999998 0.6515899294921876 0.7870769999999998 0.6693019294921876 0.7870769999999998 C 0.6814789294921876 0.7870769999999998 0.7246519294921876 0.7627229999999998 0.7445779294921876 0.7383689999999998 C 0.7833229294921875 0.6918749999999998 0.8574919294921876 0.5988869999999997 0.9349819294921875 0.4981499999999998 C 0.9615499294921875 0.6099569999999999 0.9847969294921876 0.7062659999999998 0.9914389294921875 0.7239779999999998 C 1.0047229294921876 0.7616159999999997 1.0910689294921876 0.7870769999999998 1.1109949294921875 0.7870769999999998 C 1.1298139294921876 0.7870769999999998 1.1752009294921875 0.7261919999999997 1.1752009294921875 0.7140149999999998 C 1.1752009294921875 0.7018379999999997 1.1264929294921875 0.6896609999999997 1.1154229294921876 0.6653069999999998 C 1.1032459294921875 0.6409529999999998 1.0700359294921875 0.5036849999999998 1.0368259294921875 0.3664169999999998 C 1.1220649294921876 0.2579309999999998 1.1973409294921875 0.1583009999999998 1.2283369294921875 0.11955599999999988 C 1.2482629294921876 0.09520199999999979 1.2892219294921876 0.0708479999999998 1.2892219294921876 0.060884999999999856 C 1.2892219294921876 0.04649399999999981 1.2427279294921876 -1.1102230246251565e-16 1.2283369294921875 -1.1102230246251565e-16 C 1.2150529294921877 -1.1102230246251565e-16 1.1685589294921876 0.027674999999999894 1.1486329294921875 0.05424299999999982 C 1.1231719294921876 0.08634599999999981 1.0700359294921875 0.15719399999999983 1.0080439294921875 0.24132599999999982 C 0.9892249294921875 0.1627289999999998 0.9748339294921875 0.09741599999999984 0.9692989294921875 0.0708479999999998 C 0.9626569294921876 0.044279999999999875 0.8929159294921876 0.001106999999999858 0.8652409294921876 0.001106999999999858 C 0.8187469294921876 0.001106999999999858 0.6980839294921876 0.07638299999999987 0.6338779294921876 0.12398399999999987 C 0.6095239294921876 0.14169599999999982 0.5774209294921876 0.23246999999999984 0.5774209294921876 0.25903799999999977 C 0.5774209294921876 0.28671299999999983 0.6659809294921876 0.3885569999999998 0.6881209294921876 0.3885569999999998 C 0.7058329294921876 0.3885569999999998 0.7434709294921875 0.3586679999999998 0.7434709294921875 0.3431699999999998 C 0.7434709294921875 0.3276719999999998 0.7047259294921876 0.26346599999999987 0.7047259294921876 0.23689799999999983 M 2.181005454199219 0.4483349999999998 C 2.195396454199219 0.4483349999999998 2.2131084541992188 0.4051619999999998 2.2131084541992188 0.39409199999999983 C 2.2131084541992188 0.3874499999999998 2.2075734541992187 0.38412899999999983 2.203145454199219 0.38412899999999983 L 2.164400454199219 0.38412899999999983 C 2.1865404541992186 0.30221099999999984 2.2120014541992186 0.21918599999999977 2.2308204541992187 0.15719399999999983 C 2.239676454199219 0.12730499999999978 2.288384454199219 0.07306199999999985 2.288384454199219 0.0630989999999998 C 2.288384454199219 0.04649399999999981 2.231927454199219 0.001106999999999858 2.2131084541992188 0.001106999999999858 C 2.206466454199219 0.001106999999999858 2.179898454199219 0.022139999999999826 2.1555444541992186 0.04649399999999981 C 2.142260454199219 0.03431699999999982 2.097980454199219 0.001106999999999858 2.081375454199219 0.001106999999999858 C 2.0304534541992187 0.001106999999999858 1.9120044541992187 0.061991999999999825 1.8854364541992188 0.10516499999999984 C 1.8632964541992187 0.14169599999999982 1.8024114541992189 0.26346599999999987 1.7415264541992188 0.38412899999999983 L 1.6053654541992188 0.38412899999999983 C 1.5909744541992188 0.38412899999999983 1.5721554541992189 0.4273019999999998 1.5721554541992189 0.4383719999999998 C 1.5721554541992189 0.4450139999999998 1.577690454199219 0.4483349999999998 1.5832254541992188 0.4483349999999998 L 1.7105304541992188 0.4483349999999998 C 1.665143454199219 0.5391089999999998 1.623077454199219 0.6210269999999998 1.603151454199219 0.6553439999999998 C 1.586546454199219 0.6841259999999998 1.561085454199219 0.7040519999999998 1.545587454199219 0.7040519999999998 C 1.520126454199219 0.7040519999999998 1.440422454199219 0.5889239999999998 1.4149614541992188 0.5402159999999998 C 1.411640454199219 0.5335739999999998 1.4061054541992188 0.5291459999999998 1.3972494541992189 0.5291459999999998 C 1.3728954541992189 0.5291459999999998 1.308689454199219 0.5822819999999997 1.308689454199219 0.5999939999999998 C 1.308689454199219 0.6332039999999998 1.4725254541992188 0.7870769999999998 1.5356244541992188 0.7870769999999998 C 1.595402454199219 0.7870769999999998 1.706102454199219 0.7184429999999998 1.729349454199219 0.6808049999999998 C 1.751489454199219 0.6442739999999998 1.7968764541992188 0.5501789999999998 1.8444774541992188 0.4483349999999998 L 2.0116344541992186 0.4483349999999998 C 1.9839594541992187 0.5523929999999998 1.9629264541992189 0.6420599999999999 1.9629264541992189 0.6719489999999998 C 1.9629264541992189 0.7095869999999997 2.023811454199219 0.7870769999999998 2.0370954541992186 0.7870769999999998 C 2.0559144541992187 0.7870769999999998 2.1334044541992188 0.7372619999999998 2.1334044541992188 0.7206569999999998 C 2.1334044541992188 0.7106939999999998 2.101301454199219 0.6785909999999998 2.101301454199219 0.6641999999999998 C 2.101301454199219 0.6298829999999997 2.121227454199219 0.5446439999999998 2.146688454199219 0.4483349999999998 M 2.115692454199219 0.09741599999999984 C 2.090231454199219 0.17490599999999978 2.0581284541992186 0.2811779999999998 2.029346454199219 0.38412899999999983 L 1.8743664541992189 0.38412899999999983 C 1.9319304541992188 0.26014499999999985 1.9883874541992188 0.1383749999999998 2.008313454199219 0.10516499999999984 C 2.016062454199219 0.09298799999999985 2.0304534541992187 0.0830249999999998 2.043737454199219 0.0830249999999998 C 2.0559144541992187 0.0830249999999998 2.105729454199219 0.09520199999999979 2.115692454199219 0.09741599999999984 M 2.4240810331054687 0.2501819999999998 C 2.4240810331054687 0.24021899999999985 2.436258033105469 0.20922299999999983 2.441793033105469 0.20368799999999987 C 2.502678033105469 0.1428029999999998 2.582382033105469 0.07416899999999982 2.601201033105469 0.07416899999999982 C 2.610057033105469 0.07416899999999982 2.621127033105469 0.08634599999999981 2.621127033105469 0.09962999999999989 C 2.621127033105469 0.15608699999999986 2.467254033105469 0.6553439999999998 2.467254033105469 0.7383689999999998 C 2.467254033105469 0.7693649999999997 2.553600033105469 0.7870769999999998 2.573526033105469 0.7870769999999998 C 2.589024033105469 0.7870769999999998 2.591238033105469 0.7782209999999998 2.593452033105469 0.7660439999999997 C 2.6299830331054688 0.5745329999999997 2.684226033105469 0.3531329999999998 2.732934033105469 0.21475799999999978 C 2.746218033105469 0.17711999999999983 2.842527033105469 0.09409499999999982 2.872416033105469 0.09409499999999982 C 2.900091033105469 0.09409499999999982 2.923338033105469 0.12398399999999987 2.923338033105469 0.1428029999999998 C 2.923338033105469 0.17933399999999988 2.780535033105469 0.6619859999999997 2.780535033105469 0.7394759999999998 C 2.780535033105469 0.7638299999999998 2.850276033105469 0.7870769999999998 2.880165033105469 0.7870769999999998 C 2.895663033105469 0.7870769999999998 2.897877033105469 0.7782209999999998 2.900091033105469 0.7660439999999997 C 2.939943033105469 0.5712119999999998 2.993079033105469 0.3365279999999998 3.041787033105469 0.20368799999999987 C 3.060606033105469 0.1505519999999998 3.1491660331054687 0.09630899999999987 3.175734033105469 0.09630899999999987 C 3.202302033105469 0.09630899999999987 3.2211210331054687 0.12398399999999987 3.2211210331054687 0.1428029999999998 C 3.2211210331054687 0.17933399999999988 3.088281033105469 0.6044219999999998 3.088281033105469 0.6819119999999997 C 3.088281033105469 0.7195499999999998 3.152487033105469 0.7870769999999998 3.1646640331054687 0.7870769999999998 C 3.183483033105469 0.7870769999999998 3.253224033105469 0.7372619999999998 3.253224033105469 0.7206569999999998 C 3.253224033105469 0.7106939999999998 3.2211210331054687 0.6785909999999998 3.2211210331054687 0.6641999999999998 C 3.2211210331054687 0.6044219999999998 3.358389033105469 0.16051499999999985 3.358389033105469 0.10848599999999986 C 3.358389033105469 0.05756399999999984 3.258759033105469 0.001106999999999858 3.2056230331054687 0.001106999999999858 C 3.1646640331054687 0.001106999999999858 3.094923033105469 0.061991999999999825 3.060606033105469 0.09520199999999979 C 3.041787033105469 0.05424299999999982 2.9487990331054688 0.001106999999999858 2.900091033105469 0.001106999999999858 C 2.859132033105469 0.001106999999999858 2.788284033105469 0.06531299999999984 2.755074033105469 0.09630899999999987 C 2.744004033105469 0.05313599999999985 2.658765033105469 0.001106999999999858 2.613378033105469 0.001106999999999858 C 2.564670033105469 0.001106999999999858 2.444007033105469 0.08413199999999987 2.3753730331054688 0.13283999999999985 C 2.351019033105469 0.1505519999999998 2.296776033105469 0.2424329999999998 2.296776033105469 0.2712149999999999 C 2.296776033105469 0.2988899999999998 2.369838033105469 0.4073759999999998 2.391978033105469 0.4073759999999998 C 2.409690033105469 0.4073759999999998 2.451756033105469 0.38191499999999984 2.451756033105469 0.3664169999999998 C 2.451756033105469 0.3509189999999998 2.4240810331054687 0.27564299999999986 2.4240810331054687 0.2501819999999998 M 3.8954557045898435 0.013283999999999851 C 3.8113237045898436 0.03763799999999984 3.6851257045898436 0.16162199999999982 3.6851257045898436 0.2225069999999998 C 3.6851257045898436 0.2612519999999998 3.7659367045898438 0.36198899999999984 3.7880767045898436 0.36198899999999984 C 3.8057887045898435 0.36198899999999984 3.8478547045898437 0.33431399999999983 3.8478547045898437 0.3188159999999998 C 3.8478547045898437 0.3033179999999998 3.8102167045898434 0.23246999999999984 3.8102167045898434 0.20700899999999978 C 3.8102167045898434 0.1782269999999998 3.8478547045898437 0.11955599999999988 3.8799577045898435 0.1106999999999998 C 3.9087397045898435 0.10295099999999979 3.979587704589844 0.0985229999999998 4.040472704589844 0.0985229999999998 C 4.093608704589844 0.0985229999999998 4.141209704589843 0.10627199999999981 4.1633497045898435 0.11180699999999988 C 4.192131704589843 0.11955599999999988 4.255230704589843 0.17158499999999988 4.255230704589843 0.20811599999999986 C 4.255230704589843 0.30221099999999984 4.125711704589843 0.4029479999999998 4.0703617045898435 0.4162319999999998 C 4.0548637045898435 0.4206599999999998 4.030509704589844 0.4250879999999998 4.001727704589843 0.4295159999999998 C 4.021653704589844 0.3553469999999998 4.040472704589844 0.28671299999999983 4.049328704589843 0.26014499999999985 C 4.059291704589843 0.2302559999999998 4.086966704589844 0.18818999999999986 4.086966704589844 0.17933399999999988 C 4.086966704589844 0.16494299999999984 4.011690704589844 0.12066299999999985 3.9895507045898437 0.12066299999999985 C 3.9773737045898434 0.12066299999999985 3.9330937045898438 0.1859759999999998 3.9231307045898434 0.22361399999999987 L 3.8622457045898435 0.4516559999999998 L 3.7980397045898435 0.4627259999999998 C 3.7902907045898435 0.4649399999999998 3.7869697045898434 0.4682609999999998 3.7869697045898434 0.4771169999999998 C 3.7869697045898434 0.4892939999999998 3.8168587045898437 0.5424299999999997 3.8323567045898437 0.5424299999999997 L 3.8378917045898437 0.5424299999999997 L 3.8091097045898437 0.6420599999999999 C 3.7980397045898435 0.6752699999999998 3.7437967045898435 0.7184429999999998 3.7437967045898435 0.7272989999999998 C 3.7437967045898435 0.7450109999999998 3.8102167045898434 0.7870769999999998 3.8334637045898434 0.7870769999999998 C 3.8578177045898436 0.7870769999999998 3.9142747045898436 0.7228709999999998 3.9319867045898436 0.6808049999999998 C 3.9375217045898436 0.6675209999999998 3.9563407045898433 0.5999939999999998 3.9773737045898434 0.5225039999999999 C 4.0294027045898435 0.5136479999999999 4.080324704589843 0.5047919999999998 4.107999704589844 0.4992569999999998 C 4.177740704589843 0.4859729999999998 4.377000704589843 0.3409559999999998 4.377000704589843 0.24132599999999982 C 4.377000704589843 0.13283999999999985 4.247481704589844 0.03320999999999985 4.182168704589843 0.013283999999999851 C 4.148958704589844 0.0033209999999997963 4.088073704589844 0.001106999999999858 4.0393657045898435 0.001106999999999858 C 3.9851227045898434 0.001106999999999858 3.9231307045898434 0.005534999999999846 3.8954557045898435 0.013283999999999851 M 5.003109094042968 0.4483349999999998 C 5.017500094042969 0.4483349999999998 5.0352120940429685 0.4051619999999998 5.0352120940429685 0.39409199999999983 C 5.0352120940429685 0.3874499999999998 5.0296770940429685 0.38412899999999983 5.025249094042969 0.38412899999999983 L 4.986504094042969 0.38412899999999983 C 5.008644094042968 0.30221099999999984 5.034105094042968 0.21918599999999977 5.052924094042969 0.15719399999999983 C 5.061780094042969 0.12730499999999978 5.110488094042968 0.07306199999999985 5.110488094042968 0.0630989999999998 C 5.110488094042968 0.04649399999999981 5.054031094042968 0.001106999999999858 5.0352120940429685 0.001106999999999858 C 5.028570094042968 0.001106999999999858 5.002002094042968 0.022139999999999826 4.977648094042968 0.04649399999999981 C 4.964364094042969 0.03431699999999982 4.920084094042968 0.001106999999999858 4.903479094042969 0.001106999999999858 C 4.852557094042969 0.001106999999999858 4.734108094042969 0.061991999999999825 4.707540094042969 0.10516499999999984 C 4.6854000940429685 0.14169599999999982 4.624515094042969 0.26346599999999987 4.563630094042969 0.38412899999999983 L 4.427469094042968 0.38412899999999983 C 4.413078094042969 0.38412899999999983 4.394259094042969 0.4273019999999998 4.394259094042969 0.4383719999999998 C 4.394259094042969 0.4450139999999998 4.399794094042969 0.4483349999999998 4.405329094042969 0.4483349999999998 L 4.532634094042969 0.4483349999999998 C 4.487247094042969 0.5391089999999998 4.445181094042969 0.6210269999999998 4.425255094042969 0.6553439999999998 C 4.408650094042969 0.6841259999999998 4.383189094042969 0.7040519999999998 4.367691094042969 0.7040519999999998 C 4.342230094042969 0.7040519999999998 4.262526094042968 0.5889239999999998 4.237065094042968 0.5402159999999998 C 4.233744094042969 0.5335739999999998 4.228209094042969 0.5291459999999998 4.219353094042969 0.5291459999999998 C 4.194999094042969 0.5291459999999998 4.130793094042969 0.5822819999999997 4.130793094042969 0.5999939999999998 C 4.130793094042969 0.6332039999999998 4.2946290940429686 0.7870769999999998 4.357728094042969 0.7870769999999998 C 4.4175060940429685 0.7870769999999998 4.528206094042969 0.7184429999999998 4.5514530940429685 0.6808049999999998 C 4.573593094042969 0.6442739999999998 4.618980094042969 0.5501789999999998 4.666581094042969 0.4483349999999998 L 4.833738094042968 0.4483349999999998 C 4.806063094042969 0.5523929999999998 4.785030094042969 0.6420599999999999 4.785030094042969 0.6719489999999998 C 4.785030094042969 0.7095869999999997 4.845915094042969 0.7870769999999998 4.859199094042968 0.7870769999999998 C 4.878018094042969 0.7870769999999998 4.955508094042969 0.7372619999999998 4.955508094042969 0.7206569999999998 C 4.955508094042969 0.7106939999999998 4.923405094042969 0.6785909999999998 4.923405094042969 0.6641999999999998 C 4.923405094042969 0.6298829999999997 4.943331094042969 0.5446439999999998 4.968792094042969 0.4483349999999998 M 4.937796094042969 0.09741599999999984 C 4.912335094042969 0.17490599999999978 4.880232094042968 0.2811779999999998 4.851450094042969 0.38412899999999983 L 4.696470094042969 0.38412899999999983 C 4.754034094042969 0.26014499999999985 4.810491094042969 0.1383749999999998 4.830417094042969 0.10516499999999984 C 4.838166094042968 0.09298799999999985 4.852557094042969 0.0830249999999998 4.865841094042969 0.0830249999999998 C 4.878018094042969 0.0830249999999998 4.927833094042969 0.09520199999999979 4.937796094042969 0.09741599999999984 M 5.363533159277344 0.013283999999999851 C 5.279401159277343 0.03763799999999984 5.153203159277344 0.16162199999999982 5.153203159277344 0.2225069999999998 C 5.153203159277344 0.2612519999999998 5.2340141592773435 0.36198899999999984 5.256154159277344 0.36198899999999984 C 5.273866159277344 0.36198899999999984 5.315932159277343 0.33431399999999983 5.315932159277343 0.3188159999999998 C 5.315932159277343 0.3033179999999998 5.278294159277344 0.23246999999999984 5.278294159277344 0.20700899999999978 C 5.278294159277344 0.1782269999999998 5.315932159277343 0.11955599999999988 5.348035159277344 0.1106999999999998 C 5.376817159277344 0.10295099999999979 5.447665159277344 0.0985229999999998 5.508550159277344 0.0985229999999998 C 5.561686159277344 0.0985229999999998 5.6092871592773434 0.10627199999999981 5.631427159277344 0.11180699999999988 C 5.660209159277343 0.11955599999999988 5.723308159277344 0.17158499999999988 5.723308159277344 0.20811599999999986 C 5.723308159277344 0.30221099999999984 5.593789159277343 0.4029479999999998 5.538439159277344 0.4162319999999998 C 5.522941159277344 0.4206599999999998 5.498587159277344 0.4250879999999998 5.469805159277343 0.4295159999999998 C 5.489731159277344 0.3553469999999998 5.508550159277344 0.28671299999999983 5.517406159277344 0.26014499999999985 C 5.5273691592773435 0.2302559999999998 5.555044159277344 0.18818999999999986 5.555044159277344 0.17933399999999988 C 5.555044159277344 0.16494299999999984 5.479768159277343 0.12066299999999985 5.457628159277344 0.12066299999999985 C 5.445451159277344 0.12066299999999985 5.401171159277344 0.1859759999999998 5.391208159277344 0.22361399999999987 L 5.330323159277344 0.4516559999999998 L 5.266117159277344 0.4627259999999998 C 5.258368159277344 0.4649399999999998 5.255047159277344 0.4682609999999998 5.255047159277344 0.4771169999999998 C 5.255047159277344 0.4892939999999998 5.284936159277343 0.5424299999999997 5.300434159277343 0.5424299999999997 L 5.3059691592773435 0.5424299999999997 L 5.277187159277344 0.6420599999999999 C 5.266117159277344 0.6752699999999998 5.211874159277344 0.7184429999999998 5.211874159277344 0.7272989999999998 C 5.211874159277344 0.7450109999999998 5.278294159277344 0.7870769999999998 5.301541159277344 0.7870769999999998 C 5.325895159277343 0.7870769999999998 5.382352159277343 0.7228709999999998 5.400064159277344 0.6808049999999998 C 5.405599159277344 0.6675209999999998 5.4244181592773435 0.5999939999999998 5.445451159277344 0.5225039999999999 C 5.497480159277344 0.5136479999999999 5.548402159277344 0.5047919999999998 5.576077159277344 0.4992569999999998 C 5.6458181592773435 0.4859729999999998 5.845078159277343 0.3409559999999998 5.845078159277343 0.24132599999999982 C 5.845078159277343 0.13283999999999985 5.715559159277344 0.03320999999999985 5.650246159277343 0.013283999999999851 C 5.617036159277344 0.0033209999999997963 5.556151159277344 0.001106999999999858 5.507443159277344 0.001106999999999858 C 5.453200159277344 0.001106999999999858 5.391208159277344 0.005534999999999846 5.363533159277344 0.013283999999999851 M 6.072670872949219 0.7084799999999998 C 6.026176872949219 0.7084799999999998 5.9818968729492195 0.6597719999999998 5.9818968729492195 0.6243479999999998 C 5.9818968729492195 0.5534999999999998 6.0903828729492195 0.4627259999999998 6.1877988729492195 0.3974129999999998 C 6.2032968729492195 0.3874499999999998 6.213259872949219 0.3774869999999998 6.213259872949219 0.3653099999999998 C 6.213259872949219 0.34206299999999984 6.171193872949219 0.3110669999999998 6.135769872949219 0.3110669999999998 C 6.1313418729492195 0.3110669999999998 6.128020872949219 0.3110669999999998 6.123592872949219 0.31217399999999984 C 6.1158438729492195 0.31217399999999984 6.078205872949219 0.27232199999999984 6.078205872949219 0.2380049999999998 C 6.078205872949219 0.16937099999999983 6.18890587294922 0.07527599999999979 6.222115872949219 0.07527599999999979 C 6.240934872949219 0.07527599999999979 6.266395872949219 0.09520199999999979 6.266395872949219 0.1106999999999998 C 6.266395872949219 0.12730499999999978 6.2497908729492195 0.15719399999999983 6.232078872949219 0.19372499999999981 C 6.2287578729492195 0.20036699999999985 6.227650872949219 0.20479499999999984 6.227650872949219 0.2103299999999998 C 6.227650872949219 0.22472099999999984 6.273037872949219 0.25682399999999983 6.2907498729492195 0.25682399999999983 C 6.29628487294922 0.25682399999999983 6.299605872949219 0.2546099999999998 6.307354872949219 0.2457539999999998 C 6.3372438729492195 0.20811599999999986 6.371560872949219 0.14723099999999978 6.371560872949219 0.12287699999999979 C 6.371560872949219 0.07306199999999985 6.2652888729492195 0.001106999999999858 6.185584872949219 0.001106999999999858 C 6.108094872949219 0.001106999999999858 5.947579872949219 0.13394699999999982 5.947579872949219 0.21697199999999983 C 5.947579872949219 0.27674999999999983 6.027283872949219 0.3332069999999998 6.052744872949219 0.3487049999999998 C 5.96750587294922 0.4051619999999998 5.852377872949219 0.5003639999999998 5.852377872949219 0.5966729999999998 C 5.852377872949219 0.6708419999999998 5.9818968729492195 0.7870769999999998 6.1003458729492195 0.7870769999999998 C 6.133555872949219 0.7870769999999998 6.192226872949219 0.7771139999999997 6.213259872949219 0.7571879999999998 C 6.248683872949219 0.7239779999999998 6.271930872949219 0.6808049999999998 6.295177872949219 0.6420599999999999 C 6.30181987294922 0.6309899999999998 6.3062478729492195 0.6210269999999998 6.3062478729492195 0.6121709999999998 C 6.3062478729492195 0.5988869999999997 6.263074872949219 0.5656769999999998 6.2497908729492195 0.5656769999999998 C 6.238720872949219 0.5656769999999998 6.233185872949219 0.5723189999999998 6.225436872949219 0.5811749999999998 C 6.17340787294922 0.6464879999999997 6.12137887294922 0.7084799999999998 6.072670872949219 0.7084799999999998 M 6.714308612988282 0.6752699999999998 C 6.720950612988283 0.6597719999999998 6.7408766129882824 0.5844959999999998 6.764123612988282 0.4959359999999998 L 6.832757612988282 0.4826519999999998 C 6.857111612988282 0.5147549999999999 6.865967612988282 0.6487019999999998 6.893642612988282 0.7239779999999998 C 6.906926612988282 0.7616159999999997 6.982202612988282 0.7870769999999998 7.002128612988282 0.7870769999999998 C 7.020947612988282 0.7870769999999998 7.066334612988282 0.7394759999999998 7.066334612988282 0.7272989999999998 C 7.066334612988282 0.7151219999999998 7.030910612988282 0.7029449999999998 7.017626612988282 0.6785909999999998 C 6.9777746129882825 0.6055289999999998 6.963383612988282 0.5114339999999997 6.927959612988282 0.4571909999999998 C 7.012091612988282 0.4162319999999998 7.157108612988282 0.29446199999999983 7.157108612988282 0.21475799999999978 C 7.157108612988282 0.10959299999999983 7.029803612988282 0.025460999999999845 6.960062612988282 0.009962999999999833 C 6.925745612988282 0.0022139999999998272 6.858218612988282 0.001106999999999858 6.808403612988283 0.001106999999999858 C 6.755267612988282 0.001106999999999858 6.6899546129882825 0.005534999999999846 6.662279612988282 0.013283999999999851 C 6.578147612988282 0.03763799999999984 6.440879612988282 0.16162199999999982 6.440879612988282 0.2225069999999998 C 6.440879612988282 0.2612519999999998 6.521690612988282 0.36198899999999984 6.543830612988282 0.36198899999999984 C 6.561542612988283 0.36198899999999984 6.603608612988282 0.33431399999999983 6.603608612988282 0.3188159999999998 C 6.603608612988282 0.3033179999999998 6.565970612988282 0.23246999999999984 6.565970612988282 0.20700899999999978 C 6.565970612988282 0.1782269999999998 6.614678612988282 0.12066299999999985 6.646781612988282 0.11180699999999988 C 6.675563612988282 0.10516499999999984 6.749732612988282 0.0985229999999998 6.809510612988282 0.0985229999999998 C 6.863753612988282 0.0985229999999998 6.924638612988282 0.10295099999999979 6.955634612988282 0.1106999999999998 C 6.975560612988282 0.11623499999999987 7.027589612988282 0.1428029999999998 7.027589612988282 0.19593899999999986 C 7.027589612988282 0.2701079999999998 6.925745612988282 0.37195199999999984 6.872609612988282 0.3852359999999998 C 6.853790612988282 0.3907709999999998 6.788477612988282 0.40405499999999983 6.788477612988282 0.40405499999999983 C 6.806189612988282 0.3398489999999998 6.821687612988282 0.2833919999999998 6.829436612988282 0.26014499999999985 C 6.839399612988283 0.2302559999999998 6.867074612988282 0.18818999999999986 6.867074612988282 0.17933399999999988 C 6.867074612988282 0.16494299999999984 6.791798612988282 0.12066299999999985 6.769658612988282 0.12066299999999985 C 6.757481612988282 0.12066299999999985 6.713201612988282 0.1859759999999998 6.703238612988282 0.22361399999999987 C 6.695489612988283 0.2546099999999998 6.672242612988282 0.34206299999999984 6.647888612988282 0.4295159999999998 L 6.594752612988282 0.4383719999999998 C 6.582575612988282 0.4405859999999998 6.578147612988282 0.4461209999999998 6.578147612988282 0.45386999999999983 C 6.578147612988282 0.4671539999999998 6.608036612988283 0.5180759999999998 6.624641612988282 0.5180759999999998 C 6.608036612988283 0.5800679999999998 6.593645612988282 0.6298829999999997 6.589217612988282 0.6420599999999999 C 6.5814686129882825 0.6653069999999998 6.531653612988282 0.7040519999999998 6.531653612988282 0.7184429999999998 C 6.531653612988282 0.7328339999999998 6.603608612988282 0.7870769999999998 6.614678612988282 0.7870769999999998 C 6.626855612988282 0.7870769999999998 6.696596612988282 0.7173359999999998 6.714308612988282 0.6752699999999998" fill="#000000" fill-rule="nonzero"></path></g><g></g><g clip-path="url(#SvgjsClipPath1001)"><g clip-path="url(#a75ba1082-1d40-446f-b4a9-f8548353a24aa6faa732-9666-4bb9-b952-e9ef87ce211a)"><path d=" M -0.779520383210178 1.2289012572099682 C -0.7757359648608984 1.227249874657555 -0.7721579693306699 1.225598492105142 -0.7688552042258441 1.2236718791273267 C -0.7609361554533978 1.2192487415954514 -0.7554835487559943 1.2114375654894032 -0.7540615688604775 1.20247913637136 C -0.7536487232223745 1.2003461005744935 -0.753373492796972 1.1978690267458736 -0.7531670699779207 1.1953231453109037 C -0.77501047574277 1.1965019448079046 -0.7967810217810847 1.1987754511979818 -0.8183966807982359 1.2021350983396075 L -0.7954149402771531 1.2381214764609407 C -0.7903231774072128 1.234337058111661 -0.7848873765055204 1.2312407158258865 -0.779520383210178 1.2289012572099682" fill="#51a8db" transform="matrix(1,0,0,1,0,0)" fill-rule="nonzero"></path></g><g clip-path="url(#a75ba1082-1d40-446f-b4a9-f8548353a24aa6faa732-9666-4bb9-b952-e9ef87ce211a)"><path d=" M -1.125485027940701 1.3609430537966574 L -1.0436727839899071 1.5514025081749565 C -1.042640669894649 1.5509208549305027 -1.0415397481930404 1.5505080092923997 -1.0405076340977821 1.549957548441595 C -1.0178011240021034 1.5390171390318594 -0.9955074595445281 1.527319845952267 -0.9736266407250558 1.5150720920218703 C -0.9677091865789091 1.5117693269170445 -0.9619293476454638 1.5083289465995178 -0.9560807011056678 1.504957373888341 C -0.9362641104767118 1.4935353112341512 -0.9167915578795087 1.481700402941858 -0.8976630433140578 1.46924622619241 L -0.8900253990091476 1.4642920785351705 C -0.8426169582336245 1.4329158100393238 -0.7973415532549684 1.3985120068640533 -0.7544744144985809 1.36128709182841 L -0.8523876383354017 1.207777322060352 C -0.987112931569762 1.2367453243339301 -1.0742921688158982 1.3052777002590694 -1.125485027940701 1.3609430537966574" fill="#51a8db" transform="matrix(1,0,0,1,0,0)" fill-rule="nonzero"></path></g><g clip-path="url(#a75ba1082-1d40-446f-b4a9-f8548353a24aa6faa732-9666-4bb9-b952-e9ef87ce211a)"><path d=" M -1.1790173456814224 1.4370442664203564 C -1.1753705425448437 1.4382139957283158 -1.1696595112177488 1.4388332641854709 -1.1612649832429827 1.4382139957283158 C -1.1529392628745672 1.4375947272711607 -1.1421364686775322 1.4351176534425412 -1.1298887147471357 1.4310580046678594 L -1.148466768461782 1.387778020273369 C -1.160656414466524 1.4029846945022346 -1.1716525059498395 1.4191107617193983 -1.1813568042973408 1.4360121523250984 C -1.1806208945214054 1.4364481762365393 -1.1798355038212236 1.4367946721336782 -1.1790173456814224 1.4370442664203564" fill="#51a8db" transform="matrix(1,0,0,1,0,0)" fill-rule="nonzero"></path></g><g clip-path="url(#a75ba1082-1d40-446f-b4a9-f8548353a24aa6faa732-9666-4bb9-b952-e9ef87ce211a)"><path d=" M -1.2617240885147734 -0.03770916049080064 C -1.1938797886531396 -0.04218165490358583 -1.1686273971224908 0.07128208796845725 -1.136631860169489 0.21467713960298584 C -1.1215629943787202 0.28217740143286707 -1.1059436677371473 0.3519483142723163 -1.0849573478002323 0.4133246991369992 C -1.0619067996728009 0.4804809229351277 -1.0371360613866059 0.5296783614757652 -1.0152552425671337 0.5730271534766063 C -0.9769982134362325 0.6490595584939545 -0.9467228666419942 0.7091285988379774 -0.9467228666419942 0.8183262701162868 C -0.9467228666419942 0.8393125900532019 -0.9427320254736626 0.8608493708409215 -0.9360576876576601 0.8823173440222905 C -0.9352319963814537 0.8821109212032388 -0.9345439203179482 0.8816292679587849 -0.9336494214353914 0.8814916527460839 C -0.7464927321619181 0.8555511851519295 -0.6549098081093474 0.7498627017974979 -0.6315840295565143 0.7186928561207024 C -0.659451110128483 0.6822936323612658 -0.767823090130586 0.5404811556728 -0.9231218576637583 0.3370858713005993 C -1.0892234193939658 0.11951622002018669 -1.1185354596992965 -0.2821825858542748 -1.123420799750185 -0.3884903376658615 C -1.1822513031798978 -0.3582149908716231 -1.344637254167176 -0.2830082771304814 -1.5077112812179596 -0.2803247804828102 C -1.6752578026815284 -0.277641283835139 -1.8850521944443293 -0.19032443137630173 -2.0832869083402397 -0.04066788756387385 C -2.225787461092211 0.06687840116202248 -2.3709715104918536 0.10314000970875781 -2.4192056425435835 0.1127730745978337 C -2.404205584359165 0.18261279504363337 -2.332508058541901 0.47229281777941345 -2.1440440247477675 0.6689449567292611 C -1.9528276866996126 0.8684870151458317 -1.896818295130272 1.125277002046053 -1.8840888879554216 1.2002772929681427 C -1.7073221472408806 1.1234191966745881 -1.5573215653966999 1.0982356127502897 -1.4799818158586913 1.0899786999882248 C -1.551748149282306 1.0592216999495327 -1.6336292008394504 1.012776565662917 -1.7078038004853342 0.9420423463345604 C -1.8312446462782055 0.8245189546878353 -1.9226211475117247 0.7553673103055414 -1.966107554725267 0.7245415026604987 C -1.9899162178797676 0.7077472273150021 -1.995668211922553 0.6748655073591858 -1.9789745771128184 0.6509861714717697 C -1.961153407068028 0.6256649723347705 -1.920350496502157 0.5890593257562824 -1.8471392033451808 0.6275915853125857 C -1.8078500601190215 0.6481650596113977 -1.7630563083848192 0.6760321401833669 -1.7235607423396082 0.7006652632568606 C -1.6859917892722123 0.7240598494160448 -1.6411292299316595 0.7519957375943649 -1.6176658361661247 0.762179263334245 C -1.6392714245601947 0.7084405227744719 -1.747574596955947 0.5406875784918519 -1.8538135411611834 0.40685678414004856 C -1.968378205734835 0.2624296184102617 -1.9525524562742105 0.22479185773651555 -1.9265431810737057 0.1986449673233095 C -1.9159681372017963 0.18679887045189325 -1.9004718264353275 0.18056472244239452 -1.8846393488062259 0.18178710376742702 C -1.8387446753704146 0.1853650992976552 -1.774134333007256 0.24839286671475125 -1.6812440644340252 0.38009062526968784 C -1.6240649435567251 0.46121479315697633 -1.5882161806480928 0.48419653367805715 -1.5761060419303976 0.48825618245273916 C -1.5765188875685008 0.48041211532877726 -1.58147303522574 0.46149002358237845 -1.6014960486737475 0.42887521817222174 C -1.6124364580834836 0.41091643291473035 -1.6274365162679016 0.3880723076063506 -1.6444319950364854 0.36213184001219645 C -1.7684233016801616 0.17325496057995982 -1.8736301317901394 -0.001241129125013618 -1.8004188386331632 -0.06027805537377817 C -1.789478429223427 -0.06915423659299802 -1.7744783710390089 -0.0787873014820738 -1.7550746260481564 -0.07486526792009307 C -1.7159919056410489 -0.06695239318978075 -1.6755330331069302 -0.007846659334665551 -1.5582160642792569 0.21240648859341782 C -1.5141103886085598 0.2952508466394699 -1.4769542811792675 0.34616847533887074 -1.457963381826518 0.3644712986281149 C -1.4591331111344772 0.354838233739039 -1.4623670686329524 0.33832440821490906 -1.4708304042140692 0.31066375046199135 C -1.4824588896873108 0.2728195669691933 -1.4982846391479352 0.23070931188266197 -1.5150048874911168 0.18612198296751115 C -1.5698445497524984 0.04018104989801241 -1.6216566773344563 -0.09770939322847283 -1.5464499635933142 -0.13149392794658876 C -1.5278719098786682 -0.13981964831500426 -1.5098443170148261 -0.14002607113405596 -1.492917645852593 -0.132044388797393 C -1.440830287845233 -0.10761768854295084 -1.413995321368522 -0.010736578801388341 -1.3879860461680171 0.08291057344169883 C -1.38199978441552 0.1046537770484699 -1.376151137875724 0.12564009698538503 -1.3703024913359279 0.14428695830638172 C -1.34388037049732 0.22885150651119734 -1.293306779829672 0.3405262516181262 -1.2679855806926728 0.37348509506003547 C -1.267613007570611 0.36607833298214976 -1.2677049311689552 0.358655502415846 -1.2682608111180749 0.3512602382088108 C -1.2710131153720965 0.3038517974332875 -1.2814718715373787 0.24880571235285442 -1.2915865896709084 0.1954798174311847 C -1.309820605353802 0.09963082178488025 -1.3255087396017253 0.016786463738828306 -1.2975728514234055 -0.01926872198885543 C -1.2889308229258651 -0.030405515236728076 -1.275809742857108 -0.03715493838150141 -1.2617240885147734 -0.03770916049080064" fill="#51a8db" transform="matrix(1,0,0,1,0,0)" fill-rule="nonzero"></path></g><g clip-path="url(#a75ba1082-1d40-446f-b4a9-f8548353a24aa6faa732-9666-4bb9-b952-e9ef87ce211a)"><path d=" M -2.267347255327938 -0.42888040259362925 C -2.2830353895758613 -0.3896600669738206 -2.3143428504653576 -0.3414947425284416 -2.376476118999897 -0.3065404785023663 C -2.3275811617908175 -0.27802685692080065 -2.2896092038725224 -0.2340006965282876 -2.2685857922422477 -0.18144825015708177 C -2.2533105036324277 -0.22115023902134423 -2.2222094655619826 -0.27089813841278576 -2.158562429687732 -0.306746901321418 C -2.220489275403219 -0.34170116534749306 -2.2516591210800145 -0.38972887458017114 -2.267347255327938 -0.42888040259362925" fill="#51a8db" transform="matrix(1,0,0,1,0,0)" fill-rule="nonzero"></path></g><g clip-path="url(#a75ba1082-1d40-446f-b4a9-f8548353a24aa6faa732-9666-4bb9-b952-e9ef87ce211a)"><path d=" M -2.345306273323102 1.0596345455876361 C -2.326701269869338 1.014056492128891 -2.2932070897427996 0.9761239086981117 -2.250282968953004 0.9520194492553893 C -2.2923023875797206 0.9284368630664575 -2.3253109846745956 0.8915804896240127 -2.3441365440151425 0.8472254647835142 C -2.36299954161789 0.8917355014312445 -2.396140456038784 0.9287012985975742 -2.438334157109034 0.9522946796807914 C -2.3966750526208638 0.9772427708194562 -2.364079993355441 1.0148524545872515 -2.345306273323102 1.0596345455876361" fill="#51a8db" transform="matrix(1,0,0,1,0,0)" fill-rule="nonzero"></path></g><g clip-path="url(#a75ba1082-1d40-446f-b4a9-f8548353a24aa6faa732-9666-4bb9-b952-e9ef87ce211a)"><path d=" M -0.7758735800735996 1.1644973376658616 C -0.8378004257890872 1.1054604114170965 -0.9785119807759446 0.9562167132427721 -0.9785119807759446 0.8182574625099361 C -0.9785119807759446 0.7166286279301866 -1.0072047526241203 0.6595183146592369 -1.0436727839899074 0.5872703279911684 C -1.065966448447483 0.5430270371077703 -1.0912876475844822 0.49279748447187477 -1.1149574641690683 0.4236458400895804 C -1.1365630525631383 0.36054926506613394 -1.152388802023763 0.2898838533441279 -1.1675952830272325 0.22155790023804012 C -1.191677945249922 0.11366757348039092 -1.2183752965139323 -0.009498041887078257 -1.2597286679306077 -0.0060576615695514535 C -1.2670910818101155 -0.005576008325097526 -1.2703938469149416 -0.0024796660393234804 -1.272458075105458 0.00013502300199719208 C -1.291655397277259 0.024905761288192108 -1.2750727641467785 0.11236022895973052 -1.2604167439941132 0.18956236328503806 C -1.2500956030415318 0.243782757089265 -1.2394304240571978 0.29992976387130676 -1.2365405045904754 0.34933362523099554 C -1.2347515068253612 0.38015943287603804 -1.2360588513460213 0.40919624275596655 -1.2580772853781947 0.41318708392429815 C -1.3114031802998645 0.42398987812133315 -1.3998209544603104 0.15646590463042775 -1.4006466457365168 0.1537136003764059 C -1.4065640998826636 0.13472270102365647 -1.41248155402881 0.113461150661339 -1.4186054309940082 0.09137390902281539 C -1.4404174422071299 0.012726814964146405 -1.4675276391092433 -0.08504879365997331 -1.5064727443036496 -0.10335161694921724 C -1.5148672722784156 -0.10734245811754861 -1.523399415465883 -0.1070672276921465 -1.5335141335994125 -0.10252592567301078 C -1.5814042276193896 -0.0809891448852913 -1.5281471403040703 0.060892139409525425 -1.485280001547683 0.17490634313237252 C -1.4683533303854495 0.21990651768562697 -1.452389965712124 0.2624984260166121 -1.4404862498134805 0.3013059159983176 C -1.4208760820035762 0.365296989904321 -1.421013697216277 0.39343930090169277 -1.440967903057934 0.40169621366375763 C -1.4761285899030607 0.4166962718481757 -1.5395003953519095 0.3149986296620755 -1.5862207600639273 0.2272689315651346 C -1.6753266102878785 0.05999764052696843 -1.7325057311651786 -0.03791558330985234 -1.7614049258324063 -0.04383303745599909 C -1.765051728968985 -0.04452111351950461 -1.7699370690198732 -0.04410826788140121 -1.780464632791506 -0.03564493230028454 C -1.8372997156370534 0.010249741135526791 -1.6890881315579869 0.23614511278435457 -1.6178722589851762 0.34465470799915865 C -1.600670357397541 0.3709392136250653 -1.5855326840004218 0.393989761752497 -1.5743858517716343 0.4122237774353903 C -1.5326884423232061 0.48020569250972533 -1.5419086615741786 0.5062837753165808 -1.556977527364947 0.5161920706310588 C -1.5995694356959322 0.5441279588093784 -1.6826890241673866 0.43307248215960437 -1.7071845320281793 0.39839344855893155 C -1.812597784957209 0.24887451995920462 -1.8632401832312073 0.2152964080601405 -1.8871164226348456 0.21343860268867587 C -1.8927652958824497 0.2128099843556044 -1.8983720207657215 0.2149349074848812 -1.9021852884256143 0.2191496340157708 C -1.9134697358671031 0.23050288906361005 -1.935556977505627 0.2526589383084845 -1.8289051876622875 0.3870401935110921 C -1.7406250287145426 0.49830209297991757 -1.5736289681017783 0.7383030239306068 -1.5825051493209983 0.7813077778996953 C -1.5841197207609627 0.7869203035936223 -1.587649970436428 0.7917896134908162 -1.592482252241827 0.7950692991698036 C -1.6120236124453806 0.8056656705477869 -1.6445696102491867 0.7872252320458417 -1.7403497982891405 0.7275690373399224 C -1.7793637110898977 0.7032799522981812 -1.8236758095796464 0.6756881021516139 -1.861864031104197 0.6555962810972558 C -1.8783778566283267 0.6469953303034381 -1.8931026843873426 0.642660451103354 -1.9062449372002963 0.642660451103354 C -1.9250294137339938 0.642660451103354 -1.940511125162866 0.6514678247162233 -1.9530341095186645 0.6692201871546632 C -1.9596765042983502 0.6787982446704297 -1.9573055163317619 0.6919464506669633 -1.9477359238296725 0.6986010350663443 C -1.903561440552625 0.72983968834949 -1.8107399795857444 0.8000234468270426 -1.685922981665862 0.9189917982071287 C -1.5829179949591012 1.017111444863001 -1.4636056055472624 1.0674098051052467 -1.3815869387774167 1.092318158604143 C -1.323270460585158 1.1100443756123892 -1.2766829897222094 1.1541597542030695 -1.255806634368627 1.2114241251969309 L -1.194980710354748 1.3976863155878465 C -1.1510814575031028 1.332181474342131 -1.0257828063387664 1.1850708119646731 -0.7758735800735996 1.1644973376658616" fill="#3361e1" transform="matrix(1,0,0,1,0,0)" fill-rule="nonzero"></path></g><g clip-path="url(#a75ba1082-1d40-446f-b4a9-f8548353a24aa6faa732-9666-4bb9-b952-e9ef87ce211a)"><path d=" M -0.8014012020296506 -0.12839758566081438 C -0.8202725042762924 -0.08391027160474807 -0.8534132457567889 -0.04696887533065186 -0.8955988151235417 -0.023397178369887972 C -0.8539411101887078 0.0015836632659896877 -0.8213488578077208 0.03921421501652311 -0.8025709313376095 0.08401149514330752 C -0.783965927883846 0.0384334416845622 -0.7504717477573073 0.0005008582537828765 -0.7075476269675121 -0.02360360118893956 C -0.7495670455942287 -0.04718618737787128 -0.7825756426891037 -0.08404256082031625 -0.8014012020296506 -0.1283975856608145" fill="#51a8db" transform="matrix(1,0,0,1,0,0)" fill-rule="nonzero"></path></g><g clip-path="url(#a75ba1082-1d40-446f-b4a9-f8548353a24aa6faa732-9666-4bb9-b952-e9ef87ce211a)"><path d=" M -0.7791763451784255 -0.6067480650097792 C -1.009804545779843 -0.7974003942866312 -1.299790850979053 -0.9014936739624196 -1.599018974845129 -0.9010381973710455 C -1.8964958996798145 -0.9014433421657395 -2.184878347405612 -0.7985138896249977 -2.414870763343499 -0.6098444072955536 C -2.4801231702327504 -0.5564607620363442 -2.540016682287862 -0.4968437879360849 -2.5937017322485567 -0.43183912966670246 C -2.7843540615254088 -0.20121092906528515 -2.888447341201197 0.0887753761339245 -2.887991864609823 0.3880035000000004 C -2.887991864609823 0.6993579187362005 -2.7775556564172037 0.9849782926972985 -2.5937017322485567 1.207777322060352 C -2.5398676149917447 1.272976746726451 -2.479788029635773 1.3327567407476983 -2.4143203024926967 1.3862642529336553 C -2.184411075181851 1.5746453652339916 -1.8962487187275971 1.6773954670163553 -1.5990189748451284 1.6769763897646943 C -1.4915414937255822 1.6769763897646943 -1.387229162498161 1.6636277141326892 -1.2873893256835252 1.6388569758464941 L -1.2728709207435611 1.6352789803162666 C -1.2595910527179066 1.6317697923923886 -1.2465176075113036 1.627916566436758 -1.2334441623047006 1.6240633404811284 C -1.2246367886918312 1.621448651439808 -1.2157606074726115 1.6189027700048373 -1.2070220414660926 1.6160816581444652 C -1.1971825537579652 1.6129165082523407 -1.187480681262539 1.609544935541164 -1.177710001160762 1.6061733628299877 C -1.1659439004748193 1.602044906448955 -1.1541089921825263 1.5979164500679228 -1.1424805067092845 1.593512763261488 C -1.1213160209283077 1.5854677099811456 -1.100368234091485 1.576863744960545 -1.079659162111235 1.5677099108800328 L -1.0725719786571346 1.56454476098791 L -1.1174345379976878 1.4601636221541383 C -1.1332464097917354 1.466197245595658 -1.14992939930945 1.46963607908956 -1.1668383993573765 1.4703471478940184 C -1.1782443879916942 1.4708492140598712 -1.1895639752007918 1.4681563438396015 -1.1995220123738837 1.4625718883764074 C -1.2068246237504408 1.4578477202394937 -1.211872700998457 1.4503377728064841 -1.2134899564630437 1.4417919912585437 C -1.2136963792820952 1.4413103380140904 -1.214178032526549 1.4411039151950387 -1.2143156477392498 1.4406222619505848 L -1.2858067507374626 1.2216764585431619 C -1.303383479615148 1.1740732510300964 -1.3422450252499676 1.1374527381710726 -1.3908071580283892 1.122731120611083 C -1.3985136099396498 1.1203916619951648 -1.4068393303080655 1.1175705501347923 -1.4151650506764808 1.1148182458807707 C -1.41758485431028 1.116531557445856 -1.4204581335924553 1.1174893172065812 -1.4234219634385459 1.1175705501347923 C -1.425486191629062 1.1176393577411432 -1.6344548921156568 1.1222494673666292 -1.8900751497079185 1.2376398232164874 C -1.8946793975908551 1.2397696062297123 -1.9000255749053194 1.239563057727447 -1.904451776017015 1.2370843851048978 C -1.9088779771287103 1.2346057124823482 -1.9118476409770546 1.2301553899334408 -1.9124376217718444 1.225116838860689 C -1.9127816598035972 1.2220204965749148 -1.952896494305963 0.9142440733689423 -2.167025765268848 0.6908257755487339 C -2.3883110272921897 0.4599074486363164 -2.451132371890234 0.11724556901061955 -2.4536782533252044 0.1027271640706553 C -2.4544058938550437 0.09850688635016835 -2.453414813445594 0.09417090955882568 -2.4509259490711823 0.09068583295931032 C -2.448398282423046 0.08721439655131835 -2.4445786176393756 0.0849077158702709 -2.440329577693199 0.08428672556870986 C -2.438609387534436 0.08401149514330797 -2.2663151412326794 0.05758937430469979 -2.1024154229056897 -0.06605789430722331 C -1.9828278030684483 -0.15633347383913387 -1.7466112904670394 -0.3083294762674802 -1.5082617420687634 -0.3121827022231104 C -1.3166325583825051 -0.3152790445088848 -1.1183290368802445 -0.4272290200412159 -1.1164024239024293 -0.42832994174282457 C -1.1115170838515407 -0.4310822459968463 -1.1055308220990436 -0.4311510536031967 -1.1006454820481553 -0.4283987493491751 C -1.095802644276907 -0.4256057962526908 -1.092755190766451 -0.42050066045739654 -1.0925949921051419 -0.4149124585044689 C -1.0925261844987912 -0.4099583108472299 -1.080003200142993 0.07919496269877002 -0.8978694661331095 0.3176821263097469 C -0.7166990386121332 0.5550683682191153 -0.599244454571759 0.708509330380823 -0.599244454571759 0.708509330380823 C -0.5953014376017274 0.7137492650614861 -0.5949471486544295 0.7208622970033891 -0.5983499556892022 0.7264681156383144 C -0.6021343740384819 0.7326608002098629 -0.6934420676656501 0.8783953104603097 -0.9251860858542744 0.9121798451784258 C -0.870277615986542 1.0423638363936503 -0.7288779849361795 1.1644285300595112 -0.7268825643520134 1.1661487202182748 C -0.7248122379952799 1.1680640092498062 -0.7232716589746961 1.170481533251338 -0.7224100699392282 1.1731670960660294 L -0.721859609088424 1.1751625166501956 C -0.7217219938757227 1.175850592713701 -0.7213779558439701 1.1764698611708557 -0.7213091482376197 1.1771579372343612 C -0.7172494994629384 1.2359884406640738 -0.7481441147143313 1.2496811543278314 -0.7665845532162763 1.2579380670898967 C -0.7705480544135019 1.2593380976482897 -0.774264072598041 1.2613586825361327 -0.7775937702323632 1.2639243288423943 C -0.7778001930514145 1.2642683668741468 -0.7782130386895179 1.2643371744804972 -0.7784194615085696 1.2646812125122497 L -0.7302541370631905 1.3401631566787942 C -0.7144283876025659 1.3256447517388301 -0.6989466761736938 1.3107823087671127 -0.6838090027765751 1.2955070201572927 L -0.6775475105986759 1.288970297553991 C -0.6648181034238254 1.2759656599537388 -0.6522263114616766 1.262685791928084 -0.6400473651376304 1.2491306934770277 C -0.6363317543947011 1.245002237095995 -0.6328225664708236 1.2407361655022615 -0.6291757633342452 1.2365389015148789 C -0.6188546223816638 1.2248416084352864 -0.6086710966417832 1.2130067001429932 -0.5988316089336556 1.2008965614252982 C -0.5942214993081696 1.1951855300982033 -0.5897490048953844 1.189336883558407 -0.5852077028762488 1.1835570446249613 C -0.5767443672951322 1.1727542504279265 -0.5682810317140157 1.1619514562308912 -0.5601617341646516 1.150873431608454 C -0.5549323560820105 1.143717440547998 -0.5499094008184211 1.1364926418811907 -0.5448176379484808 1.129267843214384 C -0.5317138510103758 1.1110782123496457 -0.5192744257438964 1.0924190744499265 -0.5075239153064861 1.0733272592513916 C -0.5018816915857429 1.0644510780321739 -0.49630827547134926 1.0555060892066035 -0.49087247456965644 1.0464234851683323 C -0.48026679029556396 1.0285911559213803 -0.4700804680958375 1.0105127282335766 -0.46032189735001205 0.9922030913640985 C -0.4541980203848177 0.9806434134972146 -0.4482805662386711 0.969014928023973 -0.44243191969887485 0.9572488273380304 L -0.4326612395970981 0.9370193910709714 C -0.416883877776939 0.9037761848888972 -0.40260345630370287 0.8698429647322368 -0.38986290844705973 0.8353217488848668 L -0.3860784900977814 0.8248629927195883 C -0.37988580552623263 0.8075922835256022 -0.373899543773736 0.7902527667252659 -0.36839493526569234 0.7726380194995273 L -0.367225205957733 0.7687159859375465 C -0.3300690985284409 0.6483714824304494 -0.30997727747408277 0.5205269498311431 -0.30997727747408277 0.38800349999999995 C -0.30997727747408277 0.078369271422563 -0.419243756358743 -0.20566852759247245 -0.6011710675495747 -0.42791709610472173 C -0.6545725154124922 -0.49315342768508813 -0.7141878444330234 -0.5530452870296423 -0.7791763451784273 -0.606748065009781 M -2.3600311010821176 0.7806885094425406 C -2.359736419382362 0.7721029637119587 -2.3527268708651468 0.7652754813899958 -2.3441365440151425 0.7652067980136688 C -2.3355355932213246 0.7652067980136688 -2.3285172173735695 0.7720875586487228 -2.3282419869481674 0.7806885094425406 C -2.328104371735466 0.7850233886426248 -2.3238383001417326 0.888097182955736 -2.2085855595045754 0.9374322367090742 C -2.202736740625527 0.9399192049829268 -2.1989431052232287 0.9456638528778347 -2.1989524946155 0.9520194492553888 C -2.1989431052232287 0.958375045632943 -2.2027367406255265 0.9641196935278511 -2.2085855595045754 0.9666066618017037 C -2.3238383001417326 1.015941715555042 -2.328104371735466 1.1190155098681533 -2.3282419869481674 1.1233503890682373 C -2.328457251753085 1.1317453684908323 -2.335192150920035 1.138510468999338 -2.343586083164338 1.138763292890759 L -2.344136544015142 1.1388321004971094 C -2.3523538277476193 1.1388305539927 -2.3592152678142027 1.132565760888429 -2.3599622934757667 1.1243825031634958 C -2.36037513911387 1.1199100087507101 -2.371315548523606 1.0137398721518247 -2.4797563361320596 0.966606661801704 C -2.4856210341179317 0.964122910904617 -2.489425380732957 0.958365545363699 -2.489410359633493 0.9519965991909913 C -2.4893953385340293 0.9456276530182837 -2.48556387700839 0.9398882964588293 -2.4796875285257087 0.9374322367090742 C -2.364434787888552 0.888097182955736 -2.3600999086884675 0.7850233886426248 -2.360031101082117 0.7806885094425406 M -2.1163833669948495 -0.29222849638145376 C -2.246498550603724 -0.23656314284386548 -2.2513150830482616 -0.1201406728987493 -2.251452698260963 -0.11518652524151018 C -2.2516679630658802 -0.10679154581891537 -2.2584028622328303 -0.1000264453104096 -2.2667967944771332 -0.09977362141898904 L -2.267278447721587 -0.09977362141898904 C -2.275484225716583 -0.09973935242916121 -2.2823550389973324 -0.10598283058427738 -2.2831041971822117 -0.11415441114625224 C -2.283585850426666 -0.1192461740161922 -2.2959024119634126 -0.23904021667248487 -2.418311143661026 -0.29222849638145376 C -2.424115999647038 -0.29477297883782816 -2.427854358148609 -0.30052293870097224 -2.4278244620687297 -0.3068609076353819 C -2.42779456598885 -0.31319887656979184 -2.424002130142414 -0.31891331381808663 -2.418173528448325 -0.32140292147408334 C -2.2880583448394507 -0.3770682750116714 -2.2833106200012634 -0.4934907449567877 -2.2831730047885626 -0.4984448926140267 C -2.2831730047885626 -0.5072042133916024 -2.2760721723023383 -0.5143050458778264 -2.2673128515247627 -0.5143050458778264 C -2.2585535307471867 -0.5143050458778264 -2.251452698260963 -0.5072042133916024 -2.251452698260963 -0.4984448926140267 C -2.2513150830482616 -0.4934907449567877 -2.246498550603724 -0.3770682750116714 -2.1163833669948495 -0.3214029214740832 C -2.110512878831405 -0.318932985230175 -2.1066950091722987 -0.3131846347654683 -2.1066950091722987 -0.30681570892776844 C -2.1066950091722987 -0.3004467830900688 -2.110512878831405 -0.2946984326253619 -2.1163833669948495 -0.29222849638145376 M -0.6561483450236572 -0.02360360118893956 C -0.6561571584553958 -0.017253472377536827 -0.6599447670236813 -0.011517950831275936 -0.6657814099127322 -0.009016388642625217 C -0.7811029581562408 0.04024985750436283 -0.7853690297499742 0.14332365181747408 -0.7855066449626751 0.14772733862390908 C -0.7857219097675929 0.15612231804650367 -0.792456808934543 0.16288741855500932 -0.8008507411788459 0.16314024244643033 L -0.8014012020296506 0.16314024244643033 C -0.8095944621409488 0.1631420160538366 -0.8164466411771696 0.15691547075570522 -0.8172269514902748 0.14875945271916713 C -0.8176397971283782 0.1442181507000313 -0.8285802065381143 0.038116821707496196 -0.9370209941465677 -0.009085196248975302 C -0.9428186572731012 -0.011621979088875967 -0.9465704018041281 -0.01734406427288837 -0.946585251429293 -0.0236724087952902 C -0.946585251429293 -0.030002708579540016 -0.9427320254736626 -0.035713739906634956 -0.9369521865402173 -0.03825962134160488 C -0.82169944590306 -0.0875258674885927 -0.8173645667029761 -0.19059966180170396 -0.8172957590966252 -0.1950033486081385 C -0.8172957590966252 -0.20378167008154424 -0.8101795235030562 -0.21089790567511368 -0.8014012020296506 -0.21089790567511368 C -0.7926228805562445 -0.21089790567511368 -0.7855066449626751 -0.20378167008154424 -0.7855066449626751 -0.1950033486081385 C -0.7853690297499742 -0.19059966180170396 -0.7811029581562408 -0.0875258674885927 -0.6658502175190835 -0.03825962134160488 C -0.6599636128356532 -0.03576936235220862 -0.6561413276487267 -0.029995271963447645 -0.6561483450236572 -0.02360360118893956" fill="#51a8db" transform="matrix(1,0,0,1,0,0)" fill-rule="nonzero"></path></g><g clip-path="url(#a75ba1082-1d40-446f-b4a9-f8548353a24aa6faa732-9666-4bb9-b952-e9ef87ce211a)"><path d=" M -2.489320593414785 0.9520194492553893 C -2.4893417426107805 0.9583585333070828 -2.4855782012766894 0.9640986107374956 -2.47975633613206 0.966606661801704 C -2.371315548523606 1.0138086797581753 -2.36037513911387 1.1199100087507106 -2.3599622934757667 1.1244513107698462 C -2.3592131352908874 1.132622891331821 -2.352342322010138 1.138866369486937 -2.3441365440151425 1.1388321004971094 L -2.343586083164338 1.1388321004971094 C -2.335192150920035 1.1385792766056888 -2.328457251753085 1.1318141760971832 -2.3282419869481674 1.1234191966745881 C -2.328104371735466 1.1190155098681533 -2.3237694925353822 1.0159417155550423 -2.208516751898225 0.9666754694080546 C -2.2027369129647796 0.9641295879730845 -2.1988836870091495 0.9584185566459895 -2.1988836870091495 0.9520882568617397 C -2.198901047758677 0.9457239334518313 -2.2026813399477185 0.9399724889070744 -2.208516751898224 0.9374322367090748 C -2.3237694925353822 0.8881659905620867 -2.328104371735466 0.7850921962489754 -2.3282419869481674 0.7806885094425409 C -2.3282419870789743 0.7719101881131114 -2.335358222617193 0.7647939526684169 -2.344136543987186 0.7647939526529772 C -2.35291486535718 0.7647939526375376 -2.360031100920431 0.7719101880571995 -2.3600311010821176 0.7806885094271929 C -2.360099908688468 0.7850921962489754 -2.364434787888552 0.8881659905620867 -2.479687528525709 0.9374322367090744 C -2.4855241714147605 0.9399337988977248 -2.489311779983046 0.9456693204439854 -2.489320593414785 0.9520194492553893 M -2.3441365440151425 0.8472942723898649 C -2.325271076826361 0.891623935184195 -2.2922727964101837 0.9284687893439003 -2.250282968953004 0.9520882568617395 C -2.2932022988917424 0.9761667436278834 -2.3266975302500104 1.014076263260738 -2.345306273323102 1.0596345455876361 C -2.364079993355441 1.0148524545872515 -2.3966750526208638 0.9772427708194562 -2.4383341571090336 0.9522946796807914 C -2.396148587742281 0.9287229827200274 -2.3630078462617847 0.8917815864459315 -2.3441365440151425 0.8472942723898649" fill="#000000" transform="matrix(1,0,0,1,0,0)" fill-rule="nonzero"></path></g><g clip-path="url(#a75ba1082-1d40-446f-b4a9-f8548353a24aa6faa732-9666-4bb9-b952-e9ef87ce211a)"><path d=" M -0.7855066449626751 -0.19493454100178798 C -0.7855066449626751 -0.2037128624751935 -0.792622880556245 -0.21082909806876304 -0.8014012020296506 -0.21082909806876304 C -0.8101795235030562 -0.21082909806876304 -0.8172957590966252 -0.2037128624751935 -0.8172957590966257 -0.19493454100178798 C -0.8173645667029761 -0.19059966180170373 -0.82169944590306 -0.08745705988224195 -0.9369521865402173 -0.03819081373525435 C -0.9428285350228984 -0.03573475398549897 -0.9466599965485372 -0.029995397426044623 -0.9466750176480012 -0.023626451253337066 C -0.9466900387474653 -0.0172575050806294 -0.9428856921324402 -0.011500139539711296 -0.9370209941465677 -0.009016388642624551 C -0.8286490141444647 0.03811682170749631 -0.8176397971283782 0.14428695830638194 -0.8172269514902748 0.14875945271916713 C -0.8164799258287108 0.1569427104440999 -0.8096184857621278 0.16320750354837177 -0.8014012020296506 0.16320905005278075 L -0.8009195487851963 0.16320905005278075 C -0.7925250208104306 0.16293381962737863 -0.7857818753880776 0.15619067420502541 -0.7855066449626751 0.14779614623025972 C -0.7853690297499742 0.14339245942382495 -0.7811029581562408 0.04031866511071358 -0.665781409912733 -0.008947581036274133 C -0.660032471544584 -0.011549228800327715 -0.6563443580596044 -0.017281246726097876 -0.6563592055925511 -0.02359144822840742 C -0.6563740531254978 -0.02990164973071685 -0.6600890998261266 -0.03561624845605038 -0.6658502175190835 -0.03819081373525435 C -0.7811029581562408 -0.08745705988224195 -0.7853690297499742 -0.19059966180170373 -0.7855066449626751 -0.19493454100178798 M -0.8025709313376095 0.08401149514330752 C -0.8213612514747468 0.039221906447308275 -0.8539504921563608 0.0015948319621015283 -0.8955988151235421 -0.023397178369887972 C -0.8534180628151264 -0.046943044253511035 -0.8202763291298427 -0.08386133780358973 -0.8014012020296506 -0.12832877805446374 C -0.7825495858030265 -0.0840077825727602 -0.749545762365817 -0.047180935599569374 -0.7075476269675121 -0.02360360118893945 C -0.7504579288820579 0.0005179581511203235 -0.7839472487512209 0.03844503727883253 -0.8025709313376095 0.08401149514330752" fill="#000000" transform="matrix(1,0,0,1,0,0)" fill-rule="nonzero"></path></g><g clip-path="url(#a75ba1082-1d40-446f-b4a9-f8548353a24aa6faa732-9666-4bb9-b952-e9ef87ce211a)"><path d=" M -2.11638336699485 -0.32140292147408345 C -2.2464985506037243 -0.3770682750116715 -2.2512462754419116 -0.49349074495678785 -2.251383890654613 -0.49844489261402686 C -2.252148381815282 -0.5066520725045262 -2.2590357389138136 -0.5129276941045557 -2.267278447721588 -0.5129276941045557 C -2.275521156529362 -0.5129276941045557 -2.2824085136278933 -0.5066520725045262 -2.2831730047885626 -0.49844489261402686 C -2.283310620001264 -0.49349074495678785 -2.288058344839451 -0.3770682750116715 -2.4181735284483254 -0.32140292147408345 C -2.4239960917880037 -0.3188995059225762 -2.4277749090557292 -0.3131762183322203 -2.4277898569579115 -0.3068383078067932 C -2.427804804860094 -0.3005003972813661 -2.424053026120719 -0.2947593488513709 -2.418242336054676 -0.2922284963814539 C -2.295902411963413 -0.2390402166724852 -2.283585850426666 -0.11924617401619242 -2.283104197182212 -0.11415441114625235 C -2.282357171520648 -0.10597115342131924 -2.2754957314540647 -0.09970636031704772 -2.267278447721588 -0.09970481381263852 L -2.2667967944771337 -0.09970481381263852 C -2.258402266502368 -0.09998004423804085 -2.2516591210800145 -0.10679199726674438 -2.251383890654613 -0.1151865252415104 C -2.2512462754419116 -0.12014067289874941 -2.2464985506037243 -0.2365631428438657 -2.11638336699485 -0.29215968877510323 C -2.1105769965390864 -0.29470358268148467 -2.1068260422075933 -0.30044211479171246 -2.1068260422075933 -0.30678130512459345 C -2.1068260422075933 -0.3131204954574742 -2.1105769965390864 -0.318859027567702 -2.11638336699485 -0.32140292147408345 M -2.2685169846358972 -0.18144825015708188 C -2.2895319786762602 -0.23402344878518566 -2.3275041260049374 -0.27807404571813465 -2.376407311393547 -0.3066092861087172 C -2.3142740428590076 -0.3414947425284416 -2.2829665819695113 -0.3896600669738207 -2.267278447721588 -0.42888040259362936 C -2.251590313473664 -0.38972887458017125 -2.2204204677968686 -0.3417011653474932 -2.158562429687732 -0.30681570892776855 C -2.222140657955632 -0.270898138412786 -2.2533105036324277 -0.22115023902134445 -2.2685169846358972 -0.18144825015708188" fill="#000000" transform="matrix(1,0,0,1,0,0)" fill-rule="nonzero"></path></g><g clip-path="url(#a75ba1082-1d40-446f-b4a9-f8548353a24aa6faa732-9666-4bb9-b952-e9ef87ce211a)"><path d=" M -1.599018974845128 -0.9560154748451282 C -2.340145702846811 -0.9560154748451282 -2.943037949690256 -0.35312322800168305 -2.943037949690256 0.38800349999999995 C -2.943037949690256 1.129130228001683 -2.340145702846811 1.732022474845128 -1.599018974845128 1.732022474845128 C -0.8578922468434449 1.732022474845128 -0.2549999999999999 1.129130228001683 -0.2549999999999999 0.38800349999999995 C -0.2549999999999999 -0.35312322800168305 -0.8578922468434449 -0.9560154748451282 -1.599018974845128 -0.9560154748451282 M -0.8900253990091476 1.4643608861415214 L -0.8976630433140578 1.46924622619241 C -0.9168239524121753 1.4816743883255932 -0.9363030145861697 1.4936050271129637 -0.9560807011056709 1.5050261814946941 C -0.9619293476454638 1.5083977542058682 -0.9677091865789094 1.5118381345233953 -0.9736266407250558 1.5151408996282212 C -0.9955732653783385 1.527422944187147 -1.0178765836277468 1.5390564651258811 -1.0405076340977861 1.5500263560479477 L -1.0436727839899071 1.551471315781307 L -1.125485027940701 1.3610118614030082 C -1.0742921688158982 1.3053465078654203 -0.987112931569762 1.2368141319402806 -0.8523876383354017 1.2078461296667025 L -0.7544744144985809 1.3613558994347608 C -0.7974046176744918 1.3985595020933388 -0.8426816049499619 1.4329654157742409 -0.8900253990091538 1.4643608861415267 M -1.194980710354748 1.3976863155878465 L -1.2558066343686267 1.2114241251969309 C -1.2766638075613088 1.1541617081846207 -1.3232632491619194 1.110060486100892 -1.3815869387774167 1.0923869662104935 C -1.4636056055472624 1.0674786127115976 -1.5829179949591012 1.0171802524693518 -1.685922981665862 0.918991798207129 C -1.8107399795857444 0.8000922544333933 -1.9035614405526249 0.7298396883494904 -1.947804731436023 0.6986010350663445 C -1.9573510039684887 0.6919247126939789 -1.9596905143307022 0.6787803584220693 -1.953034109518664 0.6692201871546635 C -1.9405111251628657 0.6515366323225742 -1.9250294137339938 0.6426604511033542 -1.906244937200296 0.6426604511033542 C -1.8931026843873426 0.6426604511033542 -1.8783778566283267 0.6469953303034384 -1.8618640311041967 0.6556650887036066 C -1.8236758095796461 0.6756881021516143 -1.779432518696248 0.7032799522981816 -1.7403497982891405 0.7276378449462733 C -1.6445696102491867 0.7872940396521928 -1.6120924200517308 0.8056656705477874 -1.5924822522418267 0.7950692991698038 C -1.588353795860794 0.7928674557665865 -1.5834684558099057 0.7859178875251818 -1.5825051493209978 0.7813077778996955 C -1.573628968101778 0.7383030239306072 -1.7406250287145426 0.49830209297991823 -1.8289051876622873 0.38704019351109253 C -1.9355569775056267 0.25265893830848474 -1.913469735867103 0.2305028890636105 -1.902185288425614 0.21921844162212167 C -1.8979192168318806 0.21474594720933626 -1.8933091072063941 0.21302575705057292 -1.8871164226348454 0.2134386026886761 C -1.8632401832312073 0.21529640806014072 -1.8125977849572088 0.24894332756555548 -1.7071845320281793 0.3983934485589318 C -1.6826890241673864 0.4330724821596048 -1.5995694356959322 0.5441279588093786 -1.556977527364947 0.516192070631059 C -1.5419086615741784 0.506283775316581 -1.532688442323206 0.4802056925097258 -1.574385851771634 0.4122237774353905 C -1.5885709901486815 0.38952527001921 -1.603067831871224 0.3670230520922899 -1.6178722589851837 0.3447235156054971 C -1.6890881315579869 0.2361451127843548 -1.8373685232434038 0.010249741135526791 -1.780464632791506 -0.035644932300284315 C -1.7699370690198732 -0.044108267881400876 -1.7650517289689849 -0.044452305913153634 -1.761404925832406 -0.04383303745599876 C -1.7325745387715292 -0.03791558330985212 -1.6753266102878785 0.06006644813331907 -1.5862895676702777 0.22726893156513484 C -1.53956920295826 0.3149986296620755 -1.4761285899030607 0.41676507945452657 -1.4409679030579339 0.4017650212701085 C -1.421013697216277 0.3934393009016932 -1.420876082003576 0.36529698990432147 -1.4404862498134803 0.3013059159983178 C -1.4541663820640853 0.25873975061414334 -1.469104181086614 0.21658808117576345 -1.4852800015476841 0.1749063431323692 C -1.52814714030407 0.060892139409525425 -1.5814042276193894 -0.08098914488529119 -1.5335141335994125 -0.10252592567301078 C -1.523399415465883 -0.10699842008579585 -1.5148672722784158 -0.10734245811754861 -1.5064727443036496 -0.10335161694921724 C -1.4675964467155937 -0.08504879365997331 -1.4404174422071296 0.012726814964146183 -1.418605430994008 0.09137390902281539 C -1.4124815540288098 0.113461150661339 -1.4066329074890138 0.13472270102365647 -1.4006466457365168 0.1537136003764059 C -1.3998209544603102 0.15646590463042775 -1.3114031802998645 0.42398987812133315 -1.2580772853781945 0.41318708392429837 C -1.2360588513460213 0.409196242755967 -1.234751506825361 0.38015943287603804 -1.2365405045904752 0.34933362523099554 C -1.2394304240571978 0.29992976387130676 -1.2500956030415318 0.243782757089265 -1.260416743994113 0.18956236328503806 C -1.2750727641467783 0.11236022895973052 -1.2916553972772589 0.024905761288192108 -1.2724580751054577 0.0001350230019973031 C -1.2703938469149414 -0.0024796660393233694 -1.2671598894164662 -0.005576008325097637 -1.2597286679306077 -0.005988853963201035 C -1.2183752965139323 -0.00949804188707859 -1.191677945249922 0.11366757348039092 -1.1675952830272325 0.22155790023804012 C -1.152388802023763 0.2898838533441277 -1.136631860169489 0.3605492650661337 -1.1150262717754187 0.4236458400895806 C -1.091287647584482 0.49279748447187477 -1.0659664484474827 0.5430270371077701 -1.0436727839899071 0.5872703279911684 C -1.0072735602304708 0.6595871222655874 -0.9785119807759446 0.7166286279301866 -0.9785119807759446 0.8182574625099364 C -0.9785119807759446 0.9562167132427721 -0.8378004257890868 1.1054604114170965 -0.7758735800735996 1.1644973376658616 C -1.0257828063387664 1.1850708119646731 -1.1511502651094532 1.3322502819484818 -1.194980710354748 1.3976863155878465 M -1.1299575223534863 1.4310580046678594 C -1.1401012970806046 1.434659208860081 -1.15063168120264 1.4370608754142296 -1.1613337908493333 1.4382139957283158 C -1.1672730417590802 1.438910806482195 -1.1732896829706523 1.4385143611310445 -1.179086153287773 1.437044266420356 C -1.1799148360971208 1.4368237961203711 -1.1807041177679296 1.4364755836185437 -1.1814256119036914 1.436012152325098 C -1.1764714642464524 1.4272735863185793 -1.1660127080811702 1.4099340695182427 -1.1485355760681324 1.3877780202733685 Z M -1.291655397277259 0.1954798174311847 C -1.2814718715373787 0.24873690474650378 -1.2710131153720965 0.3037829898269371 -1.2682608111180749 0.35119143060245994 C -1.2677403355354062 0.35861117220475003 -1.2676484393207226 0.3660547655941082 -1.2679855806926728 0.37348509506003524 C -1.293306779829672 0.3404574440117756 -1.34388037049732 0.22885150651119734 -1.3703712989422785 0.14428695830638172 C -1.376151137875724 0.1255712893790344 -1.38199978441552 0.10458496944211926 -1.3879860461680171 0.08284176583534819 C -1.413995321368522 -0.010805386407738982 -1.440830287845233 -0.10761768854295095 -1.4929864534589437 -0.13211319640374375 C -1.5100025486210986 -0.14002904210206368 -1.5296903481205928 -0.1398012912081107 -1.5465187711996649 -0.13149392794658887 C -1.6216566773344563 -0.09777820083482347 -1.5698445497524984 0.04011224229166177 -1.515004887491117 0.1860531753611605 C -1.4982846391479354 0.23064050427631133 -1.4824588896873108 0.2727507593628429 -1.4708304042140692 0.3105949428556405 C -1.4623670686329526 0.33832440821490883 -1.4591331111344772 0.3548382337390388 -1.4580321894328685 0.36440249102176403 C -1.4770230887856182 0.3460996677325199 -1.5141103886085598 0.29518203903311924 -1.5582160642792569 0.21233768098706718 C -1.6755330331069305 -0.007915466941016414 -1.7159919056410489 -0.06695239318978108 -1.7550746260481564 -0.07493407552644393 C -1.774478371039009 -0.07885610908842478 -1.789478429223427 -0.06922304419934888 -1.8004188386331632 -0.060346862980129035 C -1.8736301317901394 -0.00124112912501384 -1.7684233016801616 0.17318615297360873 -1.6444319950364856 0.362131840012196 C -1.6274365162679019 0.3880034999999997 -1.6125052656898344 0.41084762530837926 -1.6014960486737477 0.4288064105658709 C -1.5814730352257402 0.4614212159760276 -1.576518887568501 0.4803433077224264 -1.5761060419303978 0.4881873748463883 C -1.588216180648093 0.48419653367805693 -1.6240649435567254 0.46114598555062547 -1.6812440644340254 0.3800906252696874 C -1.7741343330072563 0.2483928667147508 -1.8387446753704149 0.18536509929765477 -1.884639348806226 0.18178710376742657 C -1.9004818133896904 0.1804993961872181 -1.9160061721865074 0.1867448278870869 -1.926543181073706 0.19864496732330927 C -1.9525524562742107 0.2247918577365151 -1.9684470133411858 0.2623608108039106 -1.8538135411611836 0.40678797653369747 C -1.7475745969559473 0.5406875784918515 -1.639271424560195 0.7083717151681208 -1.617665836166125 0.7621792633342444 C -1.6411292299316595 0.7519957375943644 -1.6860605968785631 0.7239910418096938 -1.7235607423396084 0.7006652632568604 C -1.7630563083848192 0.6760321401833664 -1.807850060119022 0.6480962520050466 -1.847139203345181 0.6275227777062347 C -1.9204193041085078 0.5889905181499315 -1.961222214674379 0.6255961647284196 -1.9790433847191693 0.6509173638654189 C -1.9956900483366218 0.6748450226515661 -1.9899136331120832 0.7077214284508024 -1.9661075547252675 0.7245415026604984 C -1.9226211475117252 0.7552985026991905 -1.831244646278206 0.8244501470814849 -1.7078038004853344 0.9420423463345602 C -1.6336292008394504 1.0127077580565667 -1.5517481492823062 1.0591528923431823 -1.4799818158586915 1.089909892381874 C -1.5573903730030505 1.0982356127502897 -1.7073221472408806 1.1234191966745881 -1.8840888879554218 1.2002084853617923 C -1.8968871027366225 1.1252770020460525 -1.9528276866996128 0.8684870151458315 -2.144044024747768 0.6688761491229105 C -2.3325080585419014 0.4722240101730628 -2.4042055843591656 0.18261279504363315 -2.419274450149934 0.11277307459783348 C -2.370971510491854 0.10314000970875781 -2.225787461092211 0.06687840116202226 -2.0832869083402397 -0.04073669517022471 C -1.8850521944443295 -0.19032443137630184 -1.6752578026815284 -0.27771009144148984 -1.50778008882431 -0.28039358808916093 C -1.344637254167176 -0.2830082771304815 -1.1823201107862484 -0.35828379847797387 -1.1234896073565357 -0.3884903376658616 C -1.1185354596992965 -0.2821825858542749 -1.0892234193939658 0.11944741241383605 -0.9231218576637583 0.33701706369424866 C -0.7678918977369369 0.5404123480664491 -0.6594511101284835 0.6822248247549154 -0.6315840295565143 0.718624048514352 C -0.6549098081093478 0.7498627017974977 -0.746561539768269 0.8554823775455791 -0.9337182290417423 0.8814916527460839 C -0.9345439203179486 0.8815604603524345 -0.9353008039878046 0.8820421135968881 -0.9360576876576605 0.8823173440222902 C -0.9427964978086512 0.8616176057111791 -0.9463915709519359 0.840023972831192 -0.9467228666419942 0.8182574625099364 C -0.9467228666419942 0.7090597912316265 -0.9769982134362325 0.6489907508876038 -1.0152552425671337 0.573027153476606 C -1.0371360613866059 0.5296095538694143 -1.0619067996728009 0.4804809229351277 -1.0849573478002323 0.413324699136999 C -1.1060124753434981 0.3519483142723159 -1.1215629943787204 0.2821085938265162 -1.136631860169489 0.2146771396029854 C -1.1686273971224908 0.07128208796845703 -1.1938797886531398 -0.04218165490358616 -1.2617240885147736 -0.037777968097151504 C -1.2758048250303509 -0.037205075129734144 -1.2889184934797207 -0.030459464487831878 -1.2975728514234057 -0.019337529595206293 C -1.3255775472080762 0.016786463738828084 -1.309820605353802 0.09956201417852939 -1.2916553972772593 0.19547981743118448 M -0.7531670699779212 1.1953231453109041 C -0.753337769383164 1.1977226852815204 -0.7536363599835618 1.200111410084703 -0.7540615688604779 1.20247913637136 C -0.7554835487559948 1.2114375654894032 -0.7609361554533987 1.2192487415954514 -0.7688552042258445 1.2236718791273267 C -0.772306213207258 1.2256196558918064 -0.7758672479639466 1.227365711643473 -0.7795203832101785 1.2289012572099682 C -0.7851420252974837 1.23137979688413 -0.7904725608690315 1.2344719690338588 -0.7954149402771535 1.2381214764609407 L -0.8183966807982341 1.2021350983396075 C -0.7976167836803709 1.1989011408411316 -0.77594238767995 1.1965616822252134 -0.7531670699779207 1.1953231453109041 M -0.31004608508043363 0.3880034999999997 C -0.31004608508043363 0.5205269498311427 -0.3300690985284409 0.648371482430449 -0.36722520595773345 0.7687159859375463 L -0.36839493526569234 0.772638019499527 C -0.373899543773736 0.7902527667252657 -0.3798858055262335 0.8076610911319528 -0.3860784900977814 0.8249318003259387 L -0.3898629084470615 0.8353217488848705 C -0.3955975829615461 0.8507355979009128 -0.4016308523853014 0.8660367032455691 -0.4079593089172566 0.8812164223206889 C -0.41016115232047134 0.8864458004033231 -0.41229418811733787 0.8917439860923146 -0.41456483912690656 0.8969733641749558 C -0.4410458404857436 0.9580467766966974 -0.47212134414881257 1.0170235282822704 -0.5075239153064879 1.0733960668577442 C -0.5130285238145311 1.0820658252579125 -0.5185331323225739 1.0908043912644312 -0.5241753560433189 1.099405342058249 C -0.5309185014656719 1.1095200601917783 -0.5378680697070766 1.1194283555062563 -0.5448176379484813 1.1293366508207348 C -0.5499094008184211 1.1364926418811907 -0.554932356082011 1.1437862481543484 -0.5601617341646516 1.150873431608454 C -0.5683580169396305 1.1619242227766444 -0.5767306817556155 1.1728430952489972 -0.5852765104825948 1.1836258522313055 C -0.5898178125017357 1.189405691164757 -0.5942214993081705 1.1952543377045528 -0.5988316089336565 1.2008965614252978 C -0.6087609496776674 1.2129565598686478 -0.6188768862758591 1.2248617097427112 -0.6291757633342536 1.2366077091212386 L -0.6400473651376308 1.2491306934770268 C -0.6522951190680271 1.2627545995344345 -0.6648181034238254 1.2759656599537383 -0.6776163182050263 1.289039105160341 L -0.6838090027765755 1.2955070201572922 C -0.6989232593712065 1.3107937659010858 -0.7144331673136413 1.3256841952718552 -0.7303229446695423 1.3401631566787942 L -0.77841946150857 1.2646812125122493 C -0.7782130386895179 1.2644059820868472 -0.7778001930514149 1.2642683668741463 -0.7775937702323632 1.263924328842393 C -0.7766304637434556 1.2623417538963306 -0.7706442019909585 1.2597270648550103 -0.7666533608226271 1.2579380670898959 C -0.7481441147143317 1.2497499619341814 -0.7172494994629384 1.2360572482704237 -0.721377955843971 1.17715793723436 C -0.721377955843971 1.1764698611708544 -0.7217908014820744 1.1758505927136997 -0.7219284166947753 1.175231324256545 C -0.722038640397499 1.1745481121009276 -0.7222232238182977 1.1738789972005328 -0.7224788775455795 1.1732359036723794 C -0.7232705052763699 1.1705150115928988 -0.7247937258776695 1.168063578437682 -0.7268825643520138 1.1661487202182734 C -0.72887798493618 1.1644973376658603 -0.8702776159865424 1.0424326439999998 -0.9251860858542749 0.9121798451784249 C -0.6935108752720014 0.8783953104603088 -0.6021343740384824 0.7327296078162122 -0.5983499556892027 0.7264681156383133 C -0.5949594851878 0.7208746239227235 -0.5953417610074512 0.7137752158434967 -0.5993132621781099 0.7085781379871725 C -0.603284763348769 0.7033810601308479 -0.7166990386121341 0.5550683682191142 -0.8978694661331099 0.3177509339160962 C -1.0800032001429931 0.07919496269876958 -1.0925261844987917 -0.40995831084723033 -1.0926637997114927 -0.4148436508981188 C -1.092741781583035 -0.4204554695282684 -1.095811647069043 -0.4255981501714957 -1.1007142896545061 -0.428329941742825 C -1.1055757014298937 -0.43110427765781634 -1.111541012127042 -0.43110427765781634 -1.1164024239024297 -0.428329941742825 C -1.1183978444865954 -0.4271602124348658 -1.3166325583825056 -0.3152790445088852 -1.5082617420687638 -0.31218270222311084 C -1.7466112904670397 -0.30832947626748053 -1.982827803068449 -0.1563334738391342 -2.1024154229056897 -0.06605789430722375 C -2.26631514123268 0.05765818191104999 -2.438609387534436 0.08401149514330752 -2.4403295776931997 0.08428672556870964 C -2.444573296834157 0.08492251712829124 -2.4483876598782444 0.0872259961094608 -2.4509259490711828 0.0906858329593101 C -2.4534259017886293 0.09419207411034791 -2.4544171634314513 0.09855362533876422 -2.4536782533252044 0.10279597167700527 C -2.4511323718902345 0.11724556901061911 -2.38831102729219 0.45990744863631616 -2.1670257652688485 0.6908945831550841 C -1.9528964943059632 0.9143128809752923 -1.912850467409948 1.2220204965749144 -1.9124376217718446 1.2251168388606886 C -1.91184014740528 1.2301363920808421 -1.9088807222194697 1.234568516377925 -1.9044734671611854 1.2370441966884427 C -1.9000662121029008 1.2395198769989604 -1.894741464604338 1.2397412077282846 -1.8901439573142693 1.237639823216487 C -1.6344548921156568 1.1223182749729796 -1.4254861916290622 1.1176393577411428 -1.4234219634385459 1.1176393577411428 C -1.4204575476460717 1.11750246232845 -1.4175934727475816 1.1165239034047991 -1.415165050676481 1.1148182458807703 C -1.4069081379144157 1.1176393577411428 -1.3985824175460002 1.1203916619951644 -1.3908759656347396 1.1227311206110826 C -1.3422726251351373 1.1374485044597418 -1.3033797920669783 1.1740999692829777 -1.2858067507374626 1.2217452661495118 L -1.21431564773925 1.4406222619505844 C -1.2141780325265492 1.4411039151950382 -1.2137651868884458 1.4413791456204403 -1.2135587640693943 1.4417919912585437 C -1.2119326058509927 1.4503525769766388 -1.20685647402203 1.4578672427234374 -1.199522012373884 1.4625718883764074 C -1.189563975200792 1.4681563438396015 -1.1782443879916942 1.4708492140598708 -1.1668383993573765 1.470347147894018 C -1.152319994417412 1.470347147894018 -1.1351869004361272 1.4664251143320375 -1.1174345379976878 1.4601636221541383 L -1.0726407862634852 1.56454476098791 C -1.088654996952026 1.5717107868000528 -1.1048048019336023 1.5785698659044443 -1.1210813411342608 1.5851182352867188 C -1.1282373321947226 1.587939347147094 -1.1353245156488285 1.5908292666138164 -1.1425493143156353 1.5935127632614876 C -1.1541777997888767 1.5979852576742728 -1.1659439004748193 1.6021137140553054 -1.1777788087671126 1.6061733628299872 C -1.187480681262539 1.6095449355411635 -1.1971825537579655 1.6129853158586906 -1.2070220414660928 1.6160816581444648 C -1.2157606074726115 1.6189027700048368 -1.2246367886918317 1.6214486514398077 -1.2334441623047008 1.624132148087478 C -1.2465176075113038 1.6279853740431085 -1.2595910527179066 1.631838599998739 -1.2728709207435611 1.6352789803162662 C -1.277687453188099 1.636586324836926 -1.2825727932389874 1.637618438932184 -1.2874581332898758 1.6388569758464937 C -1.3893753272111673 1.664185176580686 -1.494001680683028 1.6769861924427467 -1.5990189748451284 1.6769763897646939 C -1.9083779729971628 1.6769763897646943 -2.192140541586796 1.5679163336990862 -2.414320302492695 1.3862642529336562 C -2.4797761549663258 1.3327458106553165 -2.5398754337107317 1.2729921949404985 -2.5937705398549076 1.207846129666702 C -2.7843776860134124 0.9771968426742352 -2.8884435558212975 0.6872190974074088 -2.887991864609823 0.3880034999999993 C -2.8884435558213406 0.08878790259277602 -2.7843776860134968 -0.2011898426740656 -2.593770539855025 -0.43183912966656035 C -2.540100606901485 -0.496793510061614 -2.4801003741638126 -0.556380897161183 -2.414870763343499 -0.6098444072955538 C -2.184877523014257 -0.7985042824433874 -1.8964903919489138 -0.9014110844622341 -1.5990189748451278 -0.9009693897646951 C -1.299803377437719 -0.9014210809761699 -1.009825632170892 -0.7973552111682846 -0.779176345178425 -0.6067480650097792 C -0.7142219647835142 -0.5530781320563569 -0.6546345776839453 -0.4930778993186846 -0.6011710675495743 -0.4278482884983712 C -0.4125212934172402 -0.1978493334518021 -0.30961582735949555 0.0905340537017496 -0.3100460850804332 0.38800350000000017" fill="#000000" transform="matrix(1,0,0,1,0,0)" fill-rule="nonzero"></path></g></g></g><defs><clipPath id="SvgjsClipPath1001"><path d=" M -2.943037949690256 -0.9560154748451282 h 2.6880379496902562 v 2.6880379496902562 h -2.6880379496902562 Z"></path></clipPath><clipPath id="a75ba1082-1d40-446f-b4a9-f8548353a24aa6faa732-9666-4bb9-b952-e9ef87ce211a"><path d=" M -2.943037949690256 1.732022474845128 L -0.2549999999999999 1.732022474845128 L -0.2549999999999999 -0.9560154748451282 L -2.943037949690256 -0.9560154748451282 Z"></path></clipPath></defs></svg>