<svg xmlns="http://www.w3.org/2000/svg" version="1.1" xmlns:xlink="http://www.w3.org/1999/xlink" xmlns:svgjs="http://svgjs.dev/svgjs" viewBox="0 0 18.117272142238008 19.869709642238007"><g transform="matrix(1,0,0,1,3.2729952227303327,17.41650337954045)"><g><path d=" M 0.31184999999999996 0.19428749999999995 L 0.31184999999999996 0.3365999999999999 L 0.5902875 0.3365999999999999 L 0.5902875 0.5209874999999999 L 0.31184999999999996 0.5209874999999999 L 0.31184999999999996 0.6781499999999999 L 0.6274124999999999 0.6781499999999999 L 0.6274124999999999 0.8724374999999999 L 0.0693 0.8724374999999999 L 0.0693 0 L 0.6274124999999999 0 L 0.6274124999999999 0.19428749999999995 L 0.31184999999999996 0.19428749999999995 M 1.6983123706054686 0.8724374999999999 L 1.5287748706054687 0.6261749999999999 L 1.3839873706054686 0.8724374999999999 L 1.1080248706054687 0.8724374999999999 L 1.3914123706054686 0.4256999999999999 L 1.0981248706054687 0 L 1.3839873706054686 0 L 1.5485748706054685 0.24007499999999993 L 1.6896498706054688 0 L 1.9656123706054687 0 L 1.6859373706054686 0.4393124999999999 L 1.9841748706054685 0.8724374999999999 L 1.6983123706054686 0.8724374999999999 M 3.024186789550781 0.7301249999999999 L 2.7148117895507813 0.7301249999999999 L 2.667786789550781 0.8724374999999999 L 2.412861789550781 0.8724374999999999 L 2.730899289550781 0 L 3.0105742895507808 0 L 3.327374289550781 0.8724374999999999 L 3.071211789550781 0.8724374999999999 L 3.024186789550781 0.7301249999999999 M 2.963549289550781 0.5444999999999999 L 2.869499289550781 0.26234999999999997 L 2.776686789550781 0.5444999999999999 L 2.963549289550781 0.5444999999999999 M 4.83020033203125 0 L 4.83020033203125 0.8724374999999999 L 4.58765033203125 0.8724374999999999 L 4.58765033203125 0.3910499999999999 L 4.42306283203125 0.8724374999999999 L 4.2201128320312495 0.8724374999999999 L 4.05428783203125 0.3873374999999999 L 4.05428783203125 0.8724374999999999 L 3.81173783203125 0.8724374999999999 L 3.81173783203125 0 L 4.10502533203125 0 L 4.32406283203125 0.5667749999999999 L 4.5381503320312495 0 L 4.83020033203125 0 M 6.668230078125 0.43498124999999993 Q 6.631723828125001 0.4999499999999999 6.558092578125001 0.5389312499999999 Q 6.4844613281250005 0.5779124999999998 6.378036328125001 0.5779124999999998 L 6.257998828125 0.5779124999999998 L 6.257998828125 0.8724374999999999 L 6.015448828125001 0.8724374999999999 L 6.015448828125001 0 L 6.378036328125001 0 Q 6.483223828125 0 6.556855078125 0.037124999999999964 Q 6.630486328125 0.07424999999999993 6.667611328125 0.13983749999999995 Q 6.7047363281250005 0.20542499999999997 6.7047363281250005 0.2908124999999999 Q 6.7047363281250005 0.37001249999999997 6.668230078125 0.43498124999999993 M 6.457236328125001 0.2908124999999999 Q 6.457236328125001 0.19552499999999995 6.354523828125001 0.19552499999999995 L 6.257998828125 0.19552499999999995 L 6.257998828125 0.3848624999999999 L 6.354523828125001 0.3848624999999999 Q 6.457236328125001 0.3848624999999999 6.457236328125001 0.2908124999999999 M 7.759564409179688 0.7301249999999999 L 7.450189409179687 0.7301249999999999 L 7.403164409179688 0.8724374999999999 L 7.148239409179688 0.8724374999999999 L 7.466276909179688 0 L 7.745951909179688 0 L 8.062751909179688 0.8724374999999999 L 7.806589409179687 0.8724374999999999 L 7.759564409179688 0.7301249999999999 M 7.698926909179687 0.5444999999999999 L 7.604876909179688 0.26234999999999997 L 7.512064409179688 0.5444999999999999 L 7.698926909179687 0.5444999999999999 M 9.199896701660156 0.43498124999999993 Q 9.163390451660156 0.4999499999999999 9.089759201660156 0.5389312499999999 Q 9.016127951660156 0.5779124999999998 8.909702951660156 0.5779124999999998 L 8.789665451660156 0.5779124999999998 L 8.789665451660156 0.8724374999999999 L 8.547115451660156 0.8724374999999999 L 8.547115451660156 0 L 8.909702951660156 0 Q 9.014890451660156 0 9.088521701660156 0.037124999999999964 Q 9.162152951660156 0.07424999999999993 9.199277951660155 0.13983749999999995 Q 9.236402951660157 0.20542499999999997 9.236402951660157 0.2908124999999999 Q 9.236402951660157 0.37001249999999997 9.199896701660156 0.43498124999999993 M 8.988902951660156 0.2908124999999999 Q 8.988902951660156 0.19552499999999995 8.886190451660156 0.19552499999999995 L 8.789665451660156 0.19552499999999995 L 8.789665451660156 0.3848624999999999 L 8.886190451660156 0.3848624999999999 Q 8.988902951660156 0.3848624999999999 8.988902951660156 0.2908124999999999 M 9.981856032714843 0.19428749999999995 L 9.981856032714843 0.3365999999999999 L 10.260293532714844 0.3365999999999999 L 10.260293532714844 0.5209874999999999 L 9.981856032714843 0.5209874999999999 L 9.981856032714843 0.6781499999999999 L 10.297418532714843 0.6781499999999999 L 10.297418532714843 0.8724374999999999 L 9.739306032714843 0.8724374999999999 L 9.739306032714843 0 L 10.297418532714843 0 L 10.297418532714843 0.19428749999999995 L 9.981856032714843 0.19428749999999995 M 11.264368403320312 0.8724374999999999 L 11.09111840332031 0.5506874999999999 L 11.065130903320311 0.5506874999999999 L 11.065130903320311 0.8724374999999999 L 10.822580903320311 0.8724374999999999 L 10.822580903320311 0 L 11.204968403320311 0 Q 11.310155903320311 0 11.383168403320312 0.03650624999999996 Q 11.45618090332031 0.07301249999999992 11.49330590332031 0.13674374999999994 Q 11.530430903320312 0.20047499999999996 11.530430903320312 0.2796749999999999 Q 11.530430903320312 0.36877499999999996 11.481549653320311 0.43621874999999993 Q 11.432668403320312 0.5036624999999999 11.33861840332031 0.532125 L 11.535380903320311 0.8724374999999999 L 11.264368403320312 0.8724374999999999 M 11.065130903320311 0.3848624999999999 L 11.185168403320311 0.3848624999999999 Q 11.234668403320311 0.3848624999999999 11.25941840332031 0.36134999999999995 Q 11.284168403320312 0.3378374999999999 11.284168403320312 0.2932874999999999 Q 11.284168403320312 0.25121249999999995 11.258799653320311 0.2270812499999999 Q 11.233430903320311 0.20294999999999996 11.185168403320311 0.20294999999999996 L 11.065130903320311 0.20294999999999996 L 11.065130903320311 0.3848624999999999" fill="#262626" fill-rule="nonzero"></path></g><g></g><g clip-path="url(#SvgjsClipPath1001)"><g clip-path="url(#aa298c698-d244-4ff1-b6e1-985158c34894cf2833fd-33d7-4edb-bad9-f5a96f3ebf4d)"><path d=" M 10.34517597577819 -3.679271272163911 C 10.36623176352012 -3.68845925226948 10.38613905374886 -3.6976472323750507 10.40451501396 -3.7083665424982186 C 10.44857510316826 -3.732976042936315 10.478912375283702 -3.7764359490365784 10.48682400240574 -3.826278953853043 C 10.489120997432133 -3.838146761489405 10.490652327449729 -3.851928731647762 10.491800824962924 -3.866093534310517 C 10.370268247722061 -3.8595349169198485 10.249141048215703 -3.8468855574777283 10.128875610792866 -3.8281931163750365 L 10.25674166726207 -3.627971716574473 C 10.285071272587581 -3.6490275043164058 10.315315040435083 -3.6662549670143516 10.34517597577819 -3.679271272163911" fill="#bdbfc3" transform="matrix(1,0,0,1,0,0)" fill-rule="nonzero"></path></g><g clip-path="url(#aa298c698-d244-4ff1-b6e1-985158c34894cf2833fd-33d7-4edb-bad9-f5a96f3ebf4d)"><path d=" M 8.420294143661103 -2.944615696222643 L 8.875481991391258 -1.8849353240468076 C 8.88122447895724 -1.8876151515775987 8.88734979902762 -1.8899121466039919 8.893092286593602 -1.8929748066391845 C 9.0194270130452 -1.9538451748385874 9.143464744470405 -2.0189267005863822 9.265205480869218 -2.087070886369366 C 9.298129076247514 -2.1054468465805076 9.330287006617011 -2.124588471800447 9.36282776949091 -2.1433472645159863 C 9.473083530757759 -2.206897460246184 9.581425129502614 -2.2727446510027765 9.687852565725477 -2.342037334298956 L 9.730346973713742 -2.36960127461567 C 9.994118569244504 -2.5441728966215145 10.246022357138903 -2.735589148820905 10.484527007379345 -2.9427015337006495 L 9.939756353619876 -3.7968008510143356 C 9.190170310007057 -3.6356283666624467 8.705121526933798 -3.2543271922812576 8.420294143661103 -2.944615696222643" fill="#bdbfc3" transform="matrix(1,0,0,1,0,0)" fill-rule="nonzero"></path></g><g clip-path="url(#aa298c698-d244-4ff1-b6e1-985158c34894cf2833fd-33d7-4edb-bad9-f5a96f3ebf4d)"><path d=" M 8.122450455238848 -2.5212029463575867 C 8.142740577971985 -2.514694793782807 8.174515675837084 -2.511249301243218 8.221221241373735 -2.514694793782807 C 8.267543974405987 -2.518140286322396 8.327648677596597 -2.531922256480753 8.39579286337958 -2.554509374240281 L 8.29242808719191 -2.795311019507114 C 8.224607202914145 -2.7107039609654375 8.16342703019153 -2.620981573771811 8.10943415008929 -2.526945433923567 C 8.11352861285984 -2.524519479369296 8.11789837813187 -2.5225916417492833 8.122450455238848 -2.5212029463575867" fill="#bdbfc3" transform="matrix(1,0,0,1,0,0)" fill-rule="nonzero"></path></g><g clip-path="url(#aa298c698-d244-4ff1-b6e1-985158c34894cf2833fd-33d7-4edb-bad9-f5a96f3ebf4d)"><path d=" M 7.662285784951511 -10.726452013136724 C 8.039758634288711 -10.751336125922645 8.180258163403064 -10.12004532616905 8.358275277948499 -9.322222387001984 C 8.442115596411833 -8.946663700186777 8.529018574910358 -8.558471540726408 8.645782488751985 -8.216984946802695 C 8.774031377725578 -7.843340422509483 8.911851079309141 -7.569615181864352 9.033591815707954 -7.328430704093117 C 9.246446688153677 -6.9054007867324625 9.414892990089143 -6.571188010392323 9.414892990089143 -5.9636328259114535 C 9.414892990089143 -5.846868912069825 9.437097275344271 -5.727042338193005 9.474232028270954 -5.6075985968205835 C 9.47882601832374 -5.608747094333781 9.482654343367727 -5.611426921864572 9.487631165924912 -5.61219258687337 C 10.528935577889603 -5.756520441031713 11.038485641244387 -6.344551167788243 11.168265860235573 -6.517974292280893 C 11.013218695954066 -6.72049268710785 10.410257501525981 -7.509510478673743 9.546204539097927 -8.641163361676547 C 8.622046873479261 -9.851679740585503 8.45896022660538 -12.086655901265605 8.431779118793065 -12.678132120561726 C 8.104457327532106 -12.50968581862626 7.200972617150974 -12.091249891318391 6.293659581725857 -12.076319423646837 C 5.361462433514817 -12.061388955975284 4.194206127602926 -11.575574507893226 3.091265682430029 -10.742913810825872 C 2.2984195658201476 -10.144546606450572 1.4906429815387132 -9.942793876632415 1.222277395955166 -9.889197326016584 C 1.3057348819141015 -9.500622334051819 1.704646351497634 -7.888897490532938 2.7532245810459033 -6.794762192961212 C 3.817116110770124 -5.684547930204738 4.128741769350734 -4.255817023788476 4.19956578266451 -3.838529593993803 C 5.183062486464985 -4.266153501407244 6.017637346054334 -4.4062701980172 6.447941080998568 -4.452210098545054 C 6.048646778910636 -4.6233362280113095 5.593076098676082 -4.88174816848049 5.180382658934194 -5.275299983002439 C 4.493581146042777 -5.929177900515564 3.9851795802011916 -6.31392456743634 3.743229437421159 -6.485433529406995 C 3.610762539860599 -6.578873700212016 3.578759533194911 -6.761821369332983 3.6716397590985865 -6.8946814766092945 C 3.7707933777378715 -7.0355638382280485 3.997813052846351 -7.239230730568201 4.405146837526657 -7.024844528104881 C 4.623744197538362 -6.910377609289645 4.87296815790197 -6.755330445008138 5.092714015426872 -6.618276408433374 C 5.301740562828609 -6.488113356937786 5.551347355696615 -6.332683360151881 5.681893239696601 -6.276024149500859 C 5.561683833315383 -6.575016335436311 4.959105471391697 -7.5083619811605455 4.368012084599974 -8.25297120221618 C 3.7305959647759996 -9.056536628949228 3.8186474407877196 -9.265946008855362 3.9633581274504603 -9.411422360526903 C 4.022195670918912 -9.477331802421027 4.108414212361058 -9.51201742254143 4.196503122629319 -9.505216324104603 C 4.451852403063309 -9.485309033875865 4.811332124693767 -9.13463445984658 5.328156005632125 -8.401893046427308 C 5.646289816787514 -7.950533523741141 5.845745551579281 -7.8226674672719465 5.913124072353467 -7.8000803495124185 C 5.910827077327074 -7.843723255013881 5.883263137010362 -7.949002193723546 5.771858878230316 -8.130464800808571 C 5.7109885100309095 -8.230384084456652 5.627531024071974 -8.357484475917047 5.5329713954854745 -8.50181233007539 C 4.8431072225588645 -9.552687554650053 4.2577563233331235 -10.52355078580537 4.66509010801343 -10.852021074579525 C 4.725960476212837 -10.901406467646968 4.809417962171772 -10.955003018262797 4.917376728412229 -10.933181565512069 C 5.134825590910737 -10.889155827506208 5.359931103497224 -10.560302706227652 6.01266052349715 -9.334855859647146 C 6.258056158816769 -8.873925524351009 6.464785711192114 -8.590629471095909 6.570447482406177 -8.488796024925833 C 6.563939329831399 -8.542392575541662 6.545946202124657 -8.63427237659737 6.498857804083606 -8.788171043365681 C 6.434159110840211 -8.998728920785013 6.346107634828492 -9.233022413477068 6.253079336259587 -9.48109787632748 C 5.947961830253755 -10.293085618157301 5.659688954441471 -11.060281956972464 6.078124881749342 -11.248252716632265 C 6.181489657937013 -11.29457544966452 6.281791774089496 -11.295723947177716 6.375968570171596 -11.251315376667456 C 6.665772776001475 -11.115409837605888 6.815077452717 -10.5763816714124 6.959788139379741 -10.055346632925655 C 6.993094567262435 -9.93437156153564 7.025635330136332 -9.817607647694011 7.05817609301023 -9.71386003900194 C 7.205183774699362 -9.243358891095836 7.486565665432469 -8.62202173645661 7.627448027051221 -8.43864496684959 C 7.6295209534172965 -8.479854789806042 7.629009507906634 -8.521154014792142 7.625916697033626 -8.562299865770399 C 7.610603396857675 -8.826071461301161 7.5524128561890596 -9.132337464820187 7.4961364780424375 -9.429032655729245 C 7.3946858643767595 -9.962318334356752 7.307400053373838 -10.423248669652887 7.462830050159743 -10.62385290195785 C 7.510912661781838 -10.68581591267986 7.583915868978854 -10.72336842617084 7.662285784951511 -10.726452013136724" fill="#bdbfc3" transform="matrix(1,0,0,1,0,0)" fill-rule="nonzero"></path></g><g clip-path="url(#aa298c698-d244-4ff1-b6e1-985158c34894cf2833fd-33d7-4edb-bad9-f5a96f3ebf4d)"><path d=" M 2.067188733163283 -12.90285480064381 C 1.9799029221603601 -12.684640273136504 1.8057141326589137 -12.416657520057356 1.4600163811868119 -12.222178607822773 C 1.7320586729279461 -12.063534211679437 1.943327463077798 -11.818580984324571 2.0602977480841043 -11.526189114825783 C 2.1452865640606347 -11.747083469863881 2.318326856048885 -12.023871370544203 2.6724469226177607 -12.223327105335969 C 2.3278976686588546 -12.417806017570552 2.154474544166206 -12.685023105640902 2.067188733163283 -12.90285480064381" fill="#bdbfc3" transform="matrix(1,0,0,1,0,0)" fill-rule="nonzero"></path></g><g clip-path="url(#aa298c698-d244-4ff1-b6e1-985158c34894cf2833fd-33d7-4edb-bad9-f5a96f3ebf4d)"><path d=" M 1.6334395056794602 -4.621039232984916 C 1.736954225117108 -4.874626899766115 1.923309506759975 -5.085676617716473 2.1621311942541803 -5.219789269864615 C 1.928343098439679 -5.350998317959018 1.7446895089201835 -5.5560602071365786 1.6399476582542394 -5.8028431740639626 C 1.5349975081801528 -5.555197750766979 1.3506077300910784 -5.349527048691 1.1158499597323042 -5.218257939847019 C 1.3476333358457975 -5.0794514805447335 1.5289860791171868 -4.870198315231592 1.6334395056794602 -4.621039232984916" fill="#bdbfc3" transform="matrix(1,0,0,1,0,0)" fill-rule="nonzero"></path></g><g clip-path="url(#aa298c698-d244-4ff1-b6e1-985158c34894cf2833fd-33d7-4edb-bad9-f5a96f3ebf4d)"><path d=" M 10.365466098511323 -4.0376024962811705 C 10.020916844552417 -4.3660727850553265 9.238024373056904 -5.196436487096289 9.238024373056904 -5.9640156584158515 C 9.238024373056904 -6.5294592674128555 9.078383218722612 -6.847210246063847 8.875481991391256 -7.249184375682569 C 8.75144425996605 -7.495345676010986 8.610561898347298 -7.774813404222099 8.478867516834116 -8.159560071142877 C 8.358658110452899 -8.510617477676561 8.270606634441178 -8.903786459694112 8.186000650969046 -9.283939136562106 C 8.052009274429473 -9.8842205034594 7.9034702627227436 -10.569490686333221 7.673387927579075 -10.550349061113284 C 7.632424849608405 -10.547669233582491 7.614048889397262 -10.530441770884547 7.6025639142653 -10.515894135717392 C 7.49575364553804 -10.378074434133831 7.588016279098145 -9.891494321042977 7.669559602535086 -9.46195625110754 C 7.726984478194906 -9.1602842376413 7.786323516376717 -8.847892914051892 7.802402481561463 -8.573019175893565 C 7.812356126675834 -8.40151021392291 7.805082309092256 -8.239954897066623 7.682575907684646 -8.217750611811493 C 7.385880716775588 -8.157645908620884 6.89394094862315 -9.646098685723356 6.889346958570366 -9.661411985899308 C 6.85642336319207 -9.767073757113373 6.823499767813773 -9.885369000972595 6.7894276749222815 -10.008258234884606 C 6.668069771027868 -10.445835787412415 6.517233764294746 -10.989840776163089 6.300550566805035 -11.091674222333165 C 6.253845001268385 -11.113878507588293 6.2063737707229345 -11.112347177570697 6.150097392576313 -11.087080232280378 C 5.883645969514759 -10.96725365840356 6.179958327919418 -10.177853034333268 6.4184629781598606 -9.543499574544484 C 6.512639774241963 -9.293127116667677 6.60145691526248 -9.05615379644483 6.6676869385234685 -8.840236263963916 C 6.776794202277122 -8.484202034873048 6.776028537268326 -8.327623540573944 6.665007110992677 -8.28168364004609 C 6.4693797012449 -8.198226154087155 6.116790964693619 -8.764052595588558 5.856847694206844 -9.252164038697007 C 5.361079601010419 -10.18282985689045 5.042945789855031 -10.727600510649921 4.882156138007541 -10.760524106028218 C 4.861866015274404 -10.764352431072206 4.8346849074620915 -10.762055436045813 4.776111534289078 -10.714967038004762 C 4.459891885655682 -10.459617757570772 5.284513100130663 -9.202778645629564 5.680744742183405 -8.599051786192682 C 5.776452868283101 -8.45280976951235 5.860676019250833 -8.324560880538755 5.922694884963436 -8.223110266873077 C 6.154691382629099 -7.844871752527079 6.103391827039662 -7.69977823335994 6.0195515085763285 -7.644650352726513 C 5.782578188353481 -7.489220355940608 5.320116523039749 -8.107112018040247 5.183828151473783 -8.300059600257232 C 4.597328754734845 -9.131954632315791 4.315564031497342 -9.318776894462395 4.182721152470962 -9.329113372081164 C 4.1512918904008025 -9.3326108855615 4.120097133855968 -9.320788215272817 4.098880834007628 -9.297338274216065 C 4.036096303286227 -9.234170910990265 3.9132070693742182 -9.110898844573857 4.506597451192333 -8.363226963483033 C 4.997771554335974 -7.7441868038702 5.926906042511821 -6.40886702852724 5.877520649444379 -6.1695967132780005 C 5.868537479404377 -6.1383696821201035 5.8488958380787635 -6.111277763050289 5.8220099363065545 -6.093030212398244 C 5.7132855050573 -6.0340740067208305 5.532205730476676 -6.136673117899704 4.999302884353569 -6.468588899213449 C 4.782236854359457 -6.603728773266221 4.53569272152664 -6.757244607530133 4.323220681585315 -6.869031698814577 C 4.231340880529609 -6.916885761864426 4.149414724588269 -6.94100420964155 4.0762937162481 -6.94100420964155 C 3.9717804425472325 -6.94100420964155 3.885643129057505 -6.892001649078505 3.8159676132569267 -6.793230862943618 C 3.779010585341184 -6.739940362946337 3.7922023138330028 -6.66678623221898 3.845445716095634 -6.629761383565338 C 4.091224183919652 -6.455955426568291 4.607665232353614 -6.0654662720815296 5.302123395333007 -5.403548871976033 C 5.8752236544179866 -4.857629720703368 6.539055217045478 -4.577779159987857 6.9953915622888285 -4.439193793395496 C 7.319853414374224 -4.340568475487897 7.57905728862624 -4.095118854957132 7.695209380329805 -3.776510728281199 L 8.03363331421833 -2.7401831388736912 C 8.277880452024753 -3.1046396830613343 8.97501844253494 -3.923135577465935 10.365466098511323 -4.0376024962811705" fill="#e8a941" transform="matrix(1,0,0,1,0,0)" fill-rule="nonzero"></path></g><g clip-path="url(#aa298c698-d244-4ff1-b6e1-985158c34894cf2833fd-33d7-4edb-bad9-f5a96f3ebf4d)"><path d=" M 10.223435239379375 -11.231025253934321 C 10.118438883837769 -10.983506254838591 9.934050067956349 -10.777971314710728 9.69933754085744 -10.646822852221778 C 9.931113130120945 -10.507834175348886 10.112450256418354 -10.298464904527691 10.216927086804596 -10.049221312855275 C 10.320441806242242 -10.302808979636474 10.50679708788511 -10.513858697586834 10.745618775379315 -10.647971349734974 C 10.511830679564813 -10.779180397829375 10.328177090045319 -10.984242287006937 10.223435239379375 -11.231025253934323" fill="#bdbfc3" transform="matrix(1,0,0,1,0,0)" fill-rule="nonzero"></path></g><g clip-path="url(#aa298c698-d244-4ff1-b6e1-985158c34894cf2833fd-33d7-4edb-bad9-f5a96f3ebf4d)"><path d=" M 10.347090138300182 -13.892476824514668 C 9.063918461444853 -14.953230316137102 7.450489520243355 -15.532385631413542 5.785640848388666 -15.529851445828267 C 4.1305355166448425 -15.532105594818812 2.5260301350003678 -14.959425593543664 1.2463958437322895 -13.909704287212612 C 0.883343796547337 -13.612687784350957 0.5501076263994604 -13.28099021906717 0.25141416479984935 -12.919316598332959 C -0.8093393268225832 -11.63614492147763 -1.3884946420990234 -10.022715980276136 -1.3859604565137484 -8.357867308421445 C -1.3859604565137484 -6.62555022601695 -0.7715142869537003 -5.0364125002575975 0.2514141647998507 -3.7968008510143356 C 0.5509370086338286 -3.434043586895582 0.8852084554254964 -3.1014390096122693 1.2494585037674706 -2.8037333346038977 C 2.528629949252692 -1.755616464559651 4.131910784700165 -1.183934336973726 5.7856408483886685 -1.1862660035190284 C 6.383625220259571 -1.1862660035190284 6.9639992969281295 -1.260535509372394 7.519489260810765 -1.3983552109559572 L 7.600266919238907 -1.4182625011846905 C 7.6741535925878726 -1.4377869589090313 7.746891768423643 -1.4592255791553637 7.819629944259411 -1.4806641994016907 C 7.868632504822456 -1.4952118345688437 7.918017897889898 -1.5093766372316022 7.966637625948545 -1.5250727699119526 C 8.021382674077572 -1.5426830651142946 8.075362057197799 -1.561441857829836 8.129724272822427 -1.5802006505453754 C 8.195188631074618 -1.6031706008093032 8.261035821831209 -1.6261405510732274 8.325734515074604 -1.6506418313547524 C 8.44348970996637 -1.695402985806842 8.56003923292895 -1.7432738194442656 8.675260591590723 -1.7942040205043082 L 8.714692339543769 -1.8118143157066413 L 8.46508554667576 -2.392571224879598 C 8.377111283375434 -2.3590012855192803 8.284290285862635 -2.3398682665333563 8.190211808517434 -2.335912014228576 C 8.126751045592849 -2.3331186130649293 8.063771003852374 -2.3481012335210867 8.008366368928012 -2.3791720872256388 C 7.967736020770051 -2.4054564649998316 7.939649473980282 -2.447240391751116 7.930651370535058 -2.494787503554072 C 7.929502873021862 -2.497467331084861 7.926823045491071 -2.4986158285980586 7.926057380482275 -2.5012956561288497 L 7.528294408411938 -3.719468685125779 C 7.430500814181933 -3.9843239259373693 7.2142825262735855 -4.1880735314499535 6.9440920066993925 -4.269981826451231 C 6.90121476620673 -4.282998131600788 6.854892033174476 -4.2986942642811385 6.808569300142224 -4.314007564457091 C 6.795105970513211 -4.304475023041023 6.7791195881672195 -4.299146228925691 6.762629399614369 -4.2986942642811385 C 6.751144424482407 -4.298311431776739 5.588482108623299 -4.272661653982022 4.1662593547818165 -3.6306515441052607 C 4.1406421906136925 -3.6188018343417045 4.110897071450131 -3.6199510311325245 4.086270525833496 -3.63374189667784 C 4.0616439802168625 -3.6475327622231557 4.045121332379175 -3.6722935149530347 4.041838790852212 -3.70032705990584 C 4.039924628330218 -3.7175545226037823 3.816733278265726 -5.429964314779545 2.6253585245767113 -6.673021456562395 C 1.394169190430222 -7.957807341324716 1.044643113914133 -9.864313213230659 1.0304783112513771 -9.945090871658802 C 1.026429857001692 -9.968571698484276 1.0319440409027747 -9.992696253051516 1.0457916114273291 -10.01208655992859 C 1.0598550704621004 -10.031400975360544 1.0811069626969014 -10.04423491028156 1.1047478171047431 -10.047689982837678 C 1.11431862971471 -10.049221312855273 2.072931220729266 -10.196228994544406 2.984838246207169 -10.884179004949022 C 3.650201138852257 -11.386455250720225 4.964465126453281 -12.23213225293714 6.290596921690669 -12.25357087318347 C 7.3567854464412825 -12.270798335881416 8.460108724118578 -12.893666820538238 8.470828034241745 -12.899792140608618 C 8.498009142054059 -12.91510544078457 8.531315569936751 -12.915488273288968 8.558496677749066 -12.900174973113018 C 8.585441310918235 -12.884635510467737 8.60239676571931 -12.856231500715506 8.603288080763724 -12.825139802250856 C 8.603670913268122 -12.797575861934142 8.673346429068701 -10.076019588163188 9.686704068212283 -8.749122127917003 C 10.69470205229428 -7.428349987741198 11.348197137303005 -6.57463350293191 11.348197137303005 -6.57463350293191 C 11.370135337766392 -6.545479497683353 11.372106534443166 -6.505903933634308 11.353173959860188 -6.474714219283825 C 11.332118172118255 -6.440259293887937 10.82409943878107 -5.629420049571314 9.534719563965965 -5.44144928991151 C 9.840219902476194 -4.7171301915890105 10.626940699015694 -4.0379853287855685 10.63804284164326 -4.028414516175598 C 10.64956174581838 -4.017758210347237 10.658133236035168 -4.004307564160891 10.662926954429182 -3.9893656007269254 L 10.66598961446437 -3.9782634580993594 C 10.66675527947317 -3.974435133055371 10.668669441995162 -3.970989640515782 10.669052274499562 -3.9671613154717935 C 10.691639392259088 -3.639839524210835 10.519747597784034 -3.563655855835478 10.417148486605159 -3.5177159553076223 C 10.395096315776962 -3.5099264501448673 10.374421093611394 -3.498684298092339 10.355895285901354 -3.4844095274249263 C 10.354746788388159 -3.4824953649029347 10.352449793361764 -3.482112532398535 10.35130129584857 -3.4801983698765415 L 10.619284048927717 -3.0602311125510724 C 10.707335524939436 -3.1410087709792176 10.793472838429166 -3.223700591929356 10.877695989396896 -3.3086894079058844 L 10.912533747297186 -3.3450584958237712 C 10.98335776061096 -3.41741383915514 11.053416108915938 -3.4913005125041057 11.121177462194524 -3.566718515870665 C 11.141850417432059 -3.589688466134591 11.161374875156397 -3.6134240814073184 11.18166499788953 -3.6367768641756424 C 11.239089873549348 -3.7018583899234354 11.29574908420037 -3.767705580680028 11.350494132329397 -3.8350841014542123 C 11.376143910124116 -3.866859199319311 11.401028022910035 -3.8993999621932094 11.426294968200354 -3.931557892562706 C 11.473383366241405 -3.991662595753315 11.520471764282455 -4.0517672989439255 11.56564599980151 -4.11340333215213 C 11.594741270135819 -4.153217912609604 11.622688042956929 -4.1934153255714754 11.651017648282442 -4.233612738533349 C 11.7239246397721 -4.334816403467734 11.793135248607797 -4.438632316721275 11.85851286566659 -4.544855564609572 C 11.889905131027282 -4.594240957677002 11.920914563883583 -4.644009183248844 11.951158331731088 -4.694543073829482 C 12.010166352600594 -4.793758780158447 12.066841122225153 -4.894343731654288 12.12113596368417 -4.996215087295765 C 12.155208056575638 -5.060530948034719 12.188131651953935 -5.125229641278114 12.220672414827831 -5.190693999530307 L 12.27503463045246 -5.303246755823549 C 12.362816886786824 -5.488205665919807 12.442270450228884 -5.677003683230685 12.513156448188512 -5.869073197324974 L 12.534212235930436 -5.927263737993568 C 12.568667161326326 -6.023354696597664 12.601973589209019 -6.119828487706156 12.632600189560923 -6.217833608832246 L 12.639108342135701 -6.239655061582976 C 12.845837894511044 -6.9092291117764475 12.957624985795489 -7.62053190494939 12.957624985795489 -8.357867308421447 C 12.957624985795489 -10.080613578215974 12.34968696881022 -11.660946156374155 11.337477827179836 -12.897495145582228 C 11.040362273999124 -13.260457752789748 10.708673861627721 -13.593684727568748 10.347090138300171 -13.892476824514677 M 1.5515133497381202 -6.173042205817588 C 1.5531529029663376 -6.220810558009992 1.5921527048178836 -6.258797377995263 1.6399476582542394 -6.259179519307313 C 1.6878017213040875 -6.259179519307313 1.726850636752764 -6.220896268867435 1.728381966770359 -6.173042205817588 C 1.7291476317791572 -6.148923758040464 1.7528832470518814 -5.575440666451085 2.394127691919846 -5.300949760797158 C 2.4266694136567395 -5.287112739817401 2.4477764833379423 -5.2551506057287245 2.447724242535674 -5.219789269864616 C 2.4477764833379423 -5.184427934000507 2.4266694136567413 -5.15246579991183 2.394127691919846 -5.138628778932075 C 1.7528832470518814 -4.864137873278146 1.7291476317791585 -4.290654781688767 1.728381966770359 -4.266536333911645 C 1.7271842741205714 -4.2198282566046785 1.6897125692944908 -4.182188517227807 1.6430103182894311 -4.180781852926316 L 1.6399476582542407 -4.180399020421918 C 1.5942282461498145 -4.180407624879875 1.5560524916977556 -4.215263748510015 1.5518961822425217 -4.260793846345662 C 1.5495991872161272 -4.285677959131585 1.488728819016722 -4.876388513418908 0.8853847920842384 -5.138628778932073 C 0.852754722001059 -5.152447899036185 0.8315880571586391 -5.184480791701278 0.831671631714296 -5.219916403300045 C 0.8317552062699534 -5.255352014898813 0.8530727333453085 -5.2872847089980635 0.8857676245886377 -5.300949760797158 C 1.5270120694566 -5.575440666451085 1.5511305172337235 -6.148923758040464 1.5515133497381228 -6.173042205817588 M 2.9071232478142166 -12.142549446907825 C 2.183186981996116 -11.832837950849209 2.156388706688203 -11.185085353406468 2.155623041679403 -11.157521413089754 C 2.1544253490296157 -11.11081333578279 2.1169536442035346 -11.073173596405919 2.070251393198475 -11.071766932104428 L 2.067571565667683 -11.071766932104428 C 2.0219161693098955 -11.071576265928188 1.983688264067481 -11.106313797213687 1.9795200896559626 -11.151778925523772 C 1.9768402621251702 -11.180108530849282 1.9083132438377892 -11.846619921007564 1.227254218512352 -12.142549446907825 C 1.1949570979952129 -12.15670646591834 1.1741575785321223 -12.18869815479334 1.1743239146646935 -12.223961414898632 C 1.1744902507972665 -12.259224675003926 1.1955906463765915 -12.291018722770234 1.2280198835211489 -12.30487042877291 C 1.9519561493392512 -12.614581924831526 1.9783715921427665 -13.26233452227427 1.9791372571515633 -13.289898462590982 C 1.9791372571515633 -13.338633666269306 2.0186449457371585 -13.3781413548549 2.067380149415483 -13.3781413548549 C 2.116115353093808 -13.3781413548549 2.1556230416794016 -13.338633666269306 2.1556230416794016 -13.289898462590982 C 2.1563887066882 -13.26233452227427 2.1831869819961147 -12.614581924831526 2.9071232478142157 -12.30487042877291 C 2.9397855333499967 -12.291128170785566 2.9610274378513335 -12.259145436298999 2.9610274378513335 -12.223709937840368 C 2.9610274378513335 -12.188274439381736 2.9397855333499967 -12.15629170489517 2.9071232478142157 -12.142549446907825 M 11.031594656165208 -10.647971349734974 C 11.03154561989838 -10.612640434374551 11.010472082381439 -10.580729077563184 10.977998105549384 -10.566810858802434 C 10.336370828177015 -10.292702785652903 10.312635212904292 -9.719219694063526 10.311869547895494 -9.694718413782 C 10.310671855245706 -9.64801033647504 10.273200150419624 -9.610370597098168 10.226497899414564 -9.608963932796673 L 10.223435239379375 -9.608963932796673 C 10.17784949015829 -9.608954064780605 10.139725262327122 -9.643597384853273 10.135383763367654 -9.68897592621602 C 10.133086768341263 -9.71424287150634 10.072216400141857 -10.304570593289263 9.468872373209372 -10.56719369130683 C 9.436615272401596 -10.581307871107933 9.41574127560304 -10.613144470541702 9.41565865509794 -10.648354182239373 C 9.41565865509794 -10.68357477264406 9.437097275344273 -10.71534987050916 9.46925520571377 -10.729514673171915 C 10.110499650581735 -11.003622746321444 10.134618098358859 -11.577105837910821 10.135000930863256 -11.601607118192344 C 10.135000930863256 -11.650448038147628 10.174594319424092 -11.690041426708463 10.223435239379375 -11.690041426708463 C 10.27227615933466 -11.690041426708463 10.311869547895494 -11.650448038147628 10.311869547895494 -11.601607118192344 C 10.312635212904292 -11.577105837910821 10.336370828177015 -11.003622746321444 10.977615273044979 -10.729514673171915 C 11.010367227848963 -10.715659343273424 11.031633699511742 -10.683533396719016 11.031594656165208 -10.647971349734974" fill="#bdbfc3" transform="matrix(1,0,0,1,0,0)" fill-rule="nonzero"></path></g><g clip-path="url(#aa298c698-d244-4ff1-b6e1-985158c34894cf2833fd-33d7-4edb-bad9-f5a96f3ebf4d)"><path d=" M 0.8321710739728059 -5.219789269864615 C 0.8320534038473877 -5.184519805457718 0.852993035826421 -5.152583100568831 0.8853847920842366 -5.138628778932073 C 1.4887288190167207 -4.876005680914506 1.5495991872161272 -4.285677959131583 1.55189618224252 -4.260411013841264 C 1.5560643566540389 -4.214945885531177 1.5942922618964528 -4.1802083542456785 1.6399476582542394 -4.180399020421916 L 1.6430103182894302 -4.180399020421916 C 1.6897125692944894 -4.181805684723409 1.7271842741205714 -4.219445424100281 1.728381966770359 -4.266153501407244 C 1.7291476317791563 -4.290654781688767 1.7532660795562798 -4.864137873278144 2.394510524424243 -5.1382459464276735 C 2.4266684547937407 -5.1524107490904285 2.448107075040072 -5.184185846955527 2.448107075040072 -5.219406437360215 C 2.4480104831140874 -5.254816328781324 2.426977652547113 -5.286816278143938 2.3945105244242484 -5.300949760797154 C 1.7532660795562798 -5.575057833946687 1.7291476317791563 -6.148540925536064 1.728381966770359 -6.173042205817586 C 1.7283819660425728 -6.221883124971814 1.6887885777897007 -6.261476512704338 1.6399476584097825 -6.2614765127902405 C 1.5911067390298639 -6.261476512876143 1.5515133506377143 -6.221883125282897 1.5515133497381206 -6.173042205902981 C 1.5511305172337222 -6.148540925536064 1.5270120694565987 -5.575057833946687 0.8857676245886354 -5.300949760797156 C 0.853293647756578 -5.287031542036408 0.8322201102396378 -5.25512018522504 0.8321710739728059 -5.219789269864615 M 1.6399476582542394 -5.802460341559565 C 1.7449115486378117 -5.5558184842589515 1.9285077381087912 -5.350820686191282 2.1621311942541803 -5.219406437360217 C 1.9233361621489 -5.085438292270931 1.7369750316515682 -4.874516896928911 1.6334395056794602 -4.621039232984916 C 1.5289860791171876 -4.870198315231592 1.3476333358457984 -5.0794514805447335 1.115849959732305 -5.218257939847019 C 1.350562486831215 -5.349406402335969 1.5349513027126331 -5.554941342463833 1.6399476582542403 -5.802460341559565" fill="#262626" transform="matrix(1,0,0,1,0,0)" fill-rule="nonzero"></path></g><g clip-path="url(#aa298c698-d244-4ff1-b6e1-985158c34894cf2833fd-33d7-4edb-bad9-f5a96f3ebf4d)"><path d=" M 10.311869547895494 -11.601224285687945 C 10.311869547895494 -11.650065205643228 10.272276159334659 -11.689658594204065 10.223435239379375 -11.689658594204065 C 10.174594319424092 -11.689658594204065 10.135000930863256 -11.650065205643228 10.135000930863255 -11.601224285687945 C 10.134618098358859 -11.577105837910821 10.110499650581735 -11.003239913817044 9.46925520571377 -10.729131840667515 C 9.43656031447044 -10.71546678886842 9.415242787395087 -10.68353409476917 9.41515921283943 -10.648098483170402 C 9.415075638283772 -10.612662871571633 9.43624230312619 -10.58062997890654 9.468872373209372 -10.56681085880243 C 10.071833567637457 -10.304570593289263 10.133086768341263 -9.71386003900194 10.135383763367654 -9.68897592621602 C 10.139540072822887 -9.643445828380372 10.177715827274946 -9.608589704750232 10.223435239379375 -9.608581100292273 L 10.226115066910168 -9.608581100292273 C 10.272820632446818 -9.610112430309869 10.310338217877899 -9.647630015740951 10.311869547895494 -9.694335581277603 C 10.312635212904292 -9.718836861559124 10.336370828177015 -10.292319953148503 10.977998105549378 -10.56642802629803 C 11.009984111019477 -10.58090310226568 11.030504076715834 -10.61279496559547 11.030421467851443 -10.647903732961725 C 11.03033885898705 -10.68301250032798 11.009669041974169 -10.714807446521982 10.977615273044979 -10.729131840667515 C 10.336370828177015 -11.003239913817044 10.312635212904292 -11.577105837910821 10.311869547895494 -11.601224285687945 M 10.216927086804596 -10.049221312855273 C 10.11238130039971 -10.298422110861903 9.931060930627847 -10.507772034836666 9.699337540857439 -10.646822852221778 C 9.934023266755073 -10.777827595484357 10.118417603076217 -10.983233996426463 10.223435239379375 -11.230642421429922 C 10.32832206562989 -10.984048787417041 10.511949095421237 -10.779151177928458 10.745618775379315 -10.647971349734974 C 10.50687397349268 -10.513763556993084 10.320545733402366 -10.302744463943663 10.216927086804596 -10.049221312855273" fill="#262626" transform="matrix(1,0,0,1,0,0)" fill-rule="nonzero"></path></g><g clip-path="url(#aa298c698-d244-4ff1-b6e1-985158c34894cf2833fd-33d7-4edb-bad9-f5a96f3ebf4d)"><path d=" M 2.907123247814214 -12.304870428772912 C 2.183186981996114 -12.614581924831526 2.1567715391925977 -13.26233452227427 2.1560058741837995 -13.289898462590982 C 2.1517523899957456 -13.335561658830136 2.113432438081029 -13.37047803016209 2.0675715656676807 -13.37047803016209 C 2.0217106932543323 -13.37047803016209 1.9833907413396163 -13.335561658830136 1.979137257151562 -13.289898462590982 C 1.9783715921427638 -13.26233452227427 1.9519561493392485 -12.614581924831526 1.2280198835211475 -12.304870428772912 C 1.1956242426381656 -12.290941898251853 1.1745996182543643 -12.259098608856666 1.1745164509545325 -12.223835673727903 C 1.1744332836547007 -12.188572738599138 1.1953074707820344 -12.156630631252273 1.2276370510167487 -12.142549446907827 C 1.9083132438377866 -11.846619921007566 1.9768402621251688 -11.180108530849283 1.9795200896559604 -11.151778925523773 C 1.9836763991111939 -11.106248827688127 2.021852153563253 -11.071392704057986 2.0675715656676803 -11.071384099600028 L 2.0702513931984723 -11.071384099600028 C 2.116956958735124 -11.072915429617623 2.1544745441662045 -11.110815847553104 2.1560058741837995 -11.157521413089755 C 2.1567715391925977 -11.185085353406468 2.1831869819961134 -11.83283795084921 2.907123247814214 -12.142166614403427 C 2.9394287945545363 -12.156320358833124 2.960298394832379 -12.188248465852851 2.960298394832379 -12.223518521588169 C 2.960298394832379 -12.258788577323486 2.9394287945545363 -12.290716684343213 2.907123247814214 -12.304870428772912 M 2.060680580588503 -11.526189114825783 C 1.9437571294599896 -11.818707573577576 1.732487285466605 -12.063796761220413 1.460399213691208 -12.222561440327173 C 1.8060969651633116 -12.416657520057356 1.980285754664758 -12.684640273136505 2.0675715656676807 -12.902854800643812 C 2.1548573766706034 -12.685023105640903 2.3282805011632535 -12.417806017570552 2.67244692261776 -12.223709937840368 C 2.318709688553284 -12.023871370544203 2.145286564060634 -11.747083469863883 2.060680580588503 -11.526189114825783" fill="#262626" transform="matrix(1,0,0,1,0,0)" fill-rule="nonzero"></path></g><g clip-path="url(#aa298c698-d244-4ff1-b6e1-985158c34894cf2833fd-33d7-4edb-bad9-f5a96f3ebf4d)"><path d=" M 5.785640848388671 -15.835734616842895 C 1.662151943509369 -15.835734616842895 -1.692226460032776 -12.48135621330075 -1.692226460032776 -8.357867308421447 C -1.692226460032776 -4.234378403542145 1.662151943509369 -0.8800000000000008 5.785640848388671 -0.8800000000000008 C 9.909129753267974 -0.8800000000000008 13.263508156810119 -4.234378403542145 13.263508156810119 -8.357867308421447 C 13.263508156810119 -12.48135621330075 9.909129753267974 -15.835734616842895 5.785640848388671 -15.835734616842895 M 9.730346973713742 -2.3692184421112703 L 9.687852565725477 -2.342037334298956 C 9.581244892451403 -2.2728893914061086 9.472867075652792 -2.206509574285638 9.362827769490892 -2.142964432011574 C 9.330287006617011 -2.124205639296047 9.298129076247514 -2.105064014076108 9.265205480869218 -2.086688053864968 C 9.14309861326053 -2.018353081512103 9.019007169963915 -1.953626371891339 8.893092286593578 -1.8925919741347723 L 8.875481991391258 -1.8845524915424097 L 8.420294143661103 -2.944232863718243 C 8.705121526933798 -3.2539443597768596 9.190170310007057 -3.6352455341580487 9.939756353619876 -3.7964180185099377 L 10.484527007379345 -2.9423187011962497 C 10.245671478639489 -2.7353248943505246 9.993758887144963 -2.5438968996970743 9.730346973713708 -2.369218442111242 M 8.03363331421833 -2.7401831388736912 L 7.695209380329805 -3.776510728281199 C 7.579164014540522 -4.095107983373444 7.3198935373688325 -4.34047883977772 6.9953915622888285 -4.438810960891098 C 6.539055217045478 -4.577396327483456 5.8752236544179866 -4.857246888198967 5.302123395333007 -5.403548871976032 C 4.607665232353614 -6.065083439577132 4.091224183919653 -6.4559554265682895 3.8450628835912353 -6.629761383565338 C 3.7919492292278116 -6.6669071781881755 3.7789326361716578 -6.740039878648412 3.8159676132569285 -6.793230862943616 C 3.885643129057507 -6.8916188165741055 3.9717804425472334 -6.941004209641548 4.076293716248101 -6.941004209641548 C 4.149414724588269 -6.941004209641548 4.231340880529609 -6.916885761864425 4.323220681585317 -6.868648866310178 C 4.535692721526642 -6.757244607530131 4.78185402185506 -6.6037287732662175 4.999302884353569 -6.468206066709049 C 5.532205730476676 -6.136290285395303 5.712902672552903 -6.034074006720829 5.822009936306555 -6.093030212398242 C 5.844979886570483 -6.105280852539002 5.872160994382797 -6.14394693548328 5.87752064944438 -6.169596713277999 C 5.926906042511823 -6.408867028527238 4.997771554335974 -7.744186803870196 4.506597451192334 -8.36322696348303 C 3.913207069374219 -9.110898844573855 4.036096303286229 -9.234170910990263 4.0988808340076295 -9.296955441711663 C 4.122616449280354 -9.321839554497586 4.148266227075072 -9.331410367107555 4.182721152470964 -9.329113372081164 C 4.315564031497342 -9.318776894462395 4.597328754734847 -9.13157179981139 5.183828151473783 -8.300059600257232 C 5.320116523039751 -8.107112018040244 5.782578188353481 -7.489220355940608 6.0195515085763285 -7.644650352726513 C 6.103391827039663 -7.699778233359938 6.1546913826291 -7.844871752527077 5.922694884963437 -8.223110266873075 C 5.84377145864248 -8.349400467929929 5.763113773876643 -8.474598551403478 5.680744742183364 -8.598668953688351 C 5.284513100130663 -9.202778645629564 4.459509053151284 -10.459617757570772 4.776111534289078 -10.714967038004762 C 4.8346849074620915 -10.762055436045811 4.861866015274406 -10.763969598567805 4.882156138007542 -10.760524106028216 C 5.042562957350631 -10.727600510649921 5.361079601010419 -10.18244702438605 5.856464861702447 -9.252164038697007 C 6.116408132189222 -8.764052595588558 6.4693797012449 -8.197843321582756 6.665007110992679 -8.28130080754169 C 6.776028537268326 -8.327623540573942 6.776794202277124 -8.484202034873046 6.66768693852347 -8.840236263963915 C 6.591573270750684 -9.077066355300875 6.508462182990032 -9.31159026961166 6.4184629781598534 -9.543499574544501 C 6.17995832791942 -10.177853034333268 5.8836459695147605 -10.96725365840356 6.150097392576313 -11.087080232280378 C 6.2063737707229345 -11.1119643450663 6.253845001268384 -11.113878507588293 6.300550566805035 -11.091674222333165 C 6.516850931790348 -10.989840776163089 6.668069771027868 -10.445835787412417 6.789427674922283 -10.008258234884606 C 6.823499767813775 -9.885369000972595 6.856040530687672 -9.767073757113373 6.889346958570366 -9.661411985899308 C 6.893940948623152 -9.646098685723356 7.385880716775588 -8.157645908620884 7.682575907684646 -8.217750611811493 C 7.805082309092256 -8.239954897066621 7.812356126675834 -8.40151021392291 7.802402481561465 -8.573019175893565 C 7.786323516376717 -8.847892914051892 7.726984478194906 -9.1602842376413 7.669559602535088 -9.46195625110754 C 7.588016279098147 -9.891494321042977 7.49575364553804 -10.378074434133831 7.6025639142653 -10.515894135717392 C 7.614048889397264 -10.530441770884547 7.6320420171040055 -10.547669233582493 7.673387927579075 -10.549966228608884 C 7.9034702627227436 -10.569490686333221 8.052009274429473 -9.8842205034594 8.186000650969046 -9.283939136562106 C 8.270606634441178 -8.903786459694114 8.358275277948499 -8.510617477676563 8.478484684329718 -8.159560071142877 C 8.610561898347298 -7.774813404222099 8.751444259966052 -7.495345676010988 8.875481991391258 -7.249184375682569 C 9.078000386218214 -6.846827413559447 9.238024373056904 -6.5294592674128555 9.238024373056904 -5.9640156584158515 C 9.238024373056904 -5.196436487096289 10.020916844552419 -4.3660727850553265 10.365466098511323 -4.0376024962811705 C 8.97501844253494 -3.923135577465935 8.277497619520355 -3.1042568505569346 8.03363331421833 -2.7401831388736912 M 8.395410030875182 -2.554509374240281 C 8.338971987338892 -2.534472955406933 8.280382922269803 -2.521110537057842 8.220838408869335 -2.514694793782807 C 8.187793540421978 -2.510817870574048 8.154318086976316 -2.5130236175065175 8.12206762273445 -2.5212029463575885 C 8.117456988357219 -2.522429601397132 8.11306557446073 -2.5243669898808765 8.10905131758489 -2.5269454339235704 C 8.136615257901603 -2.575565161982217 8.194805798570219 -2.672038953090711 8.29204525468751 -2.7953110195071176 Z M 7.49575364553804 -9.429032655729245 C 7.5524128561890596 -9.132720297324587 7.610603396857675 -8.82645429380556 7.625916697033626 -8.562682698274799 C 7.628812524709657 -8.521400659700088 7.629323817862813 -8.47998591429452 7.627448027051221 -8.438644966849594 C 7.486565665432469 -8.622404568961008 7.205183774699362 -9.243358891095836 7.0577932605058304 -9.71386003900194 C 7.025635330136332 -9.81799048019841 6.993094567262435 -9.93475439404004 6.959788139379741 -10.055729465430055 C 6.815077452717 -10.5767645039168 6.665772776001475 -11.115409837605888 6.375585737667198 -11.251698209171856 C 6.28091140336717 -11.295740477081651 6.171372211579355 -11.294473314194644 6.077742049244943 -11.248252716632267 C 5.659688954441471 -11.060664789476863 5.947961830253755 -10.293468450661699 6.253079336259585 -9.481480708831878 C 6.34610763482849 -9.233405245981466 6.434159110840211 -8.99911175328941 6.498857804083606 -8.788553875870083 C 6.5459462021246555 -8.634272376597371 6.563939329831399 -8.542392575541662 6.570064649901779 -8.489178857430232 C 6.464402878687714 -8.591012303600309 6.258056158816769 -8.874308356855408 6.01266052349715 -9.335238692151545 C 5.359931103497223 -10.560685538732052 5.134825590910737 -10.889155827506208 4.917376728412229 -10.933564398016468 C 4.809417962171771 -10.955385850767199 4.725960476212837 -10.901789300151368 4.66509010801343 -10.852403907083925 C 4.2577563233331235 -10.52355078580537 4.8431072225588645 -9.553070387154452 5.532971395485473 -8.501812330075392 C 5.627531024071972 -8.357867308421449 5.710605677526509 -8.230766916961054 5.771858878230314 -8.130847633312971 C 5.88326313701036 -7.949385026227946 5.910827077327073 -7.8441060875182815 5.913124072353466 -7.80046318201682 C 5.84574555157928 -7.822667467271948 5.646289816787513 -7.950916356245542 5.328156005632123 -8.401893046427311 C 4.811332124693765 -9.134634459846582 4.451852403063308 -9.485309033875868 4.196503122629318 -9.505216324104605 C 4.108358646836361 -9.512380885466515 4.021984051459611 -9.477632485027591 3.9633581274504586 -9.411422360526903 C 3.818647440787718 -9.265946008855366 3.730213132271599 -9.05691946145363 4.3680120845999735 -8.253354034720582 C 4.959105471391696 -7.508361981160547 5.5616838333153815 -6.575399167940713 5.6818932396966 -6.276024149500863 C 5.551347355696615 -6.332683360151883 5.3013577303242085 -6.488496189442188 5.092714015426871 -6.618276408433376 C 4.87296815790197 -6.755330445008141 4.623744197538361 -6.9107604417940465 4.405146837526655 -7.025227360609282 C 3.9974302203419505 -7.239613563072602 3.770410545233471 -7.035946670732448 3.671256926594186 -6.895064309113696 C 3.578638039518145 -6.761935342370789 3.6107769210189984 -6.579017240211677 3.7432294374211574 -6.485433529406997 C 3.985179580201189 -6.314307399940741 4.493581146042774 -5.929560733019962 5.180382658934192 -5.275299983002441 C 5.593076098676082 -4.882131000984888 6.048646778910635 -4.623719060515709 6.447941080998566 -4.452592931049454 C 6.017254513549935 -4.406270198017202 5.183062486464985 -4.266153501407246 4.199565782664508 -3.8389124264982026 C 4.128358936846335 -4.255817023788477 3.8171161107701232 -5.68454793020474 2.7532245810459024 -6.795145025465613 C 1.7046463514976327 -7.889280323037337 1.3057348819141001 -9.500622334051819 1.2218945634507663 -9.889197326016586 C 1.4906429815387128 -9.942793876632415 2.2984195658201463 -10.144546606450573 3.091265682430029 -10.743296643330272 C 4.194206127602925 -11.575574507893228 5.361462433514817 -12.061771788479685 6.293276749221458 -12.076702256151236 C 7.200972617150974 -12.091249891318391 8.104074495027707 -12.51006865113066 8.431396286288667 -12.678132120561726 C 8.45896022660538 -12.086655901265605 8.622046873479261 -9.852062573089903 9.546204539097927 -8.641546194180947 C 10.409874669021582 -7.509893311178143 11.013218695954064 -6.72087551961225 11.168265860235573 -6.518357124785291 C 11.038485641244383 -6.344551167788245 10.528552745385205 -5.7569032735361105 9.487248333420512 -5.61219258687337 C 9.482654343367727 -5.61180975436897 9.47844318581934 -5.609129926838179 9.474232028270952 -5.607598596820585 C 9.436738563469566 -5.722768024713055 9.416736256632603 -5.842910912875714 9.414892990089143 -5.9640156584158515 C 9.414892990089143 -6.5715708428967226 9.246446688153677 -6.9057836192368605 9.033591815707954 -7.328430704093119 C 8.911851079309141 -7.5699980143687515 8.774031377725578 -7.843340422509483 8.645782488751985 -8.216984946802697 C 8.528635742405957 -8.558471540726412 8.442115596411831 -8.947046532691179 8.358275277948499 -9.322222387001986 C 8.180258163403064 -10.120045326169052 8.03975863428871 -10.751336125922647 7.662285784951509 -10.726834845641125 C 7.583943230836553 -10.72364737755291 7.510981260487645 -10.68611607610664 7.462830050159743 -10.62423573446225 C 7.307017220869437 -10.423248669652889 7.3946858643767595 -9.962701166861152 7.495753645538038 -9.429032655729248 M 10.49180082496292 -3.866093534310515 C 10.490851085765838 -3.8527429478698796 10.48918978415395 -3.839452534974786 10.486824002405738 -3.826278953853043 C 10.478912375283699 -3.7764359490365784 10.448575103168258 -3.732976042936315 10.404515013959998 -3.7083665424982186 C 10.385314252864974 -3.697529481069914 10.365501329171495 -3.687814757194401 10.345175975778186 -3.679271272163911 C 10.313898222732215 -3.665481146318271 10.284240131267063 -3.648276885468359 10.256741667262068 -3.627971716574473 L 10.128875610792875 -3.8281931163750365 C 10.244491027121306 -3.84618624408178 10.365083266006923 -3.8592025492313393 10.491800824962924 -3.866093534310515 M 12.95724215329109 -8.357867308421449 C 12.95724215329109 -7.620531904949392 12.845837894511044 -6.909229111776451 12.6391083421357 -6.239655061582976 L 12.632600189560923 -6.2178336088322474 C 12.601973589209019 -6.119828487706158 12.568667161326323 -6.022971864093265 12.534212235930436 -5.9268809054891705 L 12.513156448188502 -5.869073197324953 C 12.481249804101692 -5.783313457461691 12.447681834429241 -5.698181002056661 12.412471499531607 -5.613723916890924 C 12.40022085939086 -5.584628646556656 12.388353051754498 -5.55515054371795 12.375719579109335 -5.526055273383642 C 12.228384297344933 -5.186254360258369 12.055486073968606 -4.858118871926095 11.85851286566658 -4.544472732105161 C 11.827886265314678 -4.4962358365509125 11.797259664962777 -4.447616108492268 11.765867399602074 -4.39976204544242 C 11.728349814170993 -4.3434856672958 11.689683731226717 -4.288357786662374 11.651017648282439 -4.233229906028949 C 11.622688042956929 -4.193415325571477 11.594741270135817 -4.152835080105204 11.56564599980151 -4.1134033321521315 C 11.520043433051548 -4.051918820731206 11.473459509994184 -3.991168279976945 11.425912135695983 -3.9311750600583455 C 11.400645190405633 -3.899017129688813 11.37614391012411 -3.8664763668149167 11.350494132329393 -3.835084101454214 C 11.295249158907517 -3.767984551680719 11.23896600145403 -3.701746550051782 11.181664997889483 -3.636394031671193 L 11.12117746219452 -3.5667185158706705 C 11.053033276411538 -3.4909176799997095 10.98335776061096 -3.4174138391551416 10.912150914792786 -3.3446756633193733 L 10.877695989396894 -3.308689407905888 C 10.793603125088108 -3.2236368466034424 10.707308931531262 -3.1407893146235715 10.61890121642331 -3.0602311125510724 L 10.351301295848566 -3.480198369876545 C 10.352449793361764 -3.4817296998941387 10.354746788388157 -3.4824953649029364 10.355895285901354 -3.4844095274249316 C 10.361254940962937 -3.4932146750261026 10.39456136884563 -3.5077623101932556 10.416765654100761 -3.5177159553076276 C 10.519747597784031 -3.5632730233310834 10.691639392259088 -3.6394566917064406 10.66866944199516 -3.967161315471799 C 10.66866944199516 -3.9709896405157874 10.666372446968765 -3.974435133055376 10.66560678195997 -3.977880625594965 C 10.664993518130634 -3.9816818887756398 10.66396653089764 -3.985404717495239 10.66254412192478 -3.988982768222529 C 10.658139654994391 -4.0041212970020315 10.649664743738557 -4.017760607304394 10.638042841643259 -4.028414516175603 C 10.626940699015693 -4.037602496281176 9.840219902476191 -4.716747359084618 9.534719563965963 -5.441449289911516 C 10.823716606276669 -5.629420049571319 11.332118172118253 -6.439876461383545 11.353173959860184 -6.4747142192838325 C 11.372037896305372 -6.505835348987194 11.369910985965511 -6.545335112441732 11.347814304798602 -6.574250670427517 C 11.325717623631695 -6.603166228413302 10.694702052294277 -7.428349987741203 9.68670406821228 -8.74873929541261 C 8.6733464290687 -10.076019588163192 8.60367091326812 -12.797575861934146 8.602905248259322 -12.82475696974646 C 8.602471371879027 -12.855980066935263 8.58539122108598 -12.884592969118488 8.558113845244666 -12.899792140608621 C 8.531065869830378 -12.915228020778159 8.497876009656029 -12.915228020778159 8.470828034241741 -12.899792140608621 C 8.459725891614177 -12.893283988033842 7.356785446441281 -12.27079833588142 6.290596921690667 -12.253570873183474 C 4.9644651264532795 -12.232132252937141 3.650201138852254 -11.386455250720228 2.9848382462071683 -10.884179004949022 C 2.0729312207292643 -10.19584616204001 1.1143186297147092 -10.049221312855273 1.1047478171047396 -10.04768998283768 C 1.0811365666505233 -10.044152558882104 1.0599141722917538 -10.031336437613497 1.0457916114273274 -10.012086559928592 C 1.0318823474598693 -9.99257849749085 1.0263671552105897 -9.968311651594023 1.0304783112513758 -9.944708039154406 C 1.0446431139141312 -9.864313213230663 1.3941691904302203 -7.957807341324718 2.6253585245767104 -6.672638624057999 C 3.816733278265726 -5.4295814822751485 4.0395417958258175 -3.717554522603786 4.041838790852211 -3.7003270599058418 C 4.045163025194862 -3.6723992154107936 4.061628707051205 -3.647739714311239 4.086149840410961 -3.6339654974239686 C 4.110670973770717 -3.6201912805367 4.1402968614927955 -3.618959838231092 4.165876522277417 -3.6306515441052643 C 5.588482108623299 -4.272278821477624 6.751144424482405 -4.298311431776742 6.762629399614369 -4.298311431776742 C 6.779122848262045 -4.299073091954467 6.795058019158541 -4.304517608677436 6.8085693001422225 -4.314007564457093 C 6.854509200670078 -4.298311431776742 6.90083193370233 -4.282998131600792 6.943709174194995 -4.269981826451234 C 7.214128965733973 -4.1880970870188445 7.430521331002321 -3.9841752706330187 7.528294408411938 -3.7190858526213812 L 7.926057380482273 -2.5012956561288515 C 7.926823045491069 -2.4986158285980604 7.929120040517462 -2.497084498580465 7.93026853803066 -2.494787503554072 C 7.939316174713843 -2.447158024149095 7.967558811884508 -2.4053478455925212 8.00836636892801 -2.3791720872256388 C 8.063771003852372 -2.3481012335210867 8.126751045592849 -2.333118613064931 8.190211808517434 -2.335912014228578 C 8.270989466945577 -2.335912014228578 8.366314760540874 -2.357733466979308 8.46508554667576 -2.392571224879598 L 8.714309507039369 -1.8118143157066413 C 8.625209468409473 -1.771943903789202 8.535355008785473 -1.7337812852841221 8.444795423942656 -1.6973473968914217 C 8.404980843485152 -1.6816512642110553 8.365549095532076 -1.6655722990263069 8.325351682570204 -1.6506418313547542 C 8.260652989326811 -1.6257577185688348 8.195188631074618 -1.602787768304907 8.129341440318028 -1.580200650545379 C 8.075362057197799 -1.5614418578298377 8.02138267407757 -1.5423002326098985 7.966637625948543 -1.5250727699119562 C 7.918017897889898 -1.5093766372316058 7.868632504822454 -1.4952118345688472 7.819629944259411 -1.480281366897298 C 7.746891768423641 -1.4588427466509657 7.6741535925878726 -1.4374041264046333 7.600266919238907 -1.418262501184694 C 7.573468643930992 -1.4109886836011185 7.54628753611868 -1.4052461960351383 7.519106428306365 -1.398355210955959 C 6.952058442486155 -1.2574338937750174 6.36993720545769 -1.186211463272862 5.7856408483886685 -1.186266003519032 C 4.064425908611738 -1.1862660035190284 2.485624660471154 -1.7930555229911 1.24945850376748 -2.8037333346038924 C 0.885274523839799 -3.1014998225784787 0.5508935067605645 -3.4339576359551867 0.2510313322954496 -3.7964180185099394 C -0.8094707690044466 -5.079707016055847 -1.388473580961399 -6.693088331412969 -1.3859604565137484 -8.35786730842145 C -1.3884735809616369 -10.022646285428898 -0.8094707690049181 -11.636027600786104 0.2510313322947959 -12.919316598332166 C 0.5496406857265024 -13.28071048248541 0.8834706295622423 -13.61224343129476 1.246395843732289 -13.909704287212614 C 2.5260347217579042 -14.959372141002715 4.1305661606175965 -15.531926119059166 5.785640848388673 -15.52946861332387 C 7.450419825397152 -15.531981737771519 9.063801140754276 -14.952978925814568 10.347090138300185 -13.892476824514667 C 10.708484022452634 -13.593867471083616 11.04001697126198 -13.260037527247878 11.337477827179837 -12.89711231307783 C 12.387089480830655 -11.617441639446143 12.959636025852278 -10.012931031003369 12.957242153291093 -8.357867308421447" fill="#262626" transform="matrix(1,0,0,1,0,0)" fill-rule="nonzero"></path></g></g></g><defs><clipPath id="SvgjsClipPath1001"><path d=" M -1.692226460032776 -15.835734616842895 h 14.955734616842895 v 14.955734616842895 h -14.955734616842895 Z"></path></clipPath><clipPath id="aa298c698-d244-4ff1-b6e1-985158c34894cf2833fd-33d7-4edb-bad9-f5a96f3ebf4d"><path d=" M -1.692226460032776 -0.8800000000000008 L 13.263508156810119 -0.8800000000000008 L 13.263508156810119 -15.835734616842895 L -1.692226460032776 -15.835734616842895 Z"></path></clipPath></defs></svg>